<?xml version="1.0" standalone="no"?>
<!DOCTYPE svg PUBLIC "-//W3C//DTD SVG 1.1//EN" "http://www.w3.org/Graphics/SVG/1.1/DTD/svg11.dtd" >
<svg xmlns="http://www.w3.org/2000/svg">
<metadata></metadata>
<defs>
<font id="nautikregular" horiz-adv-x="1396" >
<font-face units-per-em="2048" ascent="1622" descent="-426" />
<missing-glyph horiz-adv-x="409" />
<glyph unicode="&#xfb01;" horiz-adv-x="921" d="M88 885v65h94v82q0 171 63 266t181 116t287 -9l-15 -66q-243 39 -343.5 -34.5t-100.5 -274.5v-80h494v-887h94v-63h-260v63h96v822h-424v-822h88v-63h-242v63h82v822h-94z" />
<glyph unicode="&#xfb02;" horiz-adv-x="882" d="M88 885v65h94v82q-1 281 126 385t392 56v-1211q0 -198 154 -205l-6 -65q-99 3 -159 73.5t-60 196.5v1155q-109 11 -183 -9t-116.5 -73t-60 -127.5t-17.5 -181.5v-76h129v-65h-129v-822h88v-63h-240v63h82v822h-94z" />
<glyph horiz-adv-x="0" />
<glyph unicode="&#xd;" horiz-adv-x="2048" />
<glyph unicode=" "  horiz-adv-x="409" />
<glyph unicode="&#x09;" horiz-adv-x="409" />
<glyph unicode="&#xa0;" horiz-adv-x="409" />
<glyph unicode="!" horiz-adv-x="378" d="M205 0v262h71v-262h-71zM205 543v1069h71v-1069h-71z" />
<glyph unicode="&#x22;" horiz-adv-x="567" d="M127 1014q-15 209 4 355.5t78 250.5l51 -29q-45 -115 -59 -245t-2 -332h-72zM342 1014q-15 210 4.5 356t79.5 250l49 -29q-46 -114 -59.5 -243.5t-1.5 -333.5h-72z" />
<glyph unicode="#" horiz-adv-x="1024" d="M51 403l8 68h220l55 367h-223l8 67h225l62 393h71l-61 -393h270l59 393h74l-59 -393h225l-6 -67h-229l-58 -367h234l-6 -68h-238l-61 -403h-74l61 403h-268l-61 -403h-72l59 403h-215zM350 471h271l57 367h-270z" />
<glyph unicode="$" horiz-adv-x="1058" d="M102 -20v477h74v-166q31 -104 120 -171t202 -75v752q-49 17 -81 28.5t-76.5 31.5t-73.5 39t-61 47.5t-50.5 59.5t-30.5 73t-12 91q0 87 33 158.5t87.5 116t123 68.5t141.5 22v149h69v-153q69 -12 127.5 -53t96.5 -105v141h73v-424h-73v123q-23 99 -82.5 161.5 t-141.5 80.5v-604q404 -112 404 -442q0 -189 -110.5 -305t-293.5 -128v-172h-69v174q-99 1 -182.5 49t-139.5 128v-172h-74zM186 1167q0 -51 18.5 -93.5t45.5 -71.5t71.5 -55t83.5 -41.5t93 -33.5v588q-127 3 -219.5 -75t-92.5 -218zM567 45q151 11 239.5 105.5t88.5 255.5 q0 51 -12 95.5t-30 77.5t-47.5 62t-55.5 48t-63 37.5t-61 28t-59 21.5v-731z" />
<glyph unicode="%" horiz-adv-x="1314" d="M72 1163q0 94 27.5 177.5t82.5 138.5t125 55q60 0 105 -31.5t69 -85.5t35.5 -116.5t11.5 -135.5q0 -67 -12.5 -124.5t-38.5 -104t-71.5 -73.5t-106.5 -27q-63 0 -108.5 26.5t-70.5 74t-36.5 103t-11.5 123.5zM131 1163q0 -268 170 -268q168 0 168 268q0 314 -164 314 q-75 0 -124.5 -92.5t-49.5 -221.5zM354 0q161 470 531 1526h69q-294 -840 -532 -1526h-68zM774 322q0 93 27.5 176t83 137.5t125.5 54.5q60 0 104.5 -31t68.5 -85t35 -116t11 -134q0 -92 -21 -163.5t-74 -119t-133 -47.5q-63 0 -108.5 26.5t-70.5 73.5t-36.5 103.5 t-11.5 124.5zM834 322q0 -271 170 -271q165 0 165 271q0 311 -161 311q-75 0 -124.5 -91t-49.5 -220z" />
<glyph unicode="&#x26;" horiz-adv-x="1155" d="M90 -8q-2 315 9 464t55 251q27 67 70 109t130 104q-14 21 -28 44.5t-42.5 78t-46.5 116t-18 113.5q0 102 80.5 185t204.5 83q63 0 114.5 -25.5t81.5 -65t46 -84t16 -87.5l-66 -35q0 93 -52 159t-142 66q-85 0 -147 -58.5t-62 -133.5q0 -42 12 -85t31 -87t72.5 -132 t105.5 -168t162 -247q7 -10 10.5 -16t9.5 -15t11 -16q0 1 10 22.5t22 53.5t24.5 76.5t21 106t8.5 126.5h243v-72h-180q-1 -75 -25 -162.5t-43.5 -131t-37.5 -76.5q30 -44 40.5 -59t42.5 -60.5t49 -66.5t48 -59t52 -57t47 -41.5t48.5 -32t42.5 -9.5l2 -76q-29 0 -60 12 t-57 28.5t-58.5 47.5t-54 54t-53.5 64.5t-47.5 63t-46 64.5t-38.5 55q-93 -149 -211 -242q-182 -147 -406 -147zM162 66q70 3 149.5 39.5t149.5 93.5q112 90 205 243q-183 272 -273 416q-68 -39 -113.5 -85.5t-70.5 -119.5q-33 -98 -41 -226.5t-6 -360.5z" />
<glyph unicode="'" horiz-adv-x="360" d="M125 1014q-13 216 3 345.5t81 260.5l49 -29q-48 -132 -58.5 -241.5t-4.5 -335.5h-70z" />
<glyph unicode="(" horiz-adv-x="280" d="M43 635q0 436 137 973l70 14q-24 -90 -50.5 -213.5t-57 -354.5t-29.5 -423q0 -175 30.5 -410.5t58 -373.5t48.5 -226l-70 12q-23 93 -48.5 213t-57 358.5t-31.5 430.5z" />
<glyph unicode=")" horiz-adv-x="280" d="M25 -379q24 90 50.5 213.5t57 354.5t29.5 423q0 175 -30.5 410.5t-58 373.5t-48.5 226l69 -12q23 -93 48.5 -213t57 -358.5t31.5 -430.5q0 -436 -137 -973z" />
<glyph unicode="*" horiz-adv-x="696" d="M57 1346l19 57l246 -84l-7 260h64l-4 -260l246 84l18 -57l-250 -78l156 -209l-49 -37l-148 213l-151 -213l-50 39l156 203z" />
<glyph unicode="+" horiz-adv-x="796" d="M57 541v65h305v359h72v-359h305v-65h-305v-365h-72v365h-305z" />
<glyph unicode="," horiz-adv-x="337" d="M92 -309q49 133 59.5 243t4.5 334h69q13 -216 -3 -345.5t-81 -260.5z" />
<glyph unicode="-" horiz-adv-x="782" d="M86 547v67h610v-67h-610z" />
<glyph unicode="." horiz-adv-x="327" d="M160 0v268h76v-268h-76z" />
<glyph unicode="/" horiz-adv-x="747" d="M10 -268l652 1843h75l-651 -1843h-76z" />
<glyph unicode="0" horiz-adv-x="862" d="M82 496q0 142 44 271t128.5 212.5t187.5 83.5q74 0 133.5 -32.5t97.5 -86t63 -127.5t35.5 -152t10.5 -165q0 -105 -19 -193t-58.5 -160.5t-108.5 -113.5t-162 -41q-97 0 -167.5 41t-109.5 113.5t-57 159t-18 190.5zM154 496q0 -202 68 -319.5t212 -117.5q94 0 157.5 59 t91.5 155.5t28 224.5q0 142 -25.5 250t-87.5 177.5t-156 69.5q-78 0 -145 -70.5t-105 -185.5t-38 -243z" />
<glyph unicode="1" horiz-adv-x="618" d="M59 940l310 125v-999h200v-66h-477v66h207v905l-213 -88z" />
<glyph unicode="2" horiz-adv-x="712" d="M57 0q42 194 106 309.5t204 255.5q173 173 176 432q-45 1 -86.5 -3t-91 -13t-89 -29t-73 -48.5t-51 -74t-15.5 -102.5l-57 10q-2 62 15 112t46.5 84t74 59t90 39t103 22t104 10t101.5 2q-1 -120 -21 -214.5t-53.5 -157t-75 -114t-88 -101t-88.5 -102t-81 -132t-62 -176.5 h424v153h72v-221h-584z" />
<glyph unicode="3" horiz-adv-x="747" d="M20 -231q121 55 216.5 120t157 129t102 132t57 128.5t16.5 120.5q0 79 -40.5 125t-101.5 54t-127.5 -6.5t-121.5 -47.5l-26 58q153 67 249 163t162 236h-424v-137h-67v205h590q-43 -130 -123 -244.5t-181 -169.5q69 10 124 -4.5t88.5 -48t51 -78.5t17.5 -98 q0 -91 -33.5 -182.5t-102.5 -184t-186.5 -179.5t-273.5 -155z" />
<glyph unicode="4" horiz-adv-x="811" d="M55 102q13 104 23.5 173t32 171t46.5 171.5t66.5 151.5t92 135.5t123 97.5t159.5 63v-895h137v-68h-137v-319h102v-66h-278v66h106v319h-473zM135 170h393v797q-106 -39 -180.5 -129.5t-127 -254t-85.5 -413.5z" />
<glyph unicode="5" horiz-adv-x="747" d="M55 -231q249 136 382.5 285t133.5 333q0 104 -50 159.5t-128 55.5q-32 0 -68.5 -8.5t-70 -23t-58 -27t-49.5 -27t-28 -16.5v549h526v-203h-70v135h-387v-379q17 10 44.5 23t77.5 28t91 15q119 0 178.5 -76.5t59.5 -202.5q0 -204 -139.5 -367t-415.5 -315z" />
<glyph unicode="6" horiz-adv-x="811" d="M86 385q0 533 236 772q176 176 399 182l6 -67q-197 -8 -354 -162q-89 -86 -145.5 -230t-71.5 -331q30 88 106.5 153.5t172 97.5t194.5 31q73 -244 73 -419q0 -201 -79 -309.5t-220 -108.5q-149 0 -233 100t-84 291zM156 360q0 -145 67.5 -222t179.5 -77q99 0 163.5 82 t64.5 263q0 158 -58 350q-172 -8 -294.5 -123t-122.5 -273z" />
<glyph unicode="7" horiz-adv-x="823" d="M33 848v201h762l26 -78q-56 -38 -94 -67t-84.5 -71.5t-77.5 -83t-66 -98t-57 -121.5t-43.5 -149t-33 -184.5t-18 -224t-5.5 -271.5h-72q0 248 20.5 436.5t55 319t94 231t124.5 165t159 128.5h-619v-133h-71z" />
<glyph unicode="8" horiz-adv-x="839" d="M78 336q0 114 70.5 236t181.5 221q-78 66 -118 130t-40 138q0 109 85 192.5t210 83.5q112 0 185 -76.5t73 -189.5q0 -104 -50 -190t-132 -172q103 -88 159 -179.5t56 -203.5q0 -157 -96.5 -250.5t-245.5 -93.5q-159 0 -248.5 100.5t-89.5 253.5zM150 340 q0 -130 76.5 -210.5t191.5 -80.5q48 0 94 16t86 48t64 86.5t24 124.5q0 60 -21 117.5t-50.5 99.5t-75.5 86t-80 69.5t-80 57.5q-110 -96 -169.5 -205.5t-59.5 -208.5zM244 1061q0 -25 6.5 -50t14.5 -43.5t27 -42t30.5 -36.5t40 -36.5t40.5 -33t47 -35.5t46 -34 q159 155 159 315q0 87 -55.5 146t-132.5 59q-94 0 -158.5 -63.5t-64.5 -145.5z" />
<glyph unicode="9" horiz-adv-x="788" d="M55 -213q96 1 189 44t168 118q86 86 144 233.5t71 329.5q-30 -89 -104.5 -155.5t-168 -98.5t-192.5 -31q-84 199 -84 422q1 90 18 162.5t52.5 131.5t98 91.5t148.5 32.5q80 0 139.5 -30t94 -84t51 -121.5t16.5 -149.5q0 -547 -233 -780q-178 -178 -400 -181zM150 651 q0 -212 61 -350q84 2 160.5 35.5t132.5 87t89.5 126t33.5 150.5q0 141 -61 220t-171 79q-121 0 -183 -91.5t-62 -256.5z" />
<glyph unicode=":" horiz-adv-x="325" d="M160 0v266h71v-266h-71zM160 684v266h71v-266h-71z" />
<glyph unicode=";" horiz-adv-x="323" d="M92 -309q49 133 59.5 243t2.5 332h71q11 -219 -4.5 -348t-79.5 -258zM152 682v268h71v-268h-71z" />
<glyph unicode="&#x3c;" horiz-adv-x="800" d="M31 553l647 455l43 -68l-567 -385l567 -391l-43 -66z" />
<glyph unicode="=" horiz-adv-x="888" d="M78 387v68h733v-68h-733zM80 610v68h731v-68h-731z" />
<glyph unicode="&#x3e;" horiz-adv-x="800" d="M80 164l567 391l-567 385l43 68l647 -455l-647 -455z" />
<glyph unicode="?" horiz-adv-x="757" d="M154 1307v241q47 -9 105 -26t131.5 -49.5t132.5 -71t100 -95t41 -118.5q0 -66 -36.5 -120.5t-88 -92.5t-103.5 -74t-88.5 -82t-36.5 -100q0 -101 92 -156l-28 -59q-17 7 -35.5 20t-42.5 37.5t-39.5 64.5t-15.5 89q0 68 36.5 124t88.5 94.5t104 74.5t88.5 80.5t36.5 95.5 q0 39 -26 77t-66 68t-91 56.5t-98.5 44t-91.5 28.5v-151h-69zM319 0v268h72v-268h-72z" />
<glyph unicode="@" horiz-adv-x="1392" d="M78 293q0 118 30.5 242.5t96 245t157 215t223.5 152.5t285 58q109 0 190 -31.5t129 -81t77 -123t39 -144.5t10 -158q0 -113 -30 -220.5t-88 -202.5t-154.5 -167t-219.5 -105l35 373q-56 -173 -180 -265.5t-283 -92.5q-2 263 23.5 416t109.5 260q133 168 437 243l-70 -837 q93 35 164 105.5t109 157t56.5 171.5t18.5 168q0 244 -87.5 355.5t-285.5 111.5q-141 0 -262 -54.5t-203 -142.5t-140.5 -200.5t-85.5 -228.5t-27 -226q0 -239 93.5 -385t270.5 -146q143 0 264 66l33 -64q-133 -69 -301 -69q-72 0 -135.5 21.5t-119 68.5t-95 116.5t-62 171 t-22.5 226.5zM463 59q138 17 221 103q102 105 142 238.5t59 414.5q-202 -64 -297 -184q-72 -89 -97 -219.5t-28 -352.5z" />
<glyph unicode="A" d="M10 0v70h158l459 1396h-154v70h275l483 -1466h155v-70h-389v70h156l-172 520h-565l-172 -520h153v-70h-387zM438 659h518l-258 797z" />
<glyph unicode="B" horiz-adv-x="1114" d="M104 0v70h152v1362h-152v69h398q218 0 333 -98.5t115 -267.5q0 -113 -62 -205.5t-173 -122.5q132 -26 224.5 -138.5t92.5 -248.5q0 -197 -121 -308.5t-372 -111.5h-435zM332 70h207q417 0 417 350q0 145 -106 246.5t-270 101.5h-248v-698zM332 840h237q150 0 227.5 82 t77.5 213q0 137 -91.5 217t-280.5 80h-170v-592z" />
<glyph unicode="C" horiz-adv-x="1030" d="M72 662q0 138 17 256t46 205t69.5 156.5t86 115t97 75.5t100.5 43t98 13q101 0 172.5 -46t97.5 -128l-2 102v74h74v-428h-76v47q0 142 -70 225.5t-196 83.5q-68 0 -132 -31.5t-120 -97t-98 -158t-66 -222.5q-23 -125 -23 -271v-12q0 -127 21 -234.5t64 -195t117 -137.5 t173 -50q223 0 361 266l61 -34q-156 -302 -422 -302q-39 0 -76.5 6.5t-83.5 26t-85.5 50.5t-78 84.5t-66 122.5t-44 170.5t-16.5 224.5z" />
<glyph unicode="D" horiz-adv-x="1208" d="M104 0v70h152v1362h-152v69h383q321 0 481 -199t160 -557q0 -85 -7 -159.5t-25.5 -151.5t-47 -140t-75 -118.5t-106.5 -93.5t-143.5 -60t-184.5 -22h-435zM332 70h207q121 0 212.5 35.5t148.5 94.5t92 148t48 184t13 213q0 335 -140.5 511t-425.5 176h-155v-1362z" />
<glyph unicode="E" horiz-adv-x="1193" d="M104 1432v69h988v-225h-76v156h-678v-564h645v-69h-645v-729h678v153h76v-223h-986v70h156v1362h-158z" />
<glyph unicode="F" horiz-adv-x="1118" d="M104 0v70h168v1362h-155v69h975v-225h-76v156h-668v-564h676v-69h-676v-729h162v-70h-406z" />
<glyph unicode="G" horiz-adv-x="1075" d="M66 682q0 130 19.5 252t61 229.5t100.5 187.5t143 126.5t183 46.5q101 0 170 -44.5t107 -113.5q0 15 -2 69.5t-2 92.5h74v-428h-74v121q0 28 -17.5 66t-49.5 75.5t-86.5 63.5t-119.5 26q-105 0 -189.5 -66.5t-136.5 -177.5t-80 -249.5t-28 -288.5q0 -302 98 -462.5 t273 -160.5q57 0 117 23.5t114.5 67.5t92 117.5t43.5 162.5v282h-242v70h317v-778h-75v108q4 78 4 123q-42 -116 -148.5 -181t-218.5 -65q-106 0 -186.5 41t-129 107t-79.5 161t-42 190t-11 206z" />
<glyph unicode="H" horiz-adv-x="1378" d="M104 0v70h158v1362h-158v69h379v-69h-145v-564h702v564h-145v69h379v-69h-158v-1362h158v-70h-379v70h145v729h-702v-729h145v-70h-379z" />
<glyph unicode="I" horiz-adv-x="595" d="M104 0v70h156v1362h-156v69h388v-69h-156v-1362h156v-70h-388z" />
<glyph unicode="J" horiz-adv-x="577" d="M0 -340q45 15 81.5 39t63.5 51t48 68t35.5 77t24 94t14.5 103.5t8 119.5t3.5 127.5t0.5 141.5v951h-156v69h383v-69h-152v-951v-69v-67q-1 -66 -2.5 -127t-6.5 -117t-12.5 -106t-20.5 -95.5t-30.5 -84.5t-42 -73t-56 -62t-71.5 -50t-89 -38z" />
<glyph unicode="K" horiz-adv-x="1216" d="M104 1432v69h361v-69h-129v-619q74 1 127 1q105 0 121 -3l305 621h-125v69h338v-69h-133l-310 -635q116 -28 179 -148q38 -53 71 -141t116 -350q6 -19 9.5 -29.5t8.5 -27.5t10 -31h135v-70h-193q-131 425 -162 503q-25 64 -53 103q-41 72 -103 104.5t-159 32.5h-182v-673 h129v-70h-359v70h154v1362h-156z" />
<glyph unicode="L" horiz-adv-x="1032" d="M104 0v70h156v1362h-154v69h383v-69h-153v-1362h604v143h76v-213h-912z" />
<glyph unicode="M" horiz-adv-x="1630" d="M20 0v70h160l213 1362h-153v69h280l293 -1337l299 1337h279v-69h-154l215 -1362h158v-70h-377v70h143l-215 1364l-325 -1452h-54l-323 1452l-205 -1364h143v-70h-377z" />
<glyph unicode="N" horiz-adv-x="1406" d="M104 0v70h158v1362h-158v69h279l707 -1349l-3 161v1119h-157v69h385v-69h-154v-1450h-67l-760 1454l2 -142v-1224h158v-70h-390z" />
<glyph unicode="O" horiz-adv-x="1157" d="M78 723q0 180 40 332t108.5 256t163 162.5t202.5 58.5q147 0 258 -105.5t169 -288t58 -415.5q0 -336 -145 -537.5t-371 -201.5q-217 0 -350 204.5t-133 534.5zM154 723q0 -311 115.5 -489.5t291.5 -178.5q90 0 169 44t140 126t96 210.5t35 287.5q0 337 -114 537t-295 200 q-87 0 -166 -49.5t-139.5 -140.5t-96.5 -233t-36 -314z" />
<glyph unicode="P" horiz-adv-x="1013" d="M104 0v70h158v1362h-158v69h388q230 -1 362 -115q131 -114 131 -326q0 -78 -23 -144q-22 -64 -57.5 -108t-88 -77.5t-107 -53.5t-121.5 -33t-125.5 -17.5t-124.5 -5.5v-551h158v-70h-392zM338 690q571 0 571 374q1 178 -107 272q-108 96 -310 96h-154v-742z" />
<glyph unicode="Q" horiz-adv-x="1163" d="M78 715q0 229 68 414t186 289t262 104q148 0 259 -105t169.5 -287.5t58.5 -414.5q0 -264 -88.5 -449t-240.5 -252q82 -192 276 -192v-72q-241 0 -346 240q-62 -15 -107 -15q-144 0 -257 93t-176.5 262t-63.5 385zM154 715q0 -156 34 -284.5t91.5 -212t133.5 -128.5 t162 -45q186 0 308.5 177t122.5 493q0 335 -116 536t-296 201q-87 0 -166.5 -53t-140 -146.5t-97 -233.5t-36.5 -304z" />
<glyph unicode="R" horiz-adv-x="1177" d="M104 0v70h158v1362h-158v69h232q92 0 134 -0.5t105 -3.5t94 -10t71.5 -20t69.5 -32.5t58 -48.5q115 -118 115 -288q0 -139 -74.5 -239.5t-201.5 -121.5q60 -11 108 -59q61 -61 88.5 -166t64.5 -363q7 -52 11 -79h131v-70h-201q-5 35 -19 152.5t-21.5 164t-24 125.5 t-38 125t-50.5 76q-39 38 -93 52t-137 14h-190v-639h149v-70h-381zM336 776h248q158 0 240.5 84.5t82.5 235.5q0 147 -92 239q-68 67 -165 83q-86 14 -266 14h-48v-656z" />
<glyph unicode="S" horiz-adv-x="1060" d="M102 -10v473h76v-141q30 -130 124.5 -200.5t223.5 -70.5q171 0 270 95t99 266q0 81 -27 143t-72 100.5t-103.5 67.5t-123.5 49.5t-130 40.5t-123.5 47.5t-103.5 63.5t-72 95t-27 136q0 116 57.5 201.5t143.5 125.5t186 40q93 0 171.5 -46t123.5 -130l-2 75v72h73v-418 h-73v103q-25 135 -105 204.5t-188 69.5q-83 0 -152.5 -32t-114.5 -101t-45 -164q0 -66 27 -115.5t72.5 -80t104 -54t123.5 -43t130.5 -41.5t124 -54.5t104 -77t72.5 -115t27 -162.5q0 -200 -122.5 -315t-324.5 -115q-113 0 -204 48t-148 140l2 -61l2 -119h-76z" />
<glyph unicode="T" horiz-adv-x="1167" d="M16 1280v221h1135v-221h-76v152h-452v-1360h155v-70h-385v70h154v1360h-455v-152h-76z" />
<glyph unicode="U" horiz-adv-x="1347" d="M82 1432v69h246v-1423q63 5 135.5 39t147 93t143 149t122 199t85.5 252t32 298v324h-147v69h381v-69h-158v-1362h174v-70h-250v707q-35 -158 -115 -294t-182.5 -225t-217.5 -139.5t-224 -50.5v1434h-172z" />
<glyph unicode="V" horiz-adv-x="1222" d="M88 1432v69h381v-69h-150v-1373q94 20 174.5 59.5t141.5 91.5t111 123t85 146.5t61 168.5t42 182.5t25.5 196t13.5 201t4 204.5h-150v69h375v-69h-149v-51q0 -76 -2 -147q-3 -94 -13.5 -206.5t-29 -211t-50 -203t-74 -190.5t-104.5 -166t-138 -137.5t-177.5 -96.5 t-220.5 -50v1459h-156z" />
<glyph unicode="W" horiz-adv-x="1746" d="M82 1432v69h383v-69h-152v-1385q124 32 218 108.5t159 195.5t106 289q40 170 58 376q17 195 16 441v28h74v-1438q94 20 172 68.5t133 124t97 157t68 193t43.5 205.5t26 220.5t12 212t5.5 204.5h-149v69h379v-69h-154q0 -107 -3 -197.5t-12.5 -208t-24.5 -215t-42 -206.5 t-63.5 -194.5t-90.5 -167.5t-120.5 -138t-156 -92.5t-194.5 -43.5l2 803q-22 -221 -98.5 -394.5t-214 -285t-319.5 -125.5v1465h-158z" />
<glyph unicode="X" horiz-adv-x="1185" d="M43 0v70h160q2 121 23 226.5t49.5 179.5t75.5 146.5t85.5 117t95.5 102.5q-83 67 -136 122t-96 125t-62.5 153.5t-20.5 189.5h-160v69h377v-69h-143q-1 -177 70.5 -305.5t218.5 -241.5q129 126 168 171q115 134 141 281q8 45 10 95h-145v69h376v-69h-155 q-2 -57 -12.5 -109.5t-25 -93.5t-40 -84t-47 -73t-58 -69.5t-61 -63t-66.5 -63.5q-24 -23 -36 -34q55 -48 94 -90t83.5 -110t72 -144t46.5 -186t21 -242h195v-70h-271q0 144 -16.5 262t-41.5 196.5t-66 147.5t-76.5 109.5t-87.5 87.5q-51 -53 -89 -99t-79.5 -114 t-68.5 -139.5t-45.5 -170t-20.5 -210.5h137v-70h-373z" />
<glyph unicode="Y" horiz-adv-x="1132" d="M20 1432v69h373v-69h-149q3 -219 91 -438.5t230 -360.5q142 137 230.5 356t89.5 443h-146v69h373v-69h-151q-1 -241 -101.5 -472.5t-257.5 -384.5v-505h156v-70h-385v70h153v505q-155 152 -254 384t-102 473h-150z" />
<glyph unicode="Z" horiz-adv-x="1099" d="M76 0l819 1432h-682v-191h-74v260h885l-819 -1431h708v188h76v-258h-913z" />
<glyph unicode="[" horiz-adv-x="327" d="M51 -416v1989h252v-70h-176v-1849h176v-70h-252z" />
<glyph unicode="\" horiz-adv-x="747" d="M10 1575h76l651 -1843h-75z" />
<glyph unicode="]" horiz-adv-x="327" d="M25 -346h176v1849h-176v70h251v-1989h-251v70z" />
<glyph unicode="^" horiz-adv-x="888" d="M76 854l325 647h88l324 -647l-78 -14l-289 600l-292 -600z" />
<glyph unicode="_" horiz-adv-x="976" d="M29 0h921v-70h-921v70z" />
<glyph unicode="`" horiz-adv-x="342" d="M0 1362l47 65l295 -165l-37 -50z" />
<glyph unicode="a" horiz-adv-x="847" d="M99 375q2 159 51.5 271t166.5 187.5t330 131.5v-902h121v-63h-190v225q0 30 4 102.5t4 82.5q-22 -184 -153 -302q-127 -115 -308 -114h-12q-14 197 -14 345v36zM175 464q-6 -70 -6 -157q0 -105 9 -235q92 8 163 50t115 103t72 143.5t39 163.5t11 170v172 q-207 -63 -298 -158.5t-105 -251.5z" />
<glyph unicode="b" horiz-adv-x="804" d="M76 1432v63h237v-63h-82v-654q0 -32 -8 -196q8 44 24.5 84t52 88t86.5 86t134.5 71.5t188.5 51.5q9 -122 9 -227q0 -84 -6 -158q-14 -168 -68.5 -287.5t-173 -195.5t-310.5 -111v1448h-84zM225 66q116 29 195 76.5t127 115t72 158.5t29 207q2 53 2 111q0 70 -3 149 q-150 -37 -241 -106.5t-135.5 -188t-45.5 -301.5v-221z" />
<glyph unicode="c" horiz-adv-x="731" d="M92 377q2 165 50 282t166.5 191t324.5 113v-269h-70v187q-153 -36 -241.5 -102.5t-123.5 -166.5q-36 -98 -38 -236q0 -16 -1 -33q0 -126 17 -284q159 2 246.5 49.5t152.5 182.5l60 -31q-40 -84 -85.5 -136t-110 -81.5t-138.5 -40t-186 -10.5q-24 201 -24 356q1 15 1 29z " />
<glyph unicode="d" horiz-adv-x="845" d="M112 470q14 188 120.5 302t347.5 180v478h-84v63h239v-63h-86v-1367h117v-63h-186v242q1 33 5.5 100t4.5 84q-21 -204 -153 -320q-125 -110 -298 -110h-18q-14 177 -14 317q0 86 5 157zM178 472q-6 -68 -7 -149q0 -115 13 -257q188 12 294 180q103 162 102 453v22v162 q-199 -49 -292.5 -148t-109.5 -263z" />
<glyph unicode="e" horiz-adv-x="774" d="M98 316q-1 29 -1 54q0 50 4 83q6 49 20 122.5t41 116t69.5 95t101 83t140.5 56t184 35.5q7 -64 8 -122q0 -210 -98 -335q-123 -158 -394 -158h-3q0 -153 18 -287q170 3 263 44.5t167 152.5l60 -35q-94 -134 -211 -180.5t-344 -46.5q-1 14 -4 41q-9 95 -13.5 144t-7.5 137 zM172 410h11q205 0 314 114q96 100 96 293q0 33 -3 68q-223 -34 -320.5 -156.5t-97.5 -318.5z" />
<glyph unicode="f" horiz-adv-x="503" d="M96 887v63h92v275q0 132 66 201t176 69l4 -63q-77 -5 -126.5 -54.5t-49.5 -152.5v-275h100v-63h-100v-824h90v-63h-242v63h82v824h-92z" />
<glyph unicode="g" horiz-adv-x="780" d="M105 356q2 160 46 276.5t166.5 199.5t339.5 133v-848q0 -116 -34.5 -208.5t-89.5 -149t-128 -94t-145 -51.5q-66 -13 -135 -13h-10v184h71v-115q52 5 102 18.5t106.5 46t97.5 80t68.5 125.5t27.5 177q0 76 4 137.5t4 91.5q-60 -347 -469 -352q-22 187 -22 338v24z M180 463q-7 -60 -7 -132q0 -117 17 -265q68 9 122 27t107.5 57.5t89.5 97.5t58.5 151t22.5 213v260q-205 -57 -299.5 -153.5t-110.5 -255.5z" />
<glyph unicode="h" horiz-adv-x="888" d="M92 0v63h94v1367h-94v63h260v-63h-96v-605q0 -93 -8 -194q30 133 155.5 226.5t307.5 103.5v-898h98v-63h-254v63h86v822q-55 -7 -106.5 -26t-104 -56.5t-90.5 -89t-62 -131.5q-23 -76 -22 -168v-8v-343h90v-63h-254z" />
<glyph unicode="i" horiz-adv-x="464" d="M88 887v63h203v-887h94v-63h-262v63h96v824h-131zM219 1165v269h72v-269h-72z" />
<glyph unicode="j" horiz-adv-x="456" d="M-31 -334h4q38 0 75 16q38 18 75.5 58t60.5 119.5t23 189.5v838h-92v63h254v-63h-93v-838q0 -118 -25 -207.5t-68.5 -140.5t-95 -75.5t-110.5 -24.5zM207 1165v269h74v-269h-74z" />
<glyph unicode="k" horiz-adv-x="851" d="M86 0v63h104v1364h-94v64h260v-64h-96v-892q60 40 100 71.5t88 78t74.5 97.5t30.5 105h-80v63h244v-63h-92q-17 -158 -211 -314q136 -66 197 -182.5t79 -327.5h141v-63h-208q-4 82 -12 145t-25.5 127t-45 111t-72 87t-103.5 65l-105 -68v-404h96v-63h-270z" />
<glyph unicode="l" horiz-adv-x="409" d="M63 1427v64h242v-64h-86v-1165q0 -106 43.5 -154t112.5 -51l-10 -65q-98 3 -156.5 73.5t-58.5 196.5v1165h-87z" />
<glyph unicode="m" horiz-adv-x="1296" d="M88 887v63h205v-39q0 -36 -2 -88.5t-4.5 -107.5t-3.5 -72q63 307 411 307h13v-49q0 -42 -5.5 -137.5t-5.5 -118.5q34 156 138 232q101 73 274 73h14v-887h95v-63h-256v63h92v824q-78 -3 -138 -29t-108.5 -81t-74 -151.5t-25.5 -230.5v-395h-68v887q-62 -4 -112 -19.5 t-94.5 -51t-74.5 -90t-47.5 -139t-17.5 -194.5v-330h92v-63h-260v63h96v824h-133z" />
<glyph unicode="n" horiz-adv-x="927" d="M88 887v63h205v-125q0 -68 -12 -200q40 163 160 249q115 82 294 82h17v-893h94v-63h-258v63h92v824q-177 -9 -282 -135.5t-105 -360.5v-328h92v-63h-260v63h96v824h-133z" />
<glyph unicode="o" horiz-adv-x="770" d="M74 342q0 182 92.5 334.5t212.5 212.5q-35 -7 -72 -7q-60 0 -123 19l17 55q77 -14 137 -16h23q44 0 69 5q32 6 82 16t92 14q78 -180 78 -422q0 -162 -40 -290t-120.5 -205.5t-189.5 -77.5q-49 0 -92.5 19t-82 59t-61 113t-22.5 171zM143 332q0 -138 55.5 -212.5 t135.5 -74.5q126 0 201 140.5t75 367.5q0 207 -57 352q-97 -21 -176.5 -79t-129.5 -137.5t-77 -171.5t-27 -185z" />
<glyph unicode="p" horiz-adv-x="854" d="M78 887v63h201v-170q-1 -35 -2.5 -77t-3.5 -85t-3 -57q11 70 44 131t89.5 115.5t146 92.5t204.5 54q14 -159 14 -289q0 -109 -10 -197q-21 -193 -132 -304.5t-347 -163.5v-328h83v-65h-243v65h88v1215h-129zM274 229l2 -161q155 36 246 98t131.5 159t46.5 234q2 41 2 87 q0 106 -10 235q-99 -24 -171.5 -64.5t-120.5 -95.5t-77 -130.5t-40 -162.5q-9 -74 -9 -165v-34z" />
<glyph unicode="q" horiz-adv-x="804" d="M100 375q4 160 52.5 273.5t165.5 189.5t325 125v-1295h86v-65h-240v65h84v477q0 39 2.5 96.5t6.5 114.5t4 66q-6 -55 -25.5 -111t-57.5 -114.5t-89.5 -103t-129.5 -71.5q-74 -26 -159 -26h-12q-14 177 -14 316q0 33 1 63zM172 466q-9 -74 -9 -166q0 -105 11 -232 q390 55 399 600v206q-198 -53 -291 -150.5t-110 -257.5z" />
<glyph unicode="r" horiz-adv-x="753" d="M88 887v63h201v-153q0 -25 -2 -60t-4.5 -71t-3.5 -48q27 156 147 248q116 90 297 90h12v-260h-69v189q-78 -7 -143 -37t-119 -86.5t-84.5 -151.5t-30.5 -221v-326h102v-63h-272v63h100v824h-131z" />
<glyph unicode="s" horiz-adv-x="667" d="M104 -23v242h72v-162q137 30 228 112t92 185q0 44 -21 75t-55.5 48t-76 31t-83.5 29t-76.5 36t-56 58.5t-21.5 89.5q0 69 36 120t99 79t133.5 41.5t153.5 15.5v-203h-69v131q-124 -3 -203.5 -48.5t-79.5 -131.5q0 -46 29 -77.5t72 -46.5t93.5 -33.5t93.5 -38.5t72 -63.5 t29 -105.5q0 -56 -26.5 -113.5t-79 -112.5t-145 -97.5t-210.5 -59.5z" />
<glyph unicode="t" horiz-adv-x="593" d="M68 887v63h104l6 201h62v-201h266v-63h-266v-821q75 26 128.5 75.5t100.5 137.5l59 -29q-72 -127 -148 -186.5t-210 -81.5v905h-102z" />
<glyph unicode="u" horiz-adv-x="974" d="M76 887v63h198v-880q190 14 298 151t108 387v279h-94v63h262v-63h-98v-824h135v-63h-205l2 190q0 21 6 103l3 62q-1 -1 -1 -3q-23 -98 -71 -169.5t-114.5 -111.5t-140 -58t-159.5 -19v893h-129z" />
<glyph unicode="v" horiz-adv-x="831" d="M80 887v63h258v-63h-90v-824q112 17 191 80.5t125 170.5q44 108 64 248q17 122 17 277v48h-88v63h254v-63h-94v-21q-1 -144 -13 -262q-14 -126 -50 -243t-95.5 -196t-156 -126.5t-224.5 -48.5v897h-98z" />
<glyph unicode="w" horiz-adv-x="1138" d="M80 887v63h260v-63h-92v-819q61 15 109.5 49t82 80t58.5 110t39 132t22 154t10 167q1 40 1 85t-1 95h72v-870q80 21 139 74t95 126.5t57 174.5q22 101 28 207q4 73 4 157q0 39 -1 80h-93v61h258v-61h-96v-48q0 -59 -2 -110q-2 -72 -12.5 -164.5t-29 -166t-53.5 -149 t-82.5 -128t-119 -89t-160.5 -44.5v280l7 176q-20 -195 -122.5 -321t-279.5 -135v897h-98z" />
<glyph unicode="x" horiz-adv-x="874" d="M51 0v63h113q1 155 50 258.5t157 206.5q-50 38 -81 67.5t-60.5 71.5t-44 96t-17.5 124h-113v63h279v-63h-92q0 -118 40.5 -185t137.5 -137q51 40 81 68.5t60 67.5t44 84t16 102h-99v63h281v-63h-111q-3 -50 -17.5 -95.5t-29.5 -74.5t-48 -66t-50.5 -53t-59.5 -52 q-11 -9 -16 -14q107 -87 153.5 -191t47.5 -278h151v-63h-219q0 51 -2 78q-9 158 -47 247.5t-133 172.5q-41 -38 -70.5 -75t-58.5 -89.5t-44 -120.5t-16 -150h107v-63h-289z" />
<glyph unicode="y" horiz-adv-x="931" d="M80 887v63h203v-884q399 23 399 540v281h-94v63h266v-63h-100v-756q0 -123 -36 -219.5t-91.5 -153t-130 -93.5t-143 -50t-140.5 -14v184h70v-111q53 5 101 17.5t105 44.5t98 79.5t69 129t28 186.5q0 17 4 209q-66 -346 -475 -346v893h-133z" />
<glyph unicode="z" horiz-adv-x="786" d="M61 0l527 887h-412v-123h-70v186h605l-525 -887h426v152h72v-215h-623z" />
<glyph unicode="{" horiz-adv-x="346" d="M45 516v55q14 0 32.5 4.5t42 27t25.5 59.5q2 76 -7 377.5t-9 342.5q3 73 54 109t126 33l6 -66q-21 -2 -35.5 -6t-35 -15.5t-31.5 -37.5t-12 -64q-2 -26 6.5 -317t5.5 -359q-2 -80 -90 -114q88 -34 90 -115q1 -23 -1.5 -187.5t-5.5 -326t-3 -164.5q0 -29 8 -51t18.5 -33.5 t27.5 -19t29 -9.5t29 -4l-6 -67q-78 3 -129 38.5t-51 106.5q0 15 9 325t7 390q-1 28 -14.5 47.5t-32.5 27t-31.5 10.5t-21.5 3z" />
<glyph unicode="|" horiz-adv-x="376" d="M154 -268v1931h69v-1931h-69z" />
<glyph unicode="}" horiz-adv-x="339" d="M25 -367q17 2 29 4t29 9.5t27.5 19t18.5 33.5t8 51q0 3 -3 164.5t-5.5 326t-1.5 187.5q2 81 90 115q-88 34 -90 114q-3 68 5.5 359t6.5 317q-1 38 -12 64t-31.5 37.5t-35 15.5t-35.5 6l6 66q75 3 126 -33t54 -109q0 -41 -9 -343t-7 -378q1 -28 14.5 -48t32.5 -28 t31.5 -11t21.5 -3v-55q-9 0 -21.5 -3t-31.5 -10.5t-32.5 -27t-14.5 -47.5q-2 -80 7 -390t9 -325q0 -71 -51 -106.5t-129 -38.5z" />
<glyph unicode="~" horiz-adv-x="1044" d="M57 1343q23 34 34 49.5t40 49t52.5 50t59 31.5t72.5 15q44 0 88 -19.5t81 -47t73 -55t76 -47t78 -19.5q36 0 69.5 13.5t55 30t44 44.5t31 42t21.5 36l53 -27q-12 -23 -26 -45t-39.5 -52t-54.5 -52.5t-69.5 -38t-84.5 -15.5q-57 0 -107.5 24.5t-107.5 69.5 q-42 32 -62 46.5t-55.5 30.5t-63.5 16q-33 0 -63 -13.5t-56.5 -41t-41.5 -46t-38 -51.5q-5 -7 -7 -10z" />
<glyph unicode="&#xa1;" horiz-adv-x="327" d="M154 410h71v-1069h-71v1069zM154 690v262h71v-262h-71z" />
<glyph unicode="&#xa2;" horiz-adv-x="907" d="M49 469q0 146 42.5 271t122.5 205.5t183 90.5v150h66v-150q63 -5 113 -45.5t57 -95.5q-6 96 -6 121v39h71v-353h-71q0 128 -49.5 198.5t-149.5 70.5q-72 0 -132.5 -46.5t-98 -120.5t-58 -160.5t-20.5 -172.5q0 -179 84.5 -296.5t234.5 -117.5q188 0 316 142l41 -54 q-59 -67 -147 -107.5t-185 -43.5v-144h-66v146q-70 5 -131 35t-110.5 85.5t-78 146.5t-28.5 206z" />
<glyph unicode="&#xa3;" horiz-adv-x="978" d="M49 752v69h191q-1 143 19 246t57.5 169t98 103t134 49.5t172.5 6.5l-14 -68q-115 7 -190 -17t-120.5 -87t-63.5 -158.5t-18 -243.5h269v-69h-269v-682h527v141h76v-211h-832v70h154v682h-191z" />
<glyph unicode="&#xa4;" horiz-adv-x="1144" d="M66 616l18 62h113q0 58 12 168h-143l18 61h137q49 253 180 394t306 141q96 0 174.5 -50t119.5 -112l-30 -66q-4 6 -11 17t-31.5 38t-53 48t-74.5 38t-96 17q-80 0 -147.5 -36t-117.5 -101t-85 -147t-56 -181h539l-23 -61h-528q-14 -100 -19 -168h570l-23 -62h-545 q1 -150 31.5 -263t83.5 -178.5t118.5 -97.5t143.5 -32q227 0 361 246l59 -29q-156 -285 -420 -285q-98 0 -177.5 36.5t-141 111t-96 199.5t-35.5 292h-131z" />
<glyph unicode="&#xa5;" horiz-adv-x="1130" d="M20 1430v69h371v-69h-147q0 -201 92 -393t227 -318q153 141 236.5 326.5t83.5 384.5h-148v69h375v-69h-152q0 -196 -80 -378t-219 -329h334v-61h-393v-146h393v-59h-393v-387h156v-70h-383v70h153v387h-395v59h395v146h-395v61h338q-135 140 -217 326t-82 381h-150z" />
<glyph unicode="&#xa6;" horiz-adv-x="370" d="M150 -268v645h71v-645h-71zM150 1020v643h71v-643h-71z" />
<glyph unicode="&#xa7;" horiz-adv-x="978" d="M102 860q0 51 26 115t62 108q-49 70 -49 179q0 82 41.5 155t121.5 120.5t181 47.5q103 0 185 -40.5t116 -94.5l-47 -49q-36 55 -105 85t-151 30q-117 0 -192.5 -77.5t-75.5 -183.5q0 -82 57 -159q45 -59 224 -156q168 -95 232 -145q149 -117 149 -254q0 -129 -82 -265 q36 -65 36 -161q0 -81 -28.5 -148t-72 -108t-98.5 -69t-105.5 -39t-96.5 -11q-88 0 -158 29t-155 96l39 59q82 -64 144 -89t130 -25q36 0 76.5 8.5t86.5 30.5t82.5 55t60.5 87.5t24 121.5q0 53 -17.5 99.5t-43 79.5t-69 66.5t-80.5 55t-93 49.5q-144 74 -199 114 q-153 120 -156 283zM176 858q0 -47 18.5 -89t42 -71t69.5 -62.5t75.5 -50.5t85.5 -48q68 -34 109.5 -57.5t91 -60.5t80.5 -75q55 108 55 193q0 42 -18.5 81.5t-45 70.5t-72.5 64.5t-84.5 57t-97.5 55.5q-192 101 -247 160q-26 -37 -44 -85.5t-18 -82.5z" />
<glyph unicode="&#xa8;" horiz-adv-x="409" d="M0 1176v237h70v-237h-70zM340 1176v237h70v-237h-70z" />
<glyph unicode="&#xa9;" horiz-adv-x="1363" d="M72 829q0 176 79.5 322.5t220.5 231.5t314 85q127 0 240 -50t193 -135.5t126.5 -203.5t46.5 -250q0 -125 -46.5 -240t-126 -200.5t-193 -136.5t-240.5 -51q-129 0 -244 51t-195.5 136.5t-127.5 200.5t-47 240zM135 829q0 -149 70 -279t198 -210t283 -80q154 0 280 80 t194.5 210t68.5 279q0 157 -69 289.5t-194 211.5t-280 79q-156 0 -283 -79t-197.5 -212t-70.5 -289zM389 811q0 107 31.5 200t100 155.5t161.5 62.5q58 0 99 -26.5t48 -72.5q-6 58 -6 76v29h62v-277h-62v60q0 69 -34 110t-107 41q-70 0 -124 -52.5t-80.5 -132.5t-26.5 -171 q0 -80 26 -150t82 -117.5t131 -47.5q110 0 197 98l35 -45q-100 -111 -244 -111q-129 0 -209 105.5t-80 265.5z" />
<glyph unicode="&#xaa;" horiz-adv-x="729" d="M78 1111.5q20 172.5 130.5 272t360.5 162.5v-811h107v-59h-172v198q0 22 4.5 91t3.5 82q-21 -166 -137 -273t-293 -104q-24 269 -4 441.5zM138.5 1087q-11.5 -141 2.5 -352q82 8 146.5 48.5t104.5 98t66 134t36 151t10 154.5v139q-187 -54 -270.5 -143t-95 -230z" />
<glyph unicode="&#xab;" horiz-adv-x="1040" d="M35 553l512 502l47 -45l-469 -457l469 -453l-47 -47zM399 553l516 502l43 -49l-469 -453l472 -453l-46 -47z" />
<glyph unicode="&#xac;" horiz-adv-x="827" d="M57 541v65h713v-258h-70v193h-643z" />
<glyph unicode="&#xad;" horiz-adv-x="782" d="M86 547v67h610v-67h-610z" />
<glyph unicode="&#xae;" horiz-adv-x="1456" d="M92 825q0 178 85 326.5t232 233.5t322 85q129 0 246 -50.5t202 -136t135 -205.5t50 -253q0 -126 -49.5 -242t-133.5 -201.5t-202 -136t-248 -50.5q-176 0 -323.5 86t-231.5 230.5t-84 313.5zM160 825q0 -112 45 -215.5t121.5 -180t183 -122t223.5 -45.5q155 0 284.5 77.5 t203 206.5t73.5 279q0 156 -73.5 289t-203 212t-284.5 79q-156 0 -288.5 -79t-208.5 -212.5t-76 -288.5zM463 451v55h96v680h-96v57h246q135 0 202.5 -59.5t67.5 -167.5q0 -77 -54 -127t-122 -53q137 -24 143 -330h84v-55h-139q-2 147 -10 195q-25 153 -139 161h-13h-111 v-301h89v-55h-244zM618 860h95q90 0 149.5 40.5t59.5 115.5q0 97 -67 139t-237 31v-326z" />
<glyph unicode="&#xaf;" horiz-adv-x="573" d="M0 1229q76 131 162 131q43 0 87 -27t82 -53.5t68 -26.5q10 0 20 2t18.5 5t17 9t14.5 10t14 12l12 12t11 13.5t9 12t9 11.5l6 10l43 -21q-67 -131 -172 -131q-31 0 -64.5 17t-58 37.5t-56 37.5t-58.5 17q-21 0 -40.5 -11t-30 -22.5t-27 -34.5t-23.5 -31z" />
<glyph unicode="&#xb0;" horiz-adv-x="530" d="M0 1241q0 111 77 191.5t185 80.5q113 0 190.5 -80t77.5 -192q0 -108 -78 -188t-190 -80q-108 0 -185 80.5t-77 187.5zM51 1241q0 -87 62.5 -152t148.5 -65q89 0 153 65t64 152q0 88 -64 154.5t-153 66.5q-85 0 -148 -65.5t-63 -155.5z" />
<glyph unicode="&#xb1;" horiz-adv-x="827" d="M57 -43h713v-66h-713v66zM74 530v66h303v358h72v-358h305v-66h-305v-364h-72v364h-303z" />
<glyph unicode="&#xb2;" horiz-adv-x="604" d="M66 836q7 134 55.5 216.5t136.5 155.5q3 3 28.5 24.5t31.5 27.5t27.5 26.5t29.5 31.5t23.5 32.5t22 38.5t13.5 40.5t10 47.5q-102 10 -174 -19t-120 -119l-50 31q49 109 148.5 145t259.5 15q0 -34 -2.5 -63.5t-11.5 -56.5t-15.5 -47t-23.5 -43.5t-24.5 -35t-31.5 -34.5 t-31 -29.5t-35 -30.5t-34 -29q-34 -28 -54.5 -48.5t-44.5 -52.5t-38 -72t-19 -91l383 2v-63h-460z" />
<glyph unicode="&#xb3;" horiz-adv-x="604" d="M57 860q108 1 189.5 23.5t126.5 58.5t66.5 75t21.5 81q0 61 -39.5 97t-98 38.5t-126.5 -16.5l-15 53q121 30 189 79t98 134h-332v55h410q-8 -82 -70.5 -160t-152.5 -102q96 6 150 -48t54 -128q0 -54 -26 -104.5t-78 -94t-143 -70t-209 -26.5z" />
<glyph unicode="&#xb4;" horiz-adv-x="483" d="M70 1262l297 163l45 -63l-303 -150z" />
<glyph unicode="&#xb5;" horiz-adv-x="956" d="M78 885v65h203v-882q80 17 152 63.5t131.5 122t94.5 190.5t35 254v187h-90v65h256v-65h-96v-819h110v-66h-180v147q0 51 3 124t5 120l3 47q-13 -111 -79 -207t-157 -154.5t-188 -76.5v-319h122v-64h-313v64h121v1204h-133z" />
<glyph unicode="&#xb6;" horiz-adv-x="917" d="M95.5 929.5q1.5 122.5 54 206t136.5 126.5t187 43v-1518h-231v70h157v893q-36 -41 -103 -70t-140 -33q-62 160 -60.5 282.5zM592 1305h233v-70h-155v-1448h-76z" />
<glyph unicode="&#xb7;" horiz-adv-x="260" d="M92 563v268h76v-268h-76z" />
<glyph unicode="&#xb8;" horiz-adv-x="284" d="M0 -344q98 11 147.5 45.5t58 90t-0.5 132.5q18 -1 40.5 2t30.5 8q23 -161 -39 -236t-229 -89z" />
<glyph unicode="&#xb9;" horiz-adv-x="360" d="M37 1485q161 45 237 59v-708h-67v632l-150 -41z" />
<glyph unicode="&#xba;" horiz-adv-x="761" d="M66 987q0 155 79 284t181 181q-78 -16 -166 10l12 49q67 -12 118.5 -13.5t78.5 3t71 13t78 12.5q66 -147 66 -361q0 -138 -34 -247.5t-102.5 -175.5t-162.5 -66q-41 0 -78.5 16.5t-70 51t-51.5 97t-19 146.5zM129 977q0 -116 45.5 -179t112.5 -63q107 0 169 117.5 t62 312.5q0 188 -43 299q-165 -49 -255.5 -185.5t-90.5 -301.5z" />
<glyph unicode="&#xbb;" horiz-adv-x="1040" d="M80 100l471 453l-469 453l43 49l516 -502l-516 -500zM446 100l469 453l-469 457l48 45l512 -502l-512 -500z" />
<glyph unicode="&#xbc;" horiz-adv-x="1314" d="M88 1288q162 46 238 60v-713h-70v635l-147 -39zM102 2l1061 1421l51 -47l-1056 -1415zM739 160q2 68 10.5 124.5t32 123t61.5 120t103.5 104.5t153.5 87v-498h121v-61h-121v-160h-66v160h-295zM801 221h233v408q-223 -142 -233 -408z" />
<glyph unicode="&#xbd;" horiz-adv-x="1404" d="M96 2l1059 1419l53 -45l-1056 -1415zM127 1368q162 45 238 59v-708h-68v633l-150 -41zM858 0q5 93 34.5 167t65.5 116t93 90q5 4 28.5 24.5t31.5 27.5t28 26.5t29 31t23.5 32t21.5 38t14 41t10 47.5q-103 10 -175 -18.5t-120 -118.5l-49 31q49 109 148 144.5t259 14.5 q0 -30 -3 -58.5t-7.5 -50.5t-14.5 -45t-17 -38.5t-22.5 -35.5t-24 -30.5t-28.5 -29.5t-28.5 -26.5t-31.5 -27t-31 -26.5q-34 -28 -54.5 -48.5t-44.5 -52.5t-38 -72.5t-19 -91.5l383 2v-63h-461z" />
<glyph unicode="&#xbe;" horiz-adv-x="1363" d="M72 670q108 1 189.5 22.5t126 57.5t66 75.5t21.5 81.5q0 60 -40 95.5t-98.5 38t-125.5 -16.5l-14 53q117 29 186 83t102 140h-333v56h409q-8 -84 -71 -167t-152 -106q96 7 150.5 -47t54.5 -129q0 -54 -26.5 -104.5t-79 -94t-143.5 -70t-208 -26.5zM166 2l1063 1421 l49 -47l-1057 -1415zM803 160q2 68 10.5 124.5t32 123t61.5 120t104 104.5t154 87v-498h119v-61h-119v-160h-65v160h-297zM866 221h234v408q-224 -140 -234 -408z" />
<glyph unicode="&#xbf;" horiz-adv-x="743" d="M68 -238q0 66 36.5 120.5t88 92.5t103 74t88 82t36.5 100q0 101 -92 156l28 59q17 -7 35.5 -20t42.5 -37t39.5 -64t15.5 -89q0 -68 -36.5 -124t-88.5 -94.5t-104 -74.5t-88.5 -80.5t-36.5 -95.5q0 -48 38 -94.5t98 -81.5t120.5 -60t116.5 -39v152h70v-242q-47 9 -105 26 t-131.5 49.5t-132.5 71t-100 95t-41 118.5zM340 682v268h72v-268h-72z" />
<glyph unicode="&#xc0;" d="M10 0v70h158l459 1396h-154v70h275l483 -1466h155v-70h-389v70h156l-172 520h-565l-172 -520h153v-70h-387zM438 659h518l-258 797zM465 1753l47 66l295 -166l-37 -49z" />
<glyph unicode="&#xc1;" d="M10 0v70h158l459 1396h-154v70h275l483 -1466h155v-70h-389v70h156l-172 520h-565l-172 -520h153v-70h-387zM438 659h518l-258 797zM547 1653l297 164l45 -64l-303 -149z" />
<glyph unicode="&#xc2;" d="M10 0v70h158l459 1396h-154v70h275l483 -1466h155v-70h-389v70h156l-172 520h-565l-172 -520h153v-70h-387zM428 1634l248 228l246 -228l-43 -37l-203 177l-203 -177zM438 659h518l-258 797z" />
<glyph unicode="&#xc3;" d="M10 0v70h158l459 1396h-154v70h275l483 -1466h155v-70h-389v70h156l-172 520h-565l-172 -520h153v-70h-387zM383 1630q76 131 162 131q34 0 69.5 -16.5t59.5 -36.5t54 -36.5t54 -16.5t45.5 9t40.5 30t24.5 28t20.5 29l43 -20q-67 -132 -172 -132q-39 0 -81 27.5t-82 54.5 t-74 27q-21 0 -40.5 -11t-29.5 -22t-27.5 -34t-23.5 -31zM438 659h518l-258 797z" />
<glyph unicode="&#xc4;" d="M10 0v70h158l459 1396h-154v70h275l483 -1466h155v-70h-389v70h156l-172 520h-565l-172 -520h153v-70h-387zM438 659h518l-258 797zM473 1604v237h70v-237h-70zM813 1604v237h70v-237h-70z" />
<glyph unicode="&#xc5;" d="M10 0v70h158l459 1396h-154v70h275l483 -1466h155v-70h-389v70h156l-172 520h-565l-172 -520h153v-70h-387zM438 659h518l-258 797zM532 1747q0 65 43 110.5t107 45.5q63 0 107.5 -45.5t44.5 -110.5q0 -63 -44.5 -107.5t-107.5 -44.5q-64 0 -107 44t-43 108zM582 1747 q0 -43 28 -71.5t72 -28.5q43 0 71.5 30t28.5 70q0 45 -28 74.5t-72 29.5t-72 -29.5t-28 -74.5z" />
<glyph unicode="&#xc6;" horiz-adv-x="1861" d="M4 0v70h162l594 1396h-176v72h1175v-227h-76v155h-692v-594h654v-69h-654v-733h692v157h76v-227h-846l2 537h-471l-194 -467h166v-70h-412zM477 606h436l2 864h-77z" />
<glyph unicode="&#xc7;" horiz-adv-x="1030" d="M72 662q0 138 17 256t46 205t69.5 156.5t86 115t97 75.5t100.5 43t98 13q101 0 172.5 -46t97.5 -128l-2 102v74h74v-428h-76v47q0 142 -70 225.5t-196 83.5q-68 0 -132 -31.5t-120 -97t-98 -158t-66 -222.5t-23 -283q0 -127 21 -234.5t64 -195t117 -137.5t173 -50 q223 0 361 266l61 -34q-156 -302 -422 -302q-39 0 -76.5 6.5t-83.5 26t-85.5 50.5t-78 84.5t-66 122.5t-44 170.5t-16.5 224.5zM305 -418q98 11 147.5 45.5t58 90t-0.5 132.5q18 -1 41 2.5t31 8.5q23 -161 -39.5 -236.5t-229.5 -89.5z" />
<glyph unicode="&#xc8;" horiz-adv-x="1193" d="M104 1432v69h988v-225h-76v156h-678v-564h645v-69h-645v-729h678v153h76v-223h-986v70h156v1362h-158zM483 1745l47 65l295 -165l-37 -50z" />
<glyph unicode="&#xc9;" horiz-adv-x="1193" d="M104 1432v69h988v-225h-76v156h-678v-564h645v-69h-645v-729h678v153h76v-223h-986v70h156v1362h-158zM520 1642l297 164l45 -63l-303 -150z" />
<glyph unicode="&#xca;" horiz-adv-x="1193" d="M104 1432v69h988v-225h-76v156h-678v-564h645v-69h-645v-729h678v153h76v-223h-986v70h156v1362h-158zM420 1634l248 228l245 -228l-43 -37l-202 177l-203 -177z" />
<glyph unicode="&#xcb;" horiz-adv-x="1193" d="M104 1432v69h988v-225h-76v156h-678v-564h645v-69h-645v-729h678v153h76v-223h-986v70h156v1362h-158zM446 1599v238h70v-238h-70zM786 1599v238h70v-238h-70z" />
<glyph unicode="&#xcc;" horiz-adv-x="591" d="M102 0v70h156v1362h-156v69h387v-69h-155v-1362h155v-70h-387zM123 1755l47 66l295 -166l-37 -49z" />
<glyph unicode="&#xcd;" horiz-adv-x="591" d="M102 0v70h156v1362h-156v69h387v-69h-155v-1362h155v-70h-387zM125 1661l297 164l45 -64l-303 -149z" />
<glyph unicode="&#xce;" horiz-adv-x="702" d="M104 1618l248 227l246 -227l-43 -37l-203 176l-202 -176zM158 0v70h155v1362h-155v69h387v-69h-156v-1362h156v-70h-387z" />
<glyph unicode="&#xcf;" horiz-adv-x="622" d="M109 1620v238h69v-238h-69zM115 0v70h155v1362h-155v69h387v-69h-156v-1362h156v-70h-387zM449 1620v238h69v-238h-69z" />
<glyph unicode="&#xd0;" horiz-adv-x="573" d="M0 1229q76 131 162 131q43 0 87 -27t82 -53.5t68 -26.5q10 0 20 2t18.5 5t17 9t14.5 10t14 12l12 12t11 13.5t9 12t9 11.5l6 10l43 -21q-67 -131 -172 -131q-31 0 -64.5 17t-58 37.5t-56 37.5t-58.5 17q-21 0 -40.5 -11t-30 -22.5t-27 -34.5t-23.5 -31z" />
<glyph unicode="&#xd1;" horiz-adv-x="1409" d="M104 0v70h158v1362h-158v69h279l707 -1349l-3 161v1119h-157v69h385v-69h-154v-1450h-67l-760 1454l2 -142v-1224h158v-70h-390zM428 1642q14 24 25.5 40t32.5 40.5t48 38t56 13.5q43 0 87 -27t82 -53.5t68 -26.5q24 0 45.5 9t40.5 30t24.5 28t20.5 29l43 -20 q-67 -131 -172 -131q-39 0 -81 27t-82 54t-74 27q-21 0 -40.5 -11t-29.5 -22t-27.5 -34t-23.5 -31z" />
<glyph unicode="&#xd2;" horiz-adv-x="1157" d="M78 723q0 180 40 332t108.5 256t163 162.5t202.5 58.5q147 0 258 -105.5t169 -288t58 -415.5q0 -336 -145 -537.5t-371 -201.5q-217 0 -350 204.5t-133 534.5zM154 723q0 -311 115.5 -489.5t291.5 -178.5q90 0 169 44t140 126t96 210.5t35 287.5q0 337 -114 537t-295 200 q-87 0 -166 -49.5t-139.5 -140.5t-96.5 -233t-36 -314zM393 1749l47 66l295 -166l-37 -50z" />
<glyph unicode="&#xd3;" horiz-adv-x="1157" d="M78 723q0 180 40 332t108.5 256t163 162.5t202.5 58.5q147 0 258 -105.5t169 -288t58 -415.5q0 -336 -145 -537.5t-371 -201.5q-217 0 -350 204.5t-133 534.5zM154 723q0 -311 115.5 -489.5t291.5 -178.5q90 0 169 44t140 126t96 210.5t35 287.5q0 337 -114 537t-295 200 q-87 0 -166 -49.5t-139.5 -140.5t-96.5 -233t-36 -314zM465 1642l297 164l45 -63l-303 -150z" />
<glyph unicode="&#xd4;" horiz-adv-x="1157" d="M78 723q0 180 40 332t108.5 256t163 162.5t202.5 58.5q147 0 258 -105.5t169 -288t58 -415.5q0 -336 -145 -537.5t-371 -201.5q-217 0 -350 204.5t-133 534.5zM154 723q0 -311 115.5 -489.5t291.5 -178.5q90 0 169 44t140 126t96 210.5t35 287.5q0 337 -114 537t-295 200 q-87 0 -166 -49.5t-139.5 -140.5t-96.5 -233t-36 -314zM332 1636l248 228l245 -228l-43 -37l-202 177l-203 -177z" />
<glyph unicode="&#xd5;" horiz-adv-x="1157" d="M80 723q0 180 40 332t108.5 256t163 162.5t202.5 58.5q147 0 258 -105.5t169 -288t58 -415.5q0 -336 -145 -537.5t-371 -201.5q-217 0 -350 204.5t-133 534.5zM156 723q0 -311 115.5 -489.5t291.5 -178.5q90 0 169.5 44t140 126t96 210.5t35.5 287.5q0 336 -114.5 536.5 t-295.5 200.5q-87 0 -166 -49.5t-139.5 -140.5t-96.5 -233t-36 -314zM301 1638q76 131 162 131q34 0 69.5 -16.5t59.5 -36.5t54 -36.5t54 -16.5t45.5 9t40.5 30t24.5 28t20.5 29l43 -20q-67 -131 -172 -131q-39 0 -81 27t-82 54t-74 27q-21 0 -40.5 -11t-29.5 -22t-27.5 -34 t-23.5 -31z" />
<glyph unicode="&#xd6;" horiz-adv-x="1157" d="M78 723q0 180 40 332t108.5 256t163 162.5t202.5 58.5q147 0 258 -105.5t169 -288t58 -415.5q0 -336 -145 -537.5t-371 -201.5q-217 0 -350 204.5t-133 534.5zM154 723q0 -311 115.5 -489.5t291.5 -178.5q90 0 169 44t140 126t96 210.5t35 287.5q0 337 -114 537t-295 200 q-87 0 -166 -49.5t-139.5 -140.5t-96.5 -233t-36 -314zM383 1610v237h70v-237h-70zM723 1610v237h70v-237h-70z" />
<glyph unicode="&#xd7;" horiz-adv-x="739" d="M57 260l269 264l-265 260l48 50l262 -263l260 263l51 -50l-264 -260l262 -264l-49 -47l-260 266l-265 -266z" />
<glyph unicode="&#xd8;" horiz-adv-x="1157" d="M78 723q0 180 40 332t108.5 256t163 162.5t202.5 58.5q98 0 190 -53l62 174h78l-80 -221q112 -98 173.5 -284t61.5 -425q0 -336 -145 -537.5t-371 -201.5q-117 0 -209 65l-84 -239h-75l98 282q-101 95 -157 258t-56 373zM154 723q0 -185 42.5 -327t120.5 -228l441 1241 q-76 51 -166 51q-87 0 -166 -49.5t-139.5 -140.5t-96.5 -233t-36 -314zM377 117q80 -62 184 -62q90 0 169 44t140 126t96 210.5t35 287.5q0 211 -49 374t-139 253z" />
<glyph unicode="&#xd9;" horiz-adv-x="1353" d="M88 1432v69h246v-1423q63 5 135.5 39t147 93t143 149t122 199t85.5 252t32 298v324h-147v69h381v-69h-158v-1362h174v-70h-250v707q-35 -158 -115 -294t-182.5 -225t-217.5 -139.5t-224 -50.5v1434h-172zM440 1753l47 66l295 -166l-37 -49z" />
<glyph unicode="&#xda;" horiz-adv-x="1353" d="M88 1432v69h246v-1423q63 5 135.5 39t147 93t143 149t122 199t85.5 252t32 298v324h-147v69h381v-69h-158v-1362h174v-70h-250v707q-35 -158 -115 -294t-182.5 -225t-217.5 -139.5t-224 -50.5v1434h-172zM512 1642l297 164l45 -63l-303 -150z" />
<glyph unicode="&#xdb;" d="M131 1432v69h246v-1423q63 5 135.5 39t147 93t143 149t122 199t85.5 252t32 298v324h-147v69h381v-69h-158v-1362h174v-70h-250v707q-35 -158 -115 -294t-182.5 -225t-217.5 -139.5t-224 -50.5v1434h-172zM453 1636l247 228l246 -228l-43 -37l-203 177l-202 -177z" />
<glyph unicode="&#xdc;" horiz-adv-x="1353" d="M88 1432v69h246v-1423q63 5 135.5 39t147 93t143 149t122 199t85.5 252t32 298v324h-147v69h381v-69h-158v-1362h174v-70h-250v707q-35 -158 -115 -294t-182.5 -225t-217.5 -139.5t-224 -50.5v1434h-172zM455 1612v237h69v-237h-69zM795 1612v237h69v-237h-69z" />
<glyph unicode="&#xdd;" horiz-adv-x="1132" d="M20 1432v69h373v-69h-149q3 -219 91 -438.5t230 -360.5q142 137 230.5 356t89.5 443h-146v69h373v-69h-151q-1 -241 -101.5 -472.5t-257.5 -384.5v-505h156v-70h-385v70h153v505q-155 152 -254 384t-102 473h-150zM467 1642l297 164l45 -63l-303 -150z" />
<glyph unicode="&#xde;" horiz-adv-x="573" d="M0 1229q76 131 162 131q43 0 87 -27t82 -53.5t68 -26.5q10 0 20 2t18.5 5t17 9t14.5 10t14 12l12 12t11 13.5t9 12t9 11.5l6 10l43 -21q-67 -131 -172 -131q-31 0 -64.5 17t-58 37.5t-56 37.5t-58.5 17q-21 0 -40.5 -11t-30 -22.5t-27 -34.5t-23.5 -31z" />
<glyph unicode="&#xdf;" horiz-adv-x="929" d="M-59 -250q36 -1 75 22.5t74 66.5t57.5 114t22.5 156v682q0 332 207 516q73 68 169 108.5t161 51t124 10.5q0 -134 -22 -225t-60.5 -151.5t-111.5 -133.5q-17 -17 -60.5 -58t-57.5 -56t-37 -44.5t-30.5 -55t-7.5 -55.5q0 -39 22 -64t57 -37.5t77 -21.5t84 -20.5t77 -29.5 t57 -54.5t22 -89.5q0 -157 -132 -273t-323 -135v246h68v-170q80 18 143.5 55t100.5 82t56 91.5t19 89.5q0 42 -22 69.5t-57 41t-77 23t-84.5 21.5t-77.5 30t-57 55t-22 91q0 41 10 74.5t35.5 67t46 55t66.5 64t71 67.5q89 89 121.5 173t34.5 210q-34 -4 -70 -12t-89.5 -28.5 t-100 -48.5t-95.5 -76.5t-83.5 -109.5t-57 -149.5t-22.5 -193.5v-680q0 -122 -45.5 -222t-114 -153t-141.5 -53v67z" />
<glyph unicode="&#xe0;" horiz-adv-x="847" d="M99 375q2 159 51.5 271t166.5 187.5t330 131.5v-902h121v-63h-190v225q0 30 4 102.5t4 82.5q-22 -183 -153 -301.5t-320 -114.5q-16 222 -14 381zM175 464.5q-14 -155.5 3 -392.5q92 8 163 50t115 103t72 143.5t39 163.5t11 170v172q-207 -63 -298 -158.5t-105 -251z M199 1305l47 65l295 -166l-37 -49z" />
<glyph unicode="&#xe1;" horiz-adv-x="847" d="M99 375q2 159 51.5 271t166.5 187.5t330 131.5v-902h121v-63h-190v225q0 30 4 102.5t4 82.5q-22 -183 -153 -301.5t-320 -114.5q-16 222 -14 381zM175 464.5q-14 -155.5 3 -392.5q92 8 163 50t115 103t72 143.5t39 163.5t11 170v172q-207 -63 -298 -158.5t-105 -251z M242 1206l297 164l45 -63l-303 -150z" />
<glyph unicode="&#xe2;" horiz-adv-x="847" d="M99 375q2 159 51.5 271t166.5 187.5t330 131.5v-902h121v-63h-190v225q0 30 4 102.5t4 82.5q-22 -183 -153 -301.5t-320 -114.5q-16 222 -14 381zM166 1202l248 228l245 -228l-43 -37l-202 176l-203 -176zM175 464.5q-14 -155.5 3 -392.5q92 8 163 50t115 103t72 143.5 t39 163.5t11 170v172q-207 -63 -298 -158.5t-105 -251z" />
<glyph unicode="&#xe3;" horiz-adv-x="851" d="M101 375q2 159 51.5 271t166.5 187.5t330 131.5v-902h121v-63h-190v225q0 30 4 102.5t4 82.5q-22 -183 -153 -301.5t-320 -114.5q-16 222 -14 381zM119 1194q76 131 162 131q34 0 69.5 -16.5t59.5 -36.5t54 -36.5t54 -16.5t45.5 9t40.5 30t24.5 28t20.5 29l43 -21 q-67 -131 -172 -131q-39 0 -81 27.5t-82 54.5t-74 27q-21 0 -40.5 -11t-29.5 -22t-27.5 -34t-23.5 -31zM177 464.5q-14 -155.5 3 -392.5q92 8 163 50t115 103t72 143.5t39 163.5t11 170v172q-207 -63 -298 -158.5t-105 -251z" />
<glyph unicode="&#xe4;" horiz-adv-x="847" d="M99 375q2 159 51.5 271t166.5 187.5t330 131.5v-902h121v-63h-190v225q0 30 4 102.5t4 82.5q-22 -183 -153 -301.5t-320 -114.5q-16 222 -14 381zM175 464.5q-14 -155.5 3 -392.5q92 8 163 50t115 103t72 143.5t39 163.5t11 170v172q-207 -63 -298 -158.5t-105 -251z M207 1161v238h69v-238h-69zM547 1161v238h69v-238h-69z" />
<glyph unicode="&#xe5;" horiz-adv-x="847" d="M99 375q2 159 51.5 271t166.5 187.5t330 131.5v-902h121v-63h-190v225q0 30 4 102.5t4 82.5q-22 -183 -153 -301.5t-320 -114.5q-16 222 -14 381zM175 464.5q-14 -155.5 3 -392.5q92 8 163 50t115 103t72 143.5t39 163.5t11 170v172q-207 -63 -298 -158.5t-105 -251z M264 1282q0 65 43 110.5t107 45.5q63 0 107 -45.5t44 -110.5q0 -63 -44 -107.5t-107 -44.5q-64 0 -107 44t-43 108zM313 1282q0 -43 28.5 -71.5t72.5 -28.5q43 0 71.5 30t28.5 70q0 45 -28 74.5t-72 29.5t-72.5 -29.5t-28.5 -74.5z" />
<glyph unicode="&#xe6;" horiz-adv-x="1218" d="M98 204.5q-2 97.5 12 168t45.5 125t70.5 89t94 58.5t109.5 35.5t123.5 17.5q-5 305 -393 146l-27 61q89 37 162 52t123.5 9.5t89 -26.5t61 -51t35.5 -70.5t17 -79.5t2 -82q23 112 146 197.5t331 106.5q37 -301 -84 -462t-395 -157q0 -134 18 -283q171 4 260.5 46 t163.5 151l59 -35q-97 -137 -210.5 -181t-336.5 -44q-9 63 -18 207l2 80q-34 -132 -154 -213.5t-284 -81.5q-21 119 -23 216.5zM182 59q399 50 381 574q-490 -6 -381 -574zM623 403q80 1 144 15t120 48.5t91.5 88.5t52 137t7.5 191q-73 -13 -130.5 -32.5t-112.5 -55.5 t-91 -87t-58 -128.5t-23 -176.5z" />
<glyph unicode="&#xe7;" horiz-adv-x="731" d="M91.5 377q2.5 165 50.5 282t166.5 191t324.5 113v-269h-70v187q-153 -36 -241.5 -102.5t-124 -166t-38 -237t16.5 -316.5q159 2 246.5 49.5t152.5 182.5l60 -31q-40 -84 -85.5 -136t-110 -81.5t-138.5 -40t-186 -10.5q-26 220 -23.5 385zM150 -381q98 11 147.5 45.5 t57.5 90t-1 132.5q18 -1 41 2.5t31 8.5q23 -161 -39 -237t-229 -89z" />
<glyph unicode="&#xe8;" horiz-adv-x="774" d="M98 316q-3 88 3 137t20 122.5t41 116t69.5 95t101 83t140.5 56t184 35.5q34 -298 -90 -457t-397 -158q0 -153 18 -287q170 3 263 44.5t167 152.5l60 -35q-94 -134 -211 -180.5t-344 -46.5q-1 14 -4 41q-9 95 -13.5 144t-7.5 137zM172 410q213 -3 325 113.5t93 361.5 q-223 -34 -320.5 -156.5t-97.5 -318.5zM229 1307l47 65l295 -166l-36 -49z" />
<glyph unicode="&#xe9;" horiz-adv-x="774" d="M98 316q-3 88 3 137t20 122.5t41 116t69.5 95t101 83t140.5 56t184 35.5q34 -298 -90 -457t-397 -158q0 -153 18 -287q170 3 263 44.5t167 152.5l60 -35q-94 -134 -211 -180.5t-344 -46.5q-1 14 -4 41q-9 95 -13.5 144t-7.5 137zM172 410q213 -3 325 113.5t93 361.5 q-223 -34 -320.5 -156.5t-97.5 -318.5zM246 1206l297 164l45 -63l-303 -150z" />
<glyph unicode="&#xea;" horiz-adv-x="774" d="M98 316q-3 88 3 137t20 122.5t41 116t69.5 95t101 83t140.5 56t184 35.5q34 -298 -90 -457t-397 -158q0 -153 18 -287q170 3 263 44.5t167 152.5l60 -35q-94 -134 -211 -180.5t-344 -46.5q-1 14 -4 41q-9 95 -13.5 144t-7.5 137zM160 1204l248 228l245 -228l-43 -37 l-202 176l-203 -176zM172 410q213 -3 325 113.5t93 361.5q-223 -34 -320.5 -156.5t-97.5 -318.5z" />
<glyph unicode="&#xeb;" horiz-adv-x="774" d="M98 316q-3 88 3 137t20 122.5t41 116t69.5 95t101 83t140.5 56t184 35.5q34 -298 -90 -457t-397 -158q0 -153 18 -287q170 3 263 44.5t167 152.5l60 -35q-94 -134 -211 -180.5t-344 -46.5q-1 14 -4 41q-9 95 -13.5 144t-7.5 137zM172 410q213 -3 325 113.5t93 361.5 q-223 -34 -320.5 -156.5t-97.5 -318.5zM211 1161v238h70v-238h-70zM551 1161v238h70v-238h-70z" />
<glyph unicode="&#xec;" horiz-adv-x="468" d="M55 1307l47 65l295 -166l-37 -49zM92 885v65h201v-887h94v-63h-260v63h96v822h-131z" />
<glyph unicode="&#xed;" horiz-adv-x="473" d="M88 885v65h201v-887h94v-63h-260v63h96v822h-131zM96 1214l297 164l45 -63l-303 -150z" />
<glyph unicode="&#xee;" horiz-adv-x="516" d="M12 1202l248 228l246 -228l-43 -37l-203 176l-203 -176zM119 885v65h200v-887h95v-63h-260v63h96v822h-131z" />
<glyph unicode="&#xef;" horiz-adv-x="501" d="M39 1163v238h70v-238h-70zM113 885v65h200v-887h95v-63h-261v63h97v822h-131zM379 1163v238h70v-238h-70z" />
<glyph unicode="&#xf0;" horiz-adv-x="573" d="M0 1229q76 131 162 131q43 0 87 -27t82 -53.5t68 -26.5q10 0 20 2t18.5 5t17 9t14.5 10t14 12l12 12t11 13.5t9 12t9 11.5l6 10l43 -21q-67 -131 -172 -131q-31 0 -64.5 17t-58 37.5t-56 37.5t-58.5 17q-21 0 -40.5 -11t-30 -22.5t-27 -34.5t-23.5 -31z" />
<glyph unicode="&#xf1;" horiz-adv-x="927" d="M88 887v63h205v-125q0 -68 -12 -200q40 163 160 249t311 82v-893h94v-63h-258v63h92v824q-177 -9 -282 -135.5t-105 -360.5v-328h92v-63h-260v63h96v824h-133zM190 1200q76 131 162 131q43 0 87 -26.5t82.5 -53t68.5 -26.5q24 0 45.5 9t40.5 30t24.5 28t20.5 29l43 -21 q-67 -131 -172 -131q-31 0 -64.5 17t-58 37.5t-56.5 37.5t-59 17q-21 0 -40.5 -11t-29.5 -22t-27.5 -34t-23.5 -31z" />
<glyph unicode="&#xf2;" horiz-adv-x="770" d="M74 342q0 182 92.5 334.5t212.5 212.5q-93 -19 -195 12l17 55q77 -14 137 -15.5t92 4.5t82 16t92 14q78 -180 78 -422q0 -162 -40 -290t-120.5 -205.5t-189.5 -77.5q-49 0 -92.5 19t-82 59t-61 113t-22.5 171zM143 332q0 -138 55.5 -212.5t135.5 -74.5q126 0 201 140.5 t75 367.5q0 207 -57 352q-97 -21 -176.5 -79t-129.5 -137.5t-77 -171.5t-27 -185zM211 1307l47 65l295 -166l-37 -49z" />
<glyph unicode="&#xf3;" horiz-adv-x="770" d="M74 342q0 182 92.5 334.5t212.5 212.5q-93 -19 -195 12l17 55q77 -14 137 -15.5t92 4.5t82 16t92 14q78 -180 78 -422q0 -162 -40 -290t-120.5 -205.5t-189.5 -77.5q-49 0 -92.5 19t-82 59t-61 113t-22.5 171zM143 332q0 -138 55.5 -212.5t135.5 -74.5q126 0 201 140.5 t75 367.5q0 207 -57 352q-97 -21 -176.5 -79t-129.5 -137.5t-77 -171.5t-27 -185zM313 1206l297 164l45 -63l-303 -150z" />
<glyph unicode="&#xf4;" horiz-adv-x="770" d="M74 342q0 182 92.5 334.5t212.5 212.5q-93 -19 -195 12l17 55q77 -14 137 -15.5t92 4.5t82 16t92 14q78 -180 78 -422q0 -162 -40 -290t-120.5 -205.5t-189.5 -77.5q-49 0 -92.5 19t-82 59t-61 113t-22.5 171zM143 332q0 -138 55.5 -212.5t135.5 -74.5q126 0 201 140.5 t75 367.5q0 207 -57 352q-97 -21 -176.5 -79t-129.5 -137.5t-77 -171.5t-27 -185zM154 1202l247 228l246 -228l-43 -37l-203 176l-202 -176z" />
<glyph unicode="&#xf5;" horiz-adv-x="765" d="M74 342q0 182 92.5 334.5t212.5 212.5q-93 -19 -195 12l17 55q77 -14 137 -15.5t92 4.5t82 16t92 14q78 -180 78 -422q0 -162 -40 -290t-120.5 -205.5t-189.5 -77.5q-49 0 -92.5 19t-82 59t-61 113t-22.5 171zM135 1229q76 131 162 131q34 0 69.5 -16.5t60 -37t54.5 -37 t54 -16.5q10 0 20 2t18.5 5t17 9t14.5 10t14 12l12 12t11 13.5t9 12t9 11.5l6 10l43 -21q-67 -131 -172 -131q-31 0 -64.5 17t-58 37.5t-56.5 37.5t-59 17q-21 0 -40.5 -11t-30 -22.5t-27 -34.5t-23.5 -31zM143 332q0 -138 55.5 -212.5t135.5 -74.5q126 0 201 140.5 t75 367.5q0 207 -57 352q-97 -21 -176.5 -79t-129.5 -137.5t-77 -171.5t-27 -185z" />
<glyph unicode="&#xf6;" horiz-adv-x="770" d="M74 342q0 182 92.5 334.5t212.5 212.5q-93 -19 -195 12l17 55q77 -14 137 -15.5t92 4.5t82 16t92 14q78 -180 78 -422q0 -162 -40 -290t-120.5 -205.5t-189.5 -77.5q-49 0 -92.5 19t-82 59t-61 113t-22.5 171zM143 332q0 -138 55.5 -212.5t135.5 -74.5q126 0 201 140.5 t75 367.5q0 207 -57 352q-97 -21 -176.5 -79t-129.5 -137.5t-77 -171.5t-27 -185zM205 1161v238h69v-238h-69zM545 1161v238h69v-238h-69z" />
<glyph unicode="&#xf7;" horiz-adv-x="772" d="M57 545v61h658v-61h-658zM354 178v219h70v-219h-70zM354 766v219h70v-219h-70z" />
<glyph unicode="&#xf8;" horiz-adv-x="753" d="M78 362q6 173 84.5 314.5t189.5 212.5q-108 -15 -172 10l15 57q134 -26 243 -6q70 13 111 19l63 166l66 -9l-72 -178q58 -179 58 -393q0 -245 -96 -410.5t-246 -164.5q-46 0 -86 18l-72 -184l-70 4l86 215q-116 103 -102 329zM147 354q-8 -157 64 -243l309 792 q-82 -15 -152 -71.5t-116.5 -134.5t-73.5 -167t-31 -176zM260 59q29 -16 64 -16q111 0 190.5 145.5t79.5 366.5q0 162 -33 283z" />
<glyph unicode="&#xf9;" horiz-adv-x="974" d="M76 887v63h198v-880q190 14 298 151t108 387v279h-94v63h262v-63h-98v-824h135v-63h-205l2 190q0 21 6 103l3 62q-1 -1 -1 -3q-23 -98 -71 -169.5t-114.5 -111.5t-140 -58t-159.5 -19v893h-129zM270 1300l47 66l295 -166l-37 -49z" />
<glyph unicode="&#xfa;" horiz-adv-x="974" d="M76 887v63h198v-880q190 14 298 151t108 387v279h-94v63h262v-63h-98v-824h135v-63h-205l2 190q0 21 6 103l3 62q-1 -1 -1 -3q-23 -98 -71 -169.5t-114.5 -111.5t-140 -58t-159.5 -19v893h-129zM346 1198l297 164l45 -64l-303 -149z" />
<glyph unicode="&#xfb;" horiz-adv-x="974" d="M76 887v63h198v-880q190 14 298 151t108 387v279h-94v63h262v-63h-98v-824h135v-63h-205l2 190q0 21 6 103l3 62q-1 -1 -1 -3q-23 -98 -71 -169.5t-114.5 -111.5t-140 -58t-159.5 -19v893h-129zM233 1204l248 228l246 -228l-43 -37l-203 176l-202 -176z" />
<glyph unicode="&#xfc;" horiz-adv-x="974" d="M76 887v63h198v-880q190 14 298 151t108 387v279h-94v63h262v-63h-98v-824h135v-63h-205l2 190q0 21 6 103l3 62q-1 -1 -1 -3q-23 -98 -71 -169.5t-114.5 -111.5t-140 -58t-159.5 -19v893h-129zM272 1161v238h70v-238h-70zM612 1161v238h70v-238h-70z" />
<glyph unicode="&#xfd;" horiz-adv-x="931" d="M80 887v63h203v-884q399 23 399 540v281h-94v63h266v-63h-100v-756q0 -123 -36 -219.5t-91.5 -153t-130 -93.5t-143 -50t-140.5 -14v184h70v-111q53 5 101 17.5t105 44.5t98 79.5t69 129t28 186.5q0 17 4 209q-66 -346 -475 -346v893h-133zM309 1206l297 164l45 -63 l-303 -150z" />
<glyph unicode="&#xfe;" horiz-adv-x="573" d="M0 1229q76 131 162 131q43 0 87 -27t82 -53.5t68 -26.5q10 0 20 2t18.5 5t17 9t14.5 10t14 12l12 12t11 13.5t9 12t9 11.5l6 10l43 -21q-67 -131 -172 -131q-31 0 -64.5 17t-58 37.5t-56 37.5t-58.5 17q-21 0 -40.5 -11t-30 -22.5t-27 -34.5t-23.5 -31z" />
<glyph unicode="&#xff;" horiz-adv-x="931" d="M80 887v63h203v-884q399 23 399 540v281h-94v63h266v-63h-100v-756q0 -123 -36 -219.5t-91.5 -153t-130 -93.5t-143 -50t-140.5 -14v184h70v-111q53 5 101 17.5t105 44.5t98 79.5t69 129t28 186.5q0 17 4 209q-66 -346 -475 -346v893h-133zM274 1163v238h70v-238h-70z M614 1163v238h70v-238h-70z" />
<glyph unicode="&#x152;" horiz-adv-x="1746" d="M78 723q0 360 146.5 580.5t367.5 220.5q63 0 127 -23h926v-225h-76v156h-748q99 -63 167 -219t83 -351h467v-69h-463q6 -101 -4 -198t-38 -195.5t-85 -184.5t-139 -143l760 -2v153h76v-223h-959q-58 -18 -125 -18q-217 0 -350 205.5t-133 535.5zM154 723 q0 -312 115.5 -491t291.5 -179q187 0 313.5 178t126.5 492q0 336 -113.5 532.5t-295.5 196.5q-88 0 -166.5 -48.5t-139 -138t-96.5 -230t-36 -312.5z" />
<glyph unicode="&#x153;" horiz-adv-x="1280" d="M74 342q0 182 92 330t213 209q-97 -19 -195 10q5 24 17 55q77 -14 137 -15t92 5t82 15.5t92 13.5q62 -135 68 -301q106 255 491 297q35 -297 -89.5 -455.5t-395.5 -159.5q0 -170 18 -287q170 5 262.5 46t167.5 151q9 -6 29 -17.5t29 -17.5q-92 -133 -209.5 -179 t-345.5 -46q-1 15 -5.5 55t-6 60.5t-3.5 60.5t0 55q-39 -121 -113.5 -183t-168.5 -62q-49 0 -92.5 18.5t-82 58.5t-61 112.5t-22.5 170.5zM141 332q0 -137 55.5 -210t137.5 -73q126 0 201 139t75 365q0 196 -57 344q-129 -28 -224.5 -118t-141.5 -206t-46 -241zM678 408 q105 0 185.5 28t137 85t82 149t15.5 215q-115 -19 -197.5 -61.5t-130 -106t-69.5 -139.5t-23 -170z" />
<glyph unicode="&#x178;" horiz-adv-x="1132" d="M20 1432v69h373v-69h-149q3 -219 91 -438.5t230 -360.5q142 137 230.5 356t89.5 443h-146v69h373v-69h-151q-1 -241 -101.5 -472.5t-257.5 -384.5v-505h156v-70h-385v70h153v505q-155 152 -254 384t-102 473h-150zM360 1645v237h70v-237h-70zM700 1645v237h70v-237h-70z " />
<glyph unicode="&#x2c6;" horiz-adv-x="493" d="M0 1255l248 228l246 -228l-43 -36l-203 176l-203 -176z" />
<glyph unicode="&#x2dc;" horiz-adv-x="573" d="M0 1229q76 131 162 131q43 0 87 -27t82 -53.5t68 -26.5q10 0 20 2t18.5 5t17 9t14.5 10t14 12l12 12t11 13.5t9 12t9 11.5l6 10l43 -21q-67 -131 -172 -131q-31 0 -64.5 17t-58 37.5t-56 37.5t-58.5 17q-21 0 -40.5 -11t-30 -22.5t-27 -34.5t-23.5 -31z" />
<glyph unicode="&#x2000;" horiz-adv-x="951" />
<glyph unicode="&#x2001;" horiz-adv-x="1903" />
<glyph unicode="&#x2002;" horiz-adv-x="951" />
<glyph unicode="&#x2003;" horiz-adv-x="1903" />
<glyph unicode="&#x2004;" horiz-adv-x="634" />
<glyph unicode="&#x2005;" horiz-adv-x="475" />
<glyph unicode="&#x2006;" horiz-adv-x="317" />
<glyph unicode="&#x2007;" horiz-adv-x="317" />
<glyph unicode="&#x2008;" horiz-adv-x="237" />
<glyph unicode="&#x2009;" horiz-adv-x="380" />
<glyph unicode="&#x200a;" horiz-adv-x="105" />
<glyph unicode="&#x2010;" horiz-adv-x="782" d="M86 547v67h610v-67h-610z" />
<glyph unicode="&#x2011;" horiz-adv-x="782" d="M86 547v67h610v-67h-610z" />
<glyph unicode="&#x2012;" horiz-adv-x="782" d="M86 547v67h610v-67h-610z" />
<glyph unicode="&#x2013;" horiz-adv-x="954" d="M0 549v65h954v-65h-954z" />
<glyph unicode="&#x2014;" horiz-adv-x="2048" d="M195 551v63h1658v-63h-1658z" />
<glyph unicode="&#x2018;" horiz-adv-x="323" d="M111 1014q-13 216 3 345.5t81 260.5l49 -29q-49 -133 -59.5 -243t-4.5 -334h-69z" />
<glyph unicode="&#x2019;" horiz-adv-x="323" d="M82 1044q48 132 58.5 242t4.5 336h70q13 -216 -3 -345.5t-81 -260.5z" />
<glyph unicode="&#x201a;" horiz-adv-x="337" d="M104 -307q49 133 59.5 243t4.5 334h70q13 -216 -3 -345.5t-81 -260.5z" />
<glyph unicode="&#x201c;" horiz-adv-x="555" d="M113 1014q-15 209 4 355.5t78 250.5l51 -29q-45 -116 -59.5 -246t-2.5 -331h-71zM328 1014q-15 210 4.5 356t79.5 250l49 -29q-46 -114 -60 -244t-2 -333h-71z" />
<glyph unicode="&#x201d;" horiz-adv-x="555" d="M94 1042q46 114 60 244.5t2 333.5h71q15 -210 -4.5 -356t-79.5 -250zM309 1042q45 116 59.5 246.5t2.5 331.5h71q15 -209 -4 -355.5t-78 -250.5z" />
<glyph unicode="&#x201e;" horiz-adv-x="555" d="M92 -311q46 114 60 244t2 333h71q15 -210 -4.5 -356t-79.5 -250zM307 -311q45 116 59.5 246t2.5 331h71q15 -209 -4 -355.5t-78 -250.5z" />
<glyph unicode="&#x2022;" horiz-adv-x="491" d="M86 688q0 66 46.5 112t113.5 46q65 0 112.5 -46.5t47.5 -111.5q0 -66 -47.5 -113t-112.5 -47q-67 0 -113.5 47t-46.5 113z" />
<glyph unicode="&#x2026;" horiz-adv-x="1044" d="M133 0v268h76v-268h-76zM481 0v268h76v-268h-76zM834 0v268h75v-268h-75z" />
<glyph unicode="&#x202f;" horiz-adv-x="380" />
<glyph unicode="&#x2039;" horiz-adv-x="671" d="M35 553l512 502l43 -45l-471 -457l471 -453l-43 -47z" />
<glyph unicode="&#x203a;" horiz-adv-x="671" d="M82 100l471 453l-471 457l43 45l512 -502l-512 -500z" />
<glyph unicode="&#x205f;" horiz-adv-x="475" />
<glyph unicode="&#x20ac;" horiz-adv-x="1159" d="M80 616l18 62h113q0 58 12 168h-143l18 61h138q49 253 179.5 394t305.5 141q96 0 175 -50t120 -112l-31 -66q-4 6 -11 17t-31.5 38t-53 48t-74.5 38t-96 17q-80 0 -147.5 -36t-117.5 -101t-85 -147t-56 -181h539l-23 -61h-528q-12 -86 -18 -168h569l-23 -62h-544 q1 -150 31.5 -263t83.5 -178.5t118.5 -97.5t143.5 -32q226 0 360 246l59 -29q-156 -285 -419 -285q-98 0 -177.5 36.5t-141 111t-96.5 199.5t-36 292h-131z" />
<glyph unicode="&#x2122;" horiz-adv-x="1558" d="M49 1300v140h627v-140h-60v84h-221v-702h88v-55h-239v55h90v702h-225v-84h-60zM614 627v55h82l111 702h-78v56h176l150 -709l157 709h174v-56h-79l114 -702h80v-55h-215v55h76l-109 700l-174 -764h-51l-168 764l-106 -700h75v-55h-215z" />
<glyph unicode="&#x25fc;" horiz-adv-x="952" d="M0 0v952h952v-952h-952z" />
</font>
</defs>
</svg>
