<?xml version="1.0" standalone="no"?>
<!DOCTYPE svg PUBLIC "-//W3C//DTD SVG 1.1//EN" "http://www.w3.org/Graphics/SVG/1.1/DTD/svg11.dtd" >
<svg xmlns="http://www.w3.org/2000/svg">
<metadata></metadata>
<defs>
<font id="nautikextralight" horiz-adv-x="1425" >
<font-face units-per-em="2048" ascent="1622" descent="-426" />
<missing-glyph horiz-adv-x="409" />
<glyph unicode="&#xfb01;" horiz-adv-x="880" d="M92 897v33h101v53q0 112 21.5 191t62.5 124t100 69t133 25t162 -8l-8 -30q-242 27 -339.5 -59t-97.5 -310v-55h469v-899h103v-31h-240v31h105v866h-437v-866h92v-31h-210v31h84v866h-101z" />
<glyph unicode="&#xfb02;" horiz-adv-x="843" d="M92 897v33h101v53q0 158 27.5 262t86.5 161t141.5 75t202.5 4v-1229q0 -113 46.5 -167.5t125.5 -57.5l-4 -31q-91 2 -146 67.5t-55 188.5v1200q-94 8 -162.5 -9t-112.5 -54t-70.5 -100t-37 -137.5t-10.5 -176.5v-49h127v-33h-127v-866h92v-31h-208v31h84v866h-101z" />
<glyph horiz-adv-x="0" />
<glyph unicode="&#xd;" horiz-adv-x="2048" />
<glyph unicode=" "  horiz-adv-x="409" />
<glyph unicode="&#x09;" horiz-adv-x="409" />
<glyph unicode="&#xa0;" horiz-adv-x="409" />
<glyph unicode="!" horiz-adv-x="342" d="M205 0v262h35v-262h-35zM205 543v1069h35v-1069h-35z" />
<glyph unicode="&#x22;" horiz-adv-x="462" d="M109 1042q-21 364 55 580h35q-76 -229 -56 -580h-34zM270 1042q-21 362 56 580h34q-79 -226 -55 -580h-35z" />
<glyph unicode="#" horiz-adv-x="958" d="M51 436v31h238l57 385h-240v31h244l66 415h33l-64 -415h291l63 415h33l-63 -415h219v-31h-223l-60 -385h227v-31h-231l-68 -436h-32l65 436h-291l-65 -436h-33l66 436h-232zM322 467h290l60 385h-291z" />
<glyph unicode="$" horiz-adv-x="1056" d="M102 -12v465h35v-179q44 -121 146.5 -194t232.5 -74v819q-51 16 -84.5 28t-80 32.5t-77 39.5t-64 48t-52.5 60.5t-32 74.5t-13 92q0 118 60 204.5t150.5 125t192.5 31.5v143h35v-145q87 -14 157.5 -66.5t112.5 -138.5v168h35v-398h-35v127q-33 117 -103.5 186.5 t-166.5 84.5v-670q194 -49 304 -161.5t110 -287.5q0 -195 -112.5 -309.5t-301.5 -122.5v-155h-35v155q-120 0 -219.5 60t-159.5 162v-205h-35zM147 1200q0 -60 22.5 -109.5t54.5 -82.5t85.5 -62.5t97.5 -46.5t109 -37v664q-70 5 -135.5 -14t-118 -58.5t-84 -105.5 t-31.5 -148zM551 6q174 8 276.5 113t102.5 284q0 59 -15 111t-37 89.5t-57 70.5t-65.5 53.5t-73 40t-69 29t-62.5 20.5v-811z" />
<glyph unicode="%" horiz-adv-x="1271" d="M72 1208q0 140 64 249.5t159 109.5q59 0 102.5 -30.5t67.5 -83.5t35.5 -114t11.5 -131q0 -143 -51.5 -229t-165.5 -86q-60 0 -104.5 24.5t-69.5 68.5t-37 99t-12 123zM104 1208q0 -135 44 -208.5t147 -73.5q101 0 142.5 73t41.5 209q0 326 -184 326q-82 0 -136.5 -96 t-54.5 -230zM330 0q109 307 318.5 886t246.5 681h35q-37 -102 -246.5 -681t-318.5 -886h-35zM741 315q0 90 27.5 171t80 133.5t116.5 52.5q58 0 101.5 -30.5t67.5 -83t35 -113.5t11 -130q0 -144 -51 -229.5t-164 -85.5q-117 0 -170.5 86t-53.5 229zM774 315q0 -134 44 -208 t147 -74q100 0 141 73.5t41 208.5q0 324 -182 324q-82 0 -136.5 -95.5t-54.5 -228.5z" />
<glyph unicode="&#x26;" horiz-adv-x="1114" d="M82 -8q0 295 14.5 452.5t57.5 262.5q15 36 32 63t48.5 55t50.5 42t71 51q-6 8 -15.5 22.5t-34 57.5t-43.5 84.5t-34.5 96.5t-15.5 101q0 98 76.5 177t193.5 79q60 0 108.5 -25t77 -64t43.5 -80.5t15 -78.5l-35 -18q0 50 -22.5 101.5t-72.5 90.5t-116 39q-95 0 -164 -67.5 t-69 -151.5q0 -70 35.5 -153.5t120 -219.5t284.5 -436q4 7 10 19t22.5 52.5t29 83.5t22.5 107.5t10 128.5h226v-35h-193q0 -88 -26.5 -183.5t-52.5 -147.5l-27 -52q135 -195 194 -265q121 -146 189 -146l2 -41q-22 0 -45.5 9t-48 27.5t-47 38t-49.5 51t-47 55.5t-47 62.5 t-42.5 60.5t-41.5 60t-36 52q-103 -171 -227 -271q-186 -147 -381 -147zM119 33q150 -3 334 145q130 105 217 262q-194 292 -293 447q-85 -51 -130.5 -97.5t-72.5 -125.5q-36 -107 -45.5 -247.5t-9.5 -383.5z" />
<glyph unicode="'" horiz-adv-x="296" d="M106 1042q-7 205 2 321t54 259h33q-42 -140 -51.5 -257t-4.5 -323h-33z" />
<glyph unicode="(" horiz-adv-x="249" d="M31 635q0 146 14.5 301t35 271.5t41.5 212t36 146.5l14 50l37 6q-6 -21 -15.5 -59t-33.5 -152.5t-43 -226.5t-34 -265t-15 -284q0 -116 14.5 -263.5t35 -274.5t41.5 -237.5t35 -174.5l15 -64l-37 4q-6 22 -15.5 61.5t-33.5 158t-43 234t-34 270.5t-15 286z" />
<glyph unicode=")" horiz-adv-x="249" d="M31 -379q6 21 15.5 59t33.5 152.5t43 226.5t34 265t15 284q0 116 -14.5 263.5t-35.5 274.5t-41.5 237.5t-34.5 174.5l-15 64l37 -4q6 -22 15.5 -61.5t33.5 -158t43 -234t34 -270.5t15 -286q0 -146 -14.5 -301t-35.5 -271.5t-41.5 -212t-35.5 -145.5l-14 -51z" />
<glyph unicode="*" horiz-adv-x="655" d="M51 1372l10 35l250 -88l-4 266h39l-4 -266l250 88l12 -35l-256 -80l160 -211l-31 -24l-149 217l-156 -217l-31 24l160 207z" />
<glyph unicode="+" horiz-adv-x="770" d="M51 543v32h318v373h32v-373h318v-32h-318v-381h-32v381h-318z" />
<glyph unicode="," horiz-adv-x="296" d="M102 -309q42 140 51.5 256.5t4.5 322.5h32q10 -164 0 -300.5t-55 -278.5h-33z" />
<glyph unicode="-" horiz-adv-x="782" d="M92 584v30h598v-30h-598z" />
<glyph unicode="." horiz-adv-x="301" d="M164 0v270h35v-270h-35z" />
<glyph unicode="/" horiz-adv-x="718" d="M10 -268l662 1843h37l-662 -1843h-37z" />
<glyph unicode="0" horiz-adv-x="858" d="M92 479q0 137 42.5 262t122.5 206t179 81q72 0 129.5 -31.5t94 -84t61.5 -124.5t35 -148.5t10 -160.5q0 -105 -17.5 -190.5t-55.5 -153.5t-103 -105.5t-154 -37.5q-93 0 -161 37.5t-107.5 105.5t-57.5 153t-18 191zM127 479q0 -454 309 -454q295 0 295 454q0 106 -16 196 t-49.5 163.5t-92 115t-137.5 41.5q-83 0 -154.5 -73t-113 -191.5t-41.5 -251.5z" />
<glyph unicode="1" horiz-adv-x="602" d="M72 922l272 112v-1003h217v-31h-469v31h219v954l-221 -90z" />
<glyph unicode="2" horiz-adv-x="681" d="M61 0q41 181 105.5 296.5t193.5 244.5q84 84 135 193.5t54 266.5q-40 1 -78.5 -1t-84.5 -9.5t-85.5 -20t-77 -35.5t-63 -53t-40 -74.5t-11.5 -98.5h-33q-3 71 17.5 126t61.5 89.5t89 57.5t111 34t115.5 15t113.5 3q-3 -118 -24 -208t-54.5 -149t-74.5 -107t-87 -97 t-88.5 -103.5t-83.5 -141t-68 -195.5h471v147h35v-180h-549z" />
<glyph unicode="3" horiz-adv-x="710" d="M10 -266q132 67 233 139t163 138.5t101 137t53.5 131.5t14.5 126q0 71 -29.5 118t-76 64.5t-103.5 17.5t-112.5 -16.5t-101.5 -44.5l-15 30q158 72 254 166.5t174 243.5h-463v-147h-30v180h546q-57 -125 -137.5 -227.5t-171.5 -155.5q144 26 222.5 -41t78.5 -184 q0 -416 -587 -707z" />
<glyph unicode="4" horiz-adv-x="796" d="M61 106q9 69 17.5 123.5t23 128t30 132t39 126.5t50 121t63.5 105.5t78.5 89t95.5 64t115 38.5v-897h142v-31h-142v-366h115v-31h-270v31h123v366h-480zM98 137h443v856q-175 -52 -281 -251.5t-162 -604.5z" />
<glyph unicode="5" horiz-adv-x="735" d="M61 -266q84 48 143.5 85.5t124.5 86t108 95.5t79.5 103t54 120.5t17.5 137.5q0 118 -57 181t-144 63q-48 0 -113.5 -24.5t-107.5 -49.5l-41 -24v510h508v-178h-35v145h-438v-422q13 9 36 21.5t82.5 33.5t106.5 21q117 0 176.5 -75.5t59.5 -201.5q0 -90 -28 -170.5 t-72.5 -143t-118.5 -126t-148 -112t-178 -107.5z" />
<glyph unicode="6" horiz-adv-x="804" d="M92 369q0 111 9 204.5t32 198.5t71.5 197.5t119.5 163.5q184 184 419 184v-33q-118 0 -211.5 -45t-183.5 -131q-91 -88 -150 -243.5t-71 -362.5q27 94 102 166t174 107t203 32q78 -245 78 -404q0 -108 -22 -188.5t-61 -128t-88 -70t-107 -22.5q-66 0 -120.5 19t-99 61 t-69.5 117t-25 178zM127 360q0 -171 76.5 -252t202.5 -81q40 0 73.5 10.5t65.5 37.5t54.5 68.5t36 108t13.5 151.5q0 150 -69 369q-128 -3 -232.5 -61.5t-162.5 -151.5t-58 -199z" />
<glyph unicode="7" horiz-adv-x="768" d="M29 844v176h741l18 -39q-60 -41 -105.5 -78.5t-98.5 -96.5t-91 -125.5t-75 -164t-59.5 -212.5t-36 -269.5t-11.5 -337.5h-35q0 181 12.5 334t34 268t55.5 211.5t70.5 164.5t86.5 128t96 100.5t106 83.5h-674v-143h-34z" />
<glyph unicode="8" horiz-adv-x="819" d="M82 332q0 117 69.5 242.5t184.5 216.5q-86 72 -123 130t-37 132q0 104 81.5 184t203.5 80q104 0 174 -73.5t70 -176.5q0 -193 -187 -371q109 -88 164 -179t55 -198q0 -83 -27.5 -148t-74.5 -104.5t-104.5 -60t-120.5 -20.5q-152 0 -240 98t-88 248zM117 332 q0 -137 83 -225.5t210 -88.5q40 0 79.5 9.5t78 32.5t68 56t48 85t18.5 116q0 59 -19.5 114t-48.5 98t-77 89t-91 78.5t-106 75.5q-121 -104 -182 -218.5t-61 -221.5zM211 1053q0 -38 12.5 -73t30.5 -60.5t49.5 -54.5t56.5 -48t66.5 -49t65.5 -49q178 166 178 348 q0 87 -62.5 152t-146.5 65q-106 0 -178 -71t-72 -160z" />
<glyph unicode="9" horiz-adv-x="761" d="M20 -256q107 0 210.5 46t187.5 130q86 86 146.5 246t70.5 360q-27 -95 -101 -166.5t-172 -106.5t-202 -32q-84 190 -84 402q0 190 73.5 300.5t231.5 110.5q149 0 219 -97t70 -267q0 -112 -8 -205.5t-30.5 -201t-70.5 -202t-119 -165.5q-185 -185 -422 -185v33zM111 623 q0 -221 73 -367q191 -1 322 124t131 290q0 164 -67.5 247.5t-188.5 83.5q-270 0 -270 -378z" />
<glyph unicode=":" horiz-adv-x="301" d="M164 0v270h35v-270h-35zM164 659v271h35v-271h-35z" />
<glyph unicode=";" horiz-adv-x="296" d="M102 -309q42 140 51.5 256.5t4.5 322.5h32q10 -164 0 -300.5t-55 -278.5h-33zM158 657v273h32v-273h-32z" />
<glyph unicode="&#x3c;" horiz-adv-x="763" d="M31 553l641 442l20 -30l-600 -412l600 -412l-20 -30z" />
<glyph unicode="=" horiz-adv-x="901" d="M82 406v34h737v-34h-737zM84 580v34h735v-34h-735z" />
<glyph unicode="&#x3e;" horiz-adv-x="763" d="M72 141l600 412l-600 412l20 30l641 -442l-641 -442z" />
<glyph unicode="?" horiz-adv-x="741" d="M154 1337v219q38 -8 89.5 -23.5t123.5 -47t130.5 -69t100 -93.5t41.5 -117t-37.5 -114t-91 -92t-106.5 -77.5t-90.5 -87.5t-37.5 -104q0 -38 11 -70.5t27 -51.5t32.5 -33t27.5 -20l11 -5l-14 -29q-5 2 -13.5 6t-30.5 20.5t-39 38t-30.5 60t-13.5 84.5t20 87t51.5 71.5 t70 59.5t77 57t70 56.5t51.5 65.5t20 78q0 55 -42 106.5t-110.5 90t-133 64.5t-132.5 46v-176h-32zM330 0v270h32v-270h-32z" />
<glyph unicode="@" horiz-adv-x="1374" d="M82 299q0 74 15.5 155.5t47.5 167t78 165.5t111.5 151.5t143 124.5t177 84t209.5 31q81 0 146 -17.5t109 -45.5t76.5 -72.5t50.5 -89t29 -104t14 -109.5t3 -113q0 -109 -29 -212.5t-84.5 -193t-144.5 -155.5t-200 -93l32 408q-54 -193 -181.5 -296t-287.5 -103 q0 250 26 399.5t109 255.5q137 171 402 231l-66 -852q88 30 157.5 85t112 117.5t70 136.5t38.5 139t11 129q0 283 -92 401.5t-301 118.5q-123 0 -232.5 -40t-189 -108t-142.5 -154.5t-102 -183t-59 -189.5t-20 -177q0 -267 103.5 -421.5t289.5 -154.5q63 0 137.5 18.5 t136.5 55.5l21 -33q-125 -75 -301 -75q-63 0 -120 17.5t-114 61.5t-98 112t-66.5 177.5t-25.5 249.5zM432 16q149 10 244 105q119 119 158.5 252.5t58.5 451.5q-119 -35 -195 -83t-131 -115q-78 -95 -105.5 -235.5t-29.5 -375.5z" />
<glyph unicode="A" d="M10 0v35h164l510 1499h-156v35h201l524 -1534h162v-35h-358v35h160l-197 581h-612l-197 -581h160v-35h-361zM420 651h586l-293 865z" />
<glyph unicode="B" horiz-adv-x="1089" d="M92 0v35h148v1460h-148v35h385q217 0 331 -99t114 -268q0 -121 -65 -216t-181 -126q136 -31 234 -146t98 -255q0 -198 -120.5 -309t-373.5 -111h-422zM276 35h238q457 0 457 385q0 103 -53.5 191t-146 139.5t-202.5 52.5h-293v-768zM276 838h271q165 0 251.5 91.5 t86.5 233.5q0 153 -101.5 242.5t-306.5 89.5h-201v-657z" />
<glyph unicode="C" horiz-adv-x="1024" d="M72 680q0 191 32 345t83.5 251t120.5 162t138 91.5t140 26.5q117 0 196 -56t103 -146v106v86h37v-407h-37v51q0 145 -79.5 238.5t-221.5 93.5q-70 0 -137 -29t-129.5 -94.5t-108.5 -161.5q-45 -97 -73 -241q-27 -139 -27 -308v-12q0 -138 22 -253.5t68.5 -209.5 t127.5 -147.5t191 -53.5q121 0 219 70t166 203l29 -19q-70 -138 -176 -213.5t-238 -75.5q-32 0 -62 4t-77 20t-86 43.5t-81.5 81t-72 125t-48.5 182.5t-19 247z" />
<glyph unicode="D" horiz-adv-x="1202" d="M92 0v35h148v1460h-148v35h369q325 0 492 -202.5t167 -569.5q0 -758 -608 -758h-420zM276 35h236q133 0 234.5 39t164.5 103.5t102.5 159.5t54.5 196.5t15 224.5q0 356 -156.5 546.5t-465.5 190.5h-185v-1460z" />
<glyph unicode="E" horiz-adv-x="1181" d="M92 0v35h156v1460h-156v35h998v-189h-37v154h-768v-627h692v-34h-692v-799h768v155h37v-190h-998z" />
<glyph unicode="F" horiz-adv-x="1093" d="M92 0v35h170v1460h-153v35h985v-189h-37v154h-758v-627h737v-34h-737v-799h164v-35h-371z" />
<glyph unicode="G" horiz-adv-x="1067" d="M61 684q0 108 13.5 212.5t40 202t68.5 179.5t97 143.5t128.5 96t158.5 34.5q197 0 307 -170v162h37v-407h-37v155q0 20 -20.5 55.5t-56.5 74.5t-98 67.5t-132 28.5q-96 0 -175.5 -48t-133 -129t-90.5 -189.5t-53.5 -226t-16.5 -241.5q0 -343 109 -507.5t303 -164.5 q81 0 167.5 42.5t151 120t76.5 165.5l2 391h-254v35h291v-766h-37v119q0 18 1 60t1 63q-56 -127 -166.5 -196t-232.5 -69q-104 0 -184.5 42t-129.5 110t-80.5 163t-43 189.5t-11.5 202.5z" />
<glyph unicode="H" horiz-adv-x="1345" d="M92 0v35h156v1460h-156v35h346v-35h-153v-627h776v627h-156v35h348v-35h-155v-1460h155v-35h-348v35h156v799h-776v-799h153v-35h-346z" />
<glyph unicode="I" horiz-adv-x="528" d="M92 0v35h154v1460h-154v35h344v-35h-153v-1460h153v-35h-344z" />
<glyph unicode="J" horiz-adv-x="528" d="M0 -379q54 19 95 48t71 66.5t50.5 93.5t33.5 115.5t19.5 148t9 176t2.5 212.5v1014h-154v35h338v-35h-148v-1014v-82q0 -58 -1 -105q-1 -79 -5.5 -162.5t-14 -143t-25 -118.5t-38.5 -100.5t-55 -78.5t-73.5 -62.5t-94.5 -42.5z" />
<glyph unicode="K" horiz-adv-x="1193" d="M92 1495v35h324v-35h-133v-686q66 0 117 1q153 0 175 -5l338 690h-143v35h317v-35h-137l-338 -694q146 -34 224 -191q23 -44 53 -130.5t117 -351.5q19 -60 30 -93h138v-35h-164q-114 359 -146.5 454.5t-56.5 137.5q-48 95 -114.5 138.5t-172.5 43.5h-237v-739h133v-35 h-322v35h152v1460h-154z" />
<glyph unicode="L" horiz-adv-x="1001" d="M92 0v35h152v1460h-152v35h340v-35h-151v-1460h673v135h37v-170h-899z" />
<glyph unicode="M" horiz-adv-x="1585" d="M20 0v35h160l221 1460h-151v35h217l319 -1440l334 1440h213v-35h-149l223 -1460h158v-35h-346v35h151l-223 1460l-350 -1518h-21l-340 1518l-219 -1460h150v-35h-347z" />
<glyph unicode="N" horiz-adv-x="1370" d="M92 0v35h156v1460h-156v35h215l791 -1450v170v1245h-158v35h348v-35h-153v-1520h-23l-827 1520v-156v-1304h157v-35h-350z" />
<glyph unicode="O" horiz-adv-x="1167" d="M82 727q0 246 69 434.5t185.5 287.5t261.5 99q146 0 258 -108t170.5 -293.5t58.5 -419.5q0 -212 -68.5 -382t-188 -265.5t-267.5 -95.5q-142 0 -251.5 96t-168.5 264.5t-59 382.5zM119 727q0 -205 53.5 -366t154.5 -252t234 -91q138 0 249.5 90.5t175 253t63.5 365.5 q0 225 -54 402.5t-157 280.5t-240 103q-207 0 -343 -215t-136 -571z" />
<glyph unicode="P" horiz-adv-x="991" d="M92 0v35h156v1460h-156v35h375q232 0 363 -113t131 -327q0 -81 -22.5 -146.5t-59 -110.5t-91 -79t-111.5 -54t-128 -32t-132 -16.5t-132 -4.5v-612h157v-35h-350zM285 682q67 0 125.5 3.5t125.5 15t120.5 29.5t105 49.5t86 73t55.5 102t21 135.5q0 195 -119.5 300 t-337.5 105h-182v-813z" />
<glyph unicode="Q" horiz-adv-x="1171" d="M82 727q0 229 69 418t187.5 296t261.5 107q146 0 258.5 -108t172 -294t59.5 -419q0 -270 -100.5 -464.5t-268.5 -254.5q10 -26 23.5 -53t39.5 -60t57 -58t77 -42.5t98 -17.5v-35q-61 0 -114 20t-87 47.5t-62.5 65.5t-42 65.5t-24.5 57.5q-58 -14 -104 -14 q-143 0 -257 95.5t-178.5 265.5t-64.5 382zM119 727q0 -204 59 -365.5t165 -252.5t239 -91q137 0 245 91t167 252.5t59 365.5q0 225 -54.5 402.5t-158 280.5t-240.5 103q-133 0 -243.5 -102t-174 -282.5t-63.5 -401.5z" />
<glyph unicode="R" horiz-adv-x="1155" d="M92 0v35h154v1460h-154v35h191q87 0 127 -0.5t101.5 -2.5t90.5 -6.5t70 -12.5t66 -20.5t52.5 -31t53.5 -43.5q114 -114 114 -289q0 -152 -76.5 -253.5t-207.5 -120.5q58 -12 110 -64q16 -16 29.5 -33.5t25 -41.5t20 -44t18 -57.5t15.5 -64t16 -80.5t16.5 -91t19 -111.5 t21.5 -127.5h129v-35h-162q-9 53 -26.5 164t-28 167.5t-28.5 133t-41.5 125t-53.5 78.5q-37 37 -91 52t-141 15h-239v-700h155v-35h-346zM283 770h292q166 0 256.5 95.5t90.5 258.5q0 159 -103 262q-27 27 -55.5 46t-69 31t-69.5 19t-89 9.5t-92.5 3t-112.5 0.5h-48v-725z " />
<glyph unicode="S" horiz-adv-x="1060" d="M102 -4v465h37v-178q46 -122 149.5 -193.5t235.5 -71.5q188 0 298 104t110 290q0 89 -28 156.5t-75.5 109t-109 72t-129.5 52t-135.5 41.5t-129 47t-109 63.5t-75.5 95t-28 137.5q0 87 33 157.5t87.5 114t122.5 67t142 23.5q105 0 190.5 -55t134.5 -154v80v88h37v-397 h-37v127q-36 132 -122.5 204t-202.5 72q-93 0 -170.5 -35.5t-127.5 -111.5t-50 -180q0 -73 28 -127.5t75.5 -87.5t109 -57.5t129.5 -44.5t135.5 -41.5t129 -54t109 -77.5t75.5 -117t28 -167q0 -201 -121 -314.5t-324 -113.5q-123 0 -223.5 57.5t-161.5 159.5v-60v-145h-37z " />
<glyph unicode="T" horiz-adv-x="1183" d="M20 1346v184h1143v-184h-37v149h-514v-1458h152v-35h-342v35h153v1458h-518v-149h-37z" />
<glyph unicode="U" horiz-adv-x="1345" d="M82 1495v35h215v-1497q82 4 179.5 52.5t196 144.5t179 223.5t131.5 307t51 376.5v358h-155v35h350v-35h-158v-1460h182v-35h-219v823q-28 -148 -90 -281t-143 -231t-174.5 -170t-187.5 -108.5t-179 -36.5v1499h-178z" />
<glyph unicode="V" horiz-adv-x="1212" d="M82 1495v35h346v-35h-156v-1483q130 25 234.5 83.5t179 137.5t130.5 189t90 225.5t55.5 262t30 283t9.5 302.5h-155v35h346v-35h-154q-3 -157 -8.5 -269t-26 -273.5t-52.5 -277.5t-92 -246.5t-141.5 -217t-204.5 -153t-277 -87.5v1524h-154z" />
<glyph unicode="W" horiz-adv-x="1765" d="M82 1495v35h346v-35h-156v-1483q155 29 269.5 124.5t196.5 273.5t122 458q35 249 36 577q0 42 -1 85h35v-1518q91 17 168 57.5t135 96t105 134t79.5 160.5t56.5 186.5t38 200t23 214.5t12.5 216.5t4.5 217.5h-153v35h346v-35h-156q-2 -151 -6.5 -262t-21.5 -274 t-44.5 -282t-79.5 -252.5t-122.5 -221t-178 -151.5t-241.5 -79l4 975q-16 -199 -62 -364.5t-124.5 -298.5t-200 -215t-276.5 -99v1524h-154z" />
<glyph unicode="X" horiz-adv-x="1157" d="M31 0v35h162q0 112 14 208.5t41.5 174.5t56.5 138t74.5 119t79.5 96t86 89q-90 70 -147 128.5t-104 133.5q-46 76 -67 166q-20 86 -20 196v11h-160v35h346v-35h-149q-1 -16 -1 -31q0 -179 75 -312q81 -144 249 -267q23 23 62.5 61.5t61 59.5t54.5 56t51 59.5t42 59.5 t37 67t25.5 71.5t18 83t5.5 92.5h-154v35h346v-35h-155q0 -60 -10.5 -115t-23 -97t-38.5 -87.5t-46 -75t-58 -71t-60.5 -63t-67 -64t-65.5 -62.5q59 -52 100 -95t88.5 -115.5t76.5 -152.5t49.5 -199t21.5 -263h198v-35h-235q0 149 -19 272t-46.5 204.5t-73.5 154 t-85.5 115.5t-97.5 94q-59 -59 -100 -106.5t-89.5 -122.5t-78 -152.5t-50.5 -187.5t-22 -236h146v-35h-344z" />
<glyph unicode="Y" horiz-adv-x="1138" d="M20 1495v35h349v-35h-156q5 -239 101 -481t255 -404q156 159 254 402t101 483h-152v35h346v-35h-157q-3 -250 -107 -500.5t-268 -414.5v-545h153v-35h-342v35h154v545q-163 163 -267 413.5t-108 501.5h-156z" />
<glyph unicode="Z" horiz-adv-x="1120" d="M92 0l873 1495h-770v-205h-37v240h870l-872 -1495h798v201h37v-236h-899z" />
<glyph unicode="[" horiz-adv-x="288" d="M41 -434v2011h217v-35h-180v-1941h180v-35h-217z" />
<glyph unicode="\" horiz-adv-x="718" d="M10 1575h37l662 -1843h-37z" />
<glyph unicode="]" horiz-adv-x="288" d="M31 -399h180v1941h-180v35h217v-2011h-217v35z" />
<glyph unicode="^" horiz-adv-x="921" d="M92 860l342 670h55l340 -670l-36 -14l-330 657l-334 -657z" />
<glyph unicode="_" horiz-adv-x="1003" d="M41 0h922v-35h-922v35z" />
<glyph unicode="`" horiz-adv-x="331" d="M0 1356l16 39l316 -138l-13 -28z" />
<glyph unicode="a" horiz-adv-x="841" d="M114 360q2 156 46 266t155.5 184.5t315.5 125.5v-905h129v-31h-162v276q0 12 2 88q2 54 2 80v17q-6 -208 -138 -342q-126 -127 -315 -127h-20q-16 196 -16 343q1 12 1 25zM147 352v-20q0 -135 13 -309q438 27 438 682v188q-181 -50 -280 -122.5t-134.5 -174.5t-36.5 -244 z" />
<glyph unicode="b" horiz-adv-x="798" d="M82 1452v31h209v-31h-86v-729q0 -123 -4 -182q5 28 9.5 46.5t19 56t34.5 65.5t58 64.5t86.5 64.5t122.5 55.5t165 46.5q9 -114 8 -213q0 -87 -6 -162q-14 -162 -69.5 -278t-167 -189t-289.5 -108v1462h-90zM205 31q126 31 212.5 80.5t140.5 121t80 167.5t32 220 q2 47 2 98q0 85 -6 183q-176 -43 -273 -109.5t-142 -182t-46 -306.5v-272z" />
<glyph unicode="c" horiz-adv-x="727" d="M112 474q21 191 138.5 300t374.5 166v-242h-33v201q-174 -42 -273.5 -114t-138.5 -177.5t-41 -251.5v-25q0 -136 19 -308h12q164 0 257 53q96 55 167 209l29 -11q-29 -64 -60.5 -111t-69 -78t-74 -50.5t-87 -29t-96 -12.5t-111.5 -3q-21 181 -21 323q0 88 8 161z" />
<glyph unicode="d" horiz-adv-x="849" d="M131 462q15 186 124 297.5t353 170.5v518h-88v31h209v-31h-88v-1417h127v-31h-160v307q6 153 6 156q-12 -156 -80 -266q-66 -109 -168 -159q-91 -44 -199 -45q-13 0 -26 1q-16 176 -16 315q0 83 6 153zM166 460q-6 -67 -6 -147q0 -127 14 -286q214 5 327 179 q107 165 107 474v33v180q-224 -51 -326 -155t-116 -278z" />
<glyph unicode="e" horiz-adv-x="765" d="M114 349q1 271 119 408q127 147 406 179q12 -74 12 -140q1 -184 -95 -299q-122 -147 -376 -147h-30q0 -170 22 -325q185 3 284 46t181 162l27 -18q-90 -131 -201.5 -176t-323.5 -45q-25 257 -25 355zM150 383q16 -1 31 0q221 0 339 120q101 103 100 296q0 49 -6 104 q-130 -18 -221.5 -63t-143 -114.5t-74.5 -152.5t-25 -190z" />
<glyph unicode="f" horiz-adv-x="509" d="M102 899v31h101v289q0 124 55 189.5t145 68.5l5 -31q-78 -5 -125 -61t-47 -166v-289h108v-31h-108v-868h92v-31h-209v31h84v868h-101z" />
<glyph unicode="g" horiz-adv-x="780" d="M124 394q7 212 103 329q118 144 420 213v-797q0 -92 -19 -169.5t-50 -131.5t-74.5 -97t-89.5 -69t-97.5 -42.5t-95 -23.5t-86.5 -7v159h33v-127q58 5 111.5 18.5t117 49t109.5 88t77 144t31 208.5q0 81 2 125.5t2 93.5q-11 -69 -35.5 -124.5t-54 -92.5t-70.5 -64.5 t-77 -42.5t-82.5 -24.5t-78.5 -12.5t-73 -5q-24 252 -24 370q0 17 1 32zM162 457q-4 -52 -4 -113q0 -138 22 -319q77 7 135.5 23t117 54t96.5 97.5t61.5 156.5t23.5 226v311q-231 -59 -334.5 -161.5t-117.5 -274.5z" />
<glyph unicode="h" horiz-adv-x="888" d="M92 0v31h103v1417h-103v31h242v-31h-107v-700q0 -29 -2 -89.5t-2 -91.5q12 68 49 131.5t96 115.5t145.5 86t188.5 40v-909h105v-31h-240v31h103v872q-63 -6 -123.5 -25.5t-120 -60t-103.5 -96.5q-45 -56 -71 -140q-26 -81 -25 -179v-7v-364h107v-31h-242z" />
<glyph unicode="i" horiz-adv-x="450" d="M92 899v31h174v-899h103v-31h-240v31h104v868h-141zM233 1159v271h33v-271h-33z" />
<glyph unicode="j" horiz-adv-x="448" d="M-31 -373q37 0 69.5 9.5t68 37.5t60.5 73t41.5 121.5t16.5 176.5v854h-98v31h229v-31h-98v-854q0 -105 -17 -185.5t-44 -129t-65 -79.5t-76.5 -42.5t-82.5 -11.5zM225 1159v271h37v-271h-37z" />
<glyph unicode="k" horiz-adv-x="856" d="M92 0v31h111v1415h-103v31h238v-31h-102v-950q12 8 42.5 30t45.5 33.5t44 34t45.5 37t41 37.5t39 41t31.5 43t26 47t15.5 48t6.5 52h-88v31h213v-31h-92q-6 -97 -64 -176t-157 -156q147 -83 207.5 -199.5t79.5 -336.5h157v-31h-188q-7 102 -21 176.5t-44 148t-85 128.5 t-135 92l-120 -86v-428h110v-31h-254z" />
<glyph unicode="l" horiz-adv-x="397" d="M72 1446v31h213v-31h-90v-1190q0 -113 46.5 -167.5t125.5 -57.5l-5 -31q-90 2 -145 67.5t-55 188.5v1190h-90z" />
<glyph unicode="m" horiz-adv-x="1290" d="M92 899v31h178v-43q0 -137 -8 -305q28 176 131.5 262t294.5 86v-58q0 -48 -4 -166.5t-4 -123.5q27 177 129.5 262.5t296.5 85.5l-2 -899h104v-31h-237v31h102v868q-93 -1 -161 -27t-120 -85t-78 -161t-26 -247v-379h-31v899q-71 -1 -127 -16.5t-106 -52t-83 -94 t-52 -147.5t-19 -208v-350h103v-31h-242v31h107v868h-146z" />
<glyph unicode="n" horiz-adv-x="935" d="M92 899v31h178v-150q-4 -151 -6 -217q32 184 155 279.5t333 95.5v-907h102v-31h-238v31h103v872q-210 0 -329.5 -133t-119.5 -389v-350h103v-31h-242v31h107v868h-146z" />
<glyph unicode="o" horiz-adv-x="768" d="M82 334q0 134 52 258.5t127.5 204.5t154.5 108q-38 -8 -78 -8q-53 0 -111 14l9 27q64 -10 116 -11h18q39 -1 62 3q28 4 74.5 13t83.5 13q34 -67 55 -183t21 -230q0 -142 -28 -253.5t-76 -178t-107.5 -100.5t-126.5 -34q-47 0 -88.5 19t-78 58.5t-58 111.5t-21.5 168z M115 326q0 -157 61.5 -237.5t151.5 -80.5q130 0 217.5 137.5t87.5 397.5q0 220 -66 381q-103 -13 -190 -70.5t-143.5 -141.5t-87.5 -184.5t-31 -201.5z" />
<glyph unicode="p" horiz-adv-x="841" d="M82 899v31h172v-221q-1 -37 -2 -111.5t-2 -110.5q2 72 28.5 139t81.5 129t151 109.5t224 71.5q14 -151 14 -276q0 -112 -11 -203q-24 -191 -136 -300.5t-348 -158.5v-365h90v-30h-215v30h92v1266h-139zM254 33q165 33 264 99.5t144 171.5t53 252q3 50 3 104 q0 109 -11 239q-68 -16 -124.5 -38t-100 -47t-77 -58t-57.5 -66.5t-41 -77t-27.5 -85t-16 -96t-7.5 -103t-2 -113.5v-182z" />
<glyph unicode="q" horiz-adv-x="802" d="M115 365q3 158 47 270t156.5 184.5t312.5 114.5v-1307h90v-30h-209v30h86v584q1 30 3 126t3 126q-2 -53 -15.5 -110.5t-48 -125t-85 -119t-135.5 -84.5q-77 -30 -172 -30h-17q-16 184 -16 327v44zM148 366v-45q0 -129 14 -294q203 1 316.5 161t119.5 447v258 q-173 -40 -270.5 -108.5t-137 -171.5t-42.5 -247z" />
<glyph unicode="r" horiz-adv-x="749" d="M92 899v31h174v-189q0 -80 -8 -182q24 174 147 276.5t324 102.5v-240h-33v205q-70 -2 -131 -19.5t-116.5 -57t-95.5 -98.5t-63.5 -148.5t-23.5 -202.5v-346h113v-31h-256v31h110v868h-141z" />
<glyph unicode="s" horiz-adv-x="651" d="M113 727q0 50 23.5 90.5t61.5 66t89.5 43t104.5 24.5t110 7v-176h-33v142q-63 -2 -117.5 -13t-102 -33t-75 -61t-27.5 -90q0 -44 21.5 -74.5t56 -48t76.5 -31t84 -29t76.5 -36.5t56 -59t21.5 -91q0 -49 -22.5 -102t-69 -107.5t-133 -99t-199.5 -65.5v221h35v-180 q96 20 175.5 66t129.5 116.5t51 150.5q0 47 -21 80t-56 51t-77 31.5t-84 28t-76.5 34.5t-56.5 56.5t-22 87.5z" />
<glyph unicode="t" horiz-adv-x="589" d="M61 899v31h115l4 215h29v-215h274v-31h-274v-872q85 23 144.5 76.5t115.5 154.5l29 -16q-71 -119 -133 -172t-189 -86v915h-115z" />
<glyph unicode="u" horiz-adv-x="972" d="M82 899v31h172v-903q222 1 335 138.5t113 393.5v340h-102v31h242v-31h-107v-868h146v-31h-179l3 229q0 15 4 76q3 46 3 61q0 8 -1 8q-1 1 -2 -7q-17 -88 -52.5 -155t-81 -107.5t-106 -66.5t-119.5 -35.5t-129 -10.5v907h-139z" />
<glyph unicode="v" horiz-adv-x="823" d="M82 899v31h242v-31h-105v-874q245 23 348 227q101 200 101 630v17h-103v31h238v-31h-103q0 -122 -7 -220.5t-22 -194t-40.5 -167.5t-65 -134t-92.5 -102t-125 -63t-162 -24v905h-104z" />
<glyph unicode="w" horiz-adv-x="1116" d="M82 899v31h242v-31h-105v-872q91 17 158.5 73t108 137t64.5 195q24 112 31 232q4 76 4 163q0 50 -1 103h30v-903q368 75 368 803q0 34 -1 69h-102v31h237v-31h-102q0 -63 -1 -115.5t-5.5 -124t-13 -130t-24.5 -126.5t-38 -121t-55 -105.5t-74 -89t-97 -61.5t-122 -32v323 l8 215q-16 -230 -120 -377.5t-286 -160.5v905h-104z" />
<glyph unicode="x" horiz-adv-x="858" d="M51 0v31h117q1 162 51.5 272t165.5 217q-74 54 -115 98.5t-67.5 114.5t-28.5 166h-119v31h260v-31h-106q1 -93 24.5 -156.5t62.5 -104t116 -97.5q103 90 134 125q80 92 88 213q1 10 1 20h-115v31h262v-31h-114q-2 -66 -19 -119.5t-50 -96.5t-63.5 -72t-77.5 -69l-7.5 -6 t-7 -5.5t-7.5 -6.5q121 -97 163.5 -203t45.5 -290h162v-31h-193q0 55 -2 82q-12 160 -51 245t-149 177q-37 -33 -63 -61.5t-56 -72t-48 -89.5t-30.5 -110.5t-13.5 -139.5h121v-31h-271z" />
<glyph unicode="y" horiz-adv-x="921" d="M82 899v31h174v-905q86 1 155.5 22.5t115 54t79.5 81.5t52 95t28.5 105.5t13 103t2.5 95.5v317h-98v31h236v-31h-105v-760q0 -94 -19.5 -173t-51.5 -133.5t-77 -96.5t-91 -67t-97.5 -41t-93 -22t-82.5 -7v159h33v-127q34 3 67 8.5t79 21t85.5 38t80.5 62t69.5 89.5 t46.5 124.5t18 164.5q0 58 1.5 111.5t1.5 103.5q-59 -362 -482 -362v907h-141z" />
<glyph unicode="z" horiz-adv-x="765" d="M72 0l544 899h-473v-117h-32v148h567l-543 -899h488v153h32v-184h-583z" />
<glyph unicode="{" horiz-adv-x="276" d="M41 547v28q3 0 8.5 0.5t19 5t24 12t20 23.5t10.5 37q3 84 -8.5 426.5t-10.5 360.5q3 50 42 83t85 33l5 -32q-4 0 -10.5 -0.5t-23 -6t-29.5 -14.5t-24 -28t-12 -45q-2 -31 11 -365t10 -412q-5 -63 -66 -92q62 -20 66 -92q1 -27 -3.5 -216t-9 -372t-4.5 -186 q0 -38 23.5 -61.5t47.5 -27.5l24 -5l-5 -35q-58 6 -92.5 39t-34.5 90q0 10 6 178t11 350t2 246q-2 33 -22.5 52.5t-40.5 22.5z" />
<glyph unicode="|" horiz-adv-x="339" d="M154 -279v1958h32v-1958h-32z" />
<glyph unicode="}" horiz-adv-x="266" d="M31 -401q4 0 10 1t22.5 7t29 15.5t22.5 28t10 42.5q0 3 -4.5 186t-8.5 372t-3 216q4 73 65 92q-60 29 -65 92q-3 78 9.5 411.5t10.5 364.5q-2 41 -26.5 64.5t-48.5 26.5l-23 4l4 32q46 0 85 -33t42 -83q1 -18 -10.5 -360.5t-8.5 -426.5q2 -34 22.5 -53.5t40.5 -21.5 l19 -3v-28q-3 0 -8.5 -1t-19 -5.5t-24 -12t-20 -23t-10.5 -36.5q-3 -64 2 -246t11 -350t6 -178q0 -57 -34.5 -90t-92.5 -39z" />
<glyph unicode="~" horiz-adv-x="1003" d="M51 1358q3 4 18.5 26.5t22 31t23.5 29.5t28.5 31t31 25.5t36.5 23t40 13.5t46 6q49 0 103.5 -29t95 -63t95 -63t103.5 -29q123 0 227 165q4 5 5 7l26 -16q-112 -187 -258 -187q-40 0 -81.5 15t-68 31.5t-69.5 47.5q-41 31 -60.5 44.5t-54.5 29.5t-63 16q-21 0 -41 -5 t-39 -18.5t-32 -23t-31.5 -31t-25.5 -30t-25.5 -34t-20.5 -28.5z" />
<glyph unicode="&#xa1;" horiz-adv-x="290" d="M154 387h34v-1069h-34v1069zM154 668v262h34v-262h-34z" />
<glyph unicode="&#xa2;" horiz-adv-x="921" d="M49 465q0 150 44.5 278.5t127.5 208t187 82.5v152h32v-152q72 -3 126 -50t59 -110q-7 113 -7 142v39h33v-353h-33q0 145 -50 223.5t-150 78.5q-77 0 -143 -49.5t-107.5 -128t-64.5 -173t-23 -188.5q0 -207 94.5 -323.5t253.5 -116.5q112 0 202 46t130 99l26 -25 q-60 -67 -152 -108.5t-194 -42.5v-144h-32v144q-54 1 -104 16.5t-97 51t-81.5 88.5t-55.5 134t-21 181z" />
<glyph unicode="&#xa3;" horiz-adv-x="919" d="M31 788v33h184q0 142 19.5 243t55.5 164.5t95.5 98.5t129.5 46t167 5l-4 -32q-123 9 -204 -15t-131 -88.5t-70.5 -165.5t-20.5 -256h291v-33h-291v-755h559v133h37v-166h-785v33h152v755h-184z" />
<glyph unicode="&#xa4;" horiz-adv-x="1126" d="M72 657l10 33h94q2 77 17 184h-121l10 33h115q45 259 173 413.5t314 154.5q60 0 114 -19.5t91 -49.5t60.5 -57.5t37.5 -52.5l-20 -34q-3 7 -10 19t-32.5 42.5t-55.5 53.5t-80.5 42t-106.5 19q-91 0 -167.5 -42t-130.5 -116.5t-90.5 -168t-57.5 -204.5h606l-15 -33h-598 q-12 -90 -18 -184h631l-15 -33h-616q0 -145 23.5 -258.5t62 -185t92.5 -118t111.5 -65t122.5 -18.5q120 0 218 65t165 189l28 -14q-70 -130 -176 -202.5t-235 -72.5q-99 0 -178.5 38t-140.5 117t-94.5 212t-33.5 313h-104z" />
<glyph unicode="&#xa5;" horiz-adv-x="1118" d="M10 1493v33h346v-33h-153q0 -221 102.5 -431t251.5 -349q171 164 263.5 367t92.5 413h-153v33h348v-33h-158q0 -211 -92 -414t-252 -366h381v-33h-412v-145h412v-33h-412v-469h154v-33h-342v33h152v469h-414v33h414v145h-414v33h385q-155 154 -249.5 361.5t-94.5 418.5 h-156z" />
<glyph unicode="&#xa6;" horiz-adv-x="339" d="M154 -279v654h32v-654h-32zM154 1026v653h32v-653h-32z" />
<glyph unicode="&#xa7;" horiz-adv-x="952" d="M102 879q0 50 28.5 114.5t68.5 110.5q-56 75 -56 182q0 123 91.5 216t236.5 93q96 0 171.5 -32t111.5 -80l-25 -21q-33 43 -101 72t-157 29q-130 0 -212.5 -83.5t-82.5 -193.5q0 -90 64 -180q46 -59 232 -162q5 -3 8.5 -4.5t6.5 -3.5q65 -35 110.5 -63t96.5 -67t82.5 -75 t52.5 -82t21 -94q0 -73 -20.5 -132t-67.5 -136q41 -74 41 -168q0 -79 -28 -143t-70.5 -103t-96.5 -65.5t-103.5 -37t-94.5 -10.5q-81 0 -138.5 25.5t-158.5 95.5l18 27q91 -64 149 -89.5t130 -25.5q42 0 88 9.5t95.5 33.5t88 59.5t63.5 93.5t25 130q0 43 -10.5 82t-26 69 t-43.5 60t-52 50.5t-64.5 45.5t-68 40t-73.5 38q-48 24 -79.5 41.5t-74.5 45t-70.5 55t-54 63t-39 78.5t-12.5 92zM137 879q0 -38 10 -73t25 -62t41.5 -54.5t49 -46t59.5 -41.5t60.5 -36t63.5 -34q110 -56 180.5 -103t116.5 -110q48 91 60 134q14 48 14 102q0 43 -20 84.5 t-50 74.5t-79.5 69.5t-92 63t-104.5 60.5q-200 108 -252 172q-35 -49 -58.5 -105t-23.5 -95z" />
<glyph unicode="&#xa8;" horiz-adv-x="382" d="M0 1180v233h33v-233h-33zM350 1180v233h33v-233h-33z" />
<glyph unicode="&#xa9;" horiz-adv-x="1341" d="M72 829q0 172 78.5 316t218 228.5t309.5 84.5q167 0 303 -84.5t212.5 -228.5t76.5 -316q0 -122 -45 -234.5t-123 -195.5t-188.5 -132.5t-235.5 -49.5q-169 0 -309 84t-218.5 224t-78.5 304zM109 829q0 -152 73 -284t204.5 -212.5t291.5 -80.5q119 0 223.5 47.5 t176.5 126.5t113.5 184t41.5 219q0 160 -70 295.5t-198 217t-287 81.5q-160 0 -291.5 -81t-204.5 -217t-73 -296zM387 817q0 107 29.5 198t96 152.5t159.5 61.5q64 0 106 -29t43 -78q-6 66 -6 84v29h35v-277h-35v66q0 81 -31 126.5t-112 45.5q-113 0 -181.5 -111t-68.5 -268 q0 -84 27.5 -161t86.5 -130t138 -53q120 0 203 105l24 -27q-53 -59 -106 -85t-125 -26q-128 0 -205.5 107t-77.5 270z" />
<glyph unicode="&#xaa;" horiz-adv-x="704" d="M75 903.5q2 142.5 43.5 242.5t143 165t285.5 106v-815h112v-31h-145v242q0 12 3.5 84t2.5 92q-5 -191 -122.5 -311.5t-309.5 -114.5q-15 198 -13 340.5zM108.5 890.5q-1.5 -128.5 12.5 -296.5q75 5 135.5 30.5t101 62.5t70 90t46 104t26 114t12 110.5t2.5 102.5v166 q-162 -40 -251.5 -104.5t-121 -157.5t-33 -221.5z" />
<glyph unicode="&#xab;" horiz-adv-x="1028" d="M41 553l512 502l22 -25l-491 -477l489 -475l-20 -25zM399 553l516 502l21 -27l-490 -475l490 -475l-21 -25z" />
<glyph unicode="&#xac;" horiz-adv-x="815" d="M51 543v32h713v-231h-35v199h-678z" />
<glyph unicode="&#xad;" horiz-adv-x="782" d="M92 584v30h598v-30h-598z" />
<glyph unicode="&#xae;" horiz-adv-x="1439" d="M102 821q0 129 49 245t132 200t198.5 133t243.5 49q125 0 238 -49t195 -132.5t130.5 -200t48.5 -245.5q0 -164 -80 -304t-221.5 -223t-310.5 -83q-171 0 -314.5 83t-226 223t-82.5 304zM137 821q0 -153 78 -285.5t214 -212t296 -79.5q159 0 292 79.5t208 212t75 285.5 q0 161 -75 297.5t-207.5 216.5t-292.5 80q-161 0 -296.5 -80t-213.5 -216.5t-78 -297.5zM455 440v33h106v735h-106v35h243q140 0 200 -56t60 -167q0 -78 -53 -127t-125 -55q35 -6 61.5 -26t41.5 -53.5t25 -66t14 -78t5 -73.5t1 -68h88v-33h-123q0 16 -0.5 48t-1 51.5 t-2 50.5t-4.5 50.5t-9 46t-14.5 43.5t-21.5 35t-29.5 28.5t-39 17t-50.5 6.5h-125v-344h94v-33h-235zM596 850h90q103 0 171.5 43.5t68.5 124.5q0 55 -15 92t-52 62.5t-102 34t-161 1.5v-358z" />
<glyph unicode="&#xaf;" horiz-adv-x="561" d="M0 1212q1 2 11.5 18t15.5 23t17 22t22 22.5t24 17t29.5 14t32.5 4.5q42 0 86 -27t84.5 -54t74.5 -27q14 0 27.5 3.5t23.5 7.5t21.5 13t18 14.5t16.5 17t13 15.5t11 16l9 11l24 -12q-68 -117 -164 -117q-31 0 -65.5 17t-59.5 37.5t-58 37.5t-62 17q-25 0 -45.5 -11.5 t-31 -23.5t-27.5 -36t-23 -32z" />
<glyph unicode="&#xb0;" horiz-adv-x="528" d="M0 1268q0 111 76.5 191.5t183.5 80.5q114 0 191 -80t77 -192q0 -108 -77.5 -188.5t-190.5 -80.5q-106 0 -183 81t-77 188zM35 1268q0 -92 67.5 -164t155.5 -72q94 0 165 72t71 164q0 94 -70.5 166.5t-163.5 72.5q-90 0 -157.5 -70t-67.5 -169z" />
<glyph unicode="&#xb1;" horiz-adv-x="815" d="M51 -66h713v-32h-713v32zM74 543v32h315v373h33v-373h319v-32h-319v-381h-33v381h-315z" />
<glyph unicode="&#xb2;" horiz-adv-x="561" d="M61 825q3 71 18 127t43.5 99t54 71t67.5 64q85 75 112 106q75 87 84 189q-51 5 -96.5 0.5t-83.5 -19t-70.5 -47.5t-56.5 -84l-27 17q30 73 85 113t125.5 48.5t158.5 -0.5q-1 -40 -7 -74.5t-20.5 -65t-27 -51.5t-37.5 -47.5t-39 -39.5t-45.5 -40.5t-44.5 -39.5 q-36 -32 -56 -53.5t-44.5 -57t-38 -80.5t-17.5 -102h396v-33h-433z" />
<glyph unicode="&#xb3;" horiz-adv-x="557" d="M51 846q107 1 188.5 21.5t127.5 54t68 71.5t22 78q0 93 -80 130.5t-193 0.5l-10 35q224 52 293 242h-342v30h381q-6 -80 -76.5 -162.5t-159.5 -103.5q94 17 158 -34t64 -138q0 -109 -113.5 -183.5t-321.5 -74.5z" />
<glyph unicode="&#xb4;" horiz-adv-x="536" d="M102 1257l318 136l14 -41l-317 -125z" />
<glyph unicode="&#xb5;" horiz-adv-x="946" d="M82 897v33h176v-897q73 13 139.5 45t126 87.5t103 129t69 175.5t25.5 220v207h-98v33h235v-33h-104v-864h110v-33h-143v188l6 304q-12 -132 -85.5 -242t-174.5 -172.5t-209 -77.5v-352h143v-31h-317v31h141v1249h-143z" />
<glyph unicode="&#xb6;" horiz-adv-x="821" d="M97 1006.5q11 64.5 38.5 117.5t64.5 86t80 55t80.5 31t69.5 9v-1518h-192v33h155v936q-28 -37 -98.5 -69.5t-138.5 -33.5q-42 105 -56 197t-3 156.5zM537 1305h192v-33h-154v-1485h-36z" />
<glyph unicode="&#xb7;" horiz-adv-x="239" d="M102 563v271h35v-271h-35z" />
<glyph unicode="&#xb8;" horiz-adv-x="280" d="M0 -375q84 11 137 36.5t75.5 62.5t28.5 86t-3 108q24 0 34 10q23 -161 -39 -236t-229 -89z" />
<glyph unicode="&#xb9;" horiz-adv-x="315" d="M41 1483q125 35 203 53v-715h-33v678l-162 -45z" />
<glyph unicode="&#xba;" horiz-adv-x="768" d="M82 928q0 134 52 258.5t127.5 204.5t154.5 108q-88 -18 -189 6l9 27q65 -10 116.5 -11t79.5 3.5t74.5 13t83.5 12.5q34 -67 55 -183t21 -230q0 -142 -28 -253.5t-76 -178t-107.5 -100.5t-126.5 -34q-47 0 -88.5 19t-78 58.5t-58 111.5t-21.5 168zM115 920 q0 -157 61.5 -237.5t151.5 -80.5q130 0 217.5 137.5t87.5 397.5q0 220 -66 381q-103 -13 -190 -70.5t-143.5 -141.5t-87.5 -184.5t-31 -201.5z" />
<glyph unicode="&#xbb;" horiz-adv-x="1028" d="M92 78l490 475l-490 475l21 27l516 -502l-516 -500zM453 1030l22 25l512 -502l-512 -500l-20 25l489 475z" />
<glyph unicode="&#xbc;" horiz-adv-x="1312" d="M102 1292q125 36 203 54v-711h-35v674l-159 -47zM125 -18l1063 1421l22 -27l-1056 -1415zM750 170q0 76 15 146.5t50 145.5t102 142t162 115v-516h121v-33h-121v-170h-32v170h-297zM784 203h263v463q-51 -34 -94 -75.5t-83 -98t-63 -131.5t-23 -158z" />
<glyph unicode="&#xbd;" horiz-adv-x="1406" d="M115 -16l1059 1417l26 -25l-1057 -1415zM164 1393q125 35 203 53v-715h-33v678l-162 -45zM872 -2q3 71 18 126.5t43.5 99t54 71t67.5 63.5q85 75 112 106q75 87 84 189q-51 5 -96.5 0.5t-83.5 -18.5t-70.5 -47t-56.5 -84l-26 16q30 73 85 113.5t125 49t158 -0.5 q-1 -40 -7 -74.5t-20.5 -65t-27 -51.5t-37.5 -47.5t-39 -39.5t-45.5 -40.5t-44.5 -39.5q-36 -32 -56 -53.5t-44.5 -57t-38 -80.5t-17.5 -102h396v-33h-433z" />
<glyph unicode="&#xbe;" horiz-adv-x="1312" d="M72 616q88 0 159.5 17.5t116 45.5t75 63.5t42.5 69.5t12 67q0 93 -79.5 130.5t-192.5 0.5l-10 34q223 52 292 242h-342v31h381q-6 -80 -76 -162.5t-159 -103.5q94 17 157.5 -34t63.5 -138q0 -53 -27.5 -104t-79.5 -94.5t-137 -70t-190 -26.5zM156 -18l1063 1421l22 -27 l-1057 -1415zM780 170q0 76 15 146.5t50 145.5t102.5 142t162.5 115v-516h121v-33h-121v-170h-33v170h-297zM815 203h262v463q-51 -34 -94 -75.5t-82.5 -98t-62.5 -131.5t-23 -158z" />
<glyph unicode="&#xbf;" horiz-adv-x="741" d="M102 -279q0 45 20 85t52 71t71 60.5t77.5 58t70.5 57.5t52 66t20 78q0 38 -11 70.5t-27.5 51.5t-32.5 33t-27 20l-11 5l15 29q5 -2 13.5 -6t30.5 -20.5t39 -38t30.5 -60t13.5 -84.5t-20 -87t-51.5 -71.5t-70.5 -59.5t-77.5 -57t-70 -57t-51.5 -66t-20 -78 q0 -55 42 -106.5t110.5 -90t133 -64.5t132.5 -46v176h33v-219q-38 8 -89.5 23.5t-124 47t-131 69t-100 93.5t-41.5 117zM379 657v271h33v-271h-33z" />
<glyph unicode="&#xc0;" d="M10 0v35h164l510 1499h-156v35h201l524 -1534h162v-35h-358v35h160l-197 581h-612l-197 -581h160v-35h-361zM420 651h586l-293 865zM483 1747l17 39l315 -137l-12 -29z" />
<glyph unicode="&#xc1;" d="M10 0v35h164l510 1499h-156v35h201l524 -1534h162v-35h-358v35h160l-197 581h-612l-197 -581h160v-35h-361zM420 651h586l-293 865zM553 1649l317 135l15 -41l-318 -125z" />
<glyph unicode="&#xc2;" d="M10 0v35h164l510 1499h-156v35h201l524 -1534h162v-35h-358v35h160l-197 581h-612l-197 -581h160v-35h-361zM420 651h586l-293 865zM463 1636l242 228l239 -228l-24 -22l-215 201l-216 -201z" />
<glyph unicode="&#xc3;" d="M10 0v35h164l510 1499h-156v35h201l524 -1534h162v-35h-358v35h160l-197 581h-612l-197 -581h160v-35h-361zM420 651h586l-293 865zM420 1632q2 3 11.5 18t15.5 22.5t17 22t21.5 23t24 17.5t29 13.5t32.5 4.5q42 0 86.5 -27t85 -54t74.5 -27q14 0 27 3.5t23.5 8 t21.5 12.5t18 14.5t16.5 17t13 15.5t11 15.5t8.5 11.5l25 -12q-68 -117 -164 -117q-39 0 -82.5 27t-85 54t-78.5 27q-25 0 -45.5 -11.5t-31 -23t-27.5 -36t-23 -31.5z" />
<glyph unicode="&#xc4;" d="M10 0v35h164l510 1499h-156v35h201l524 -1534h162v-35h-358v35h160l-197 581h-612l-197 -581h160v-35h-361zM420 651h586l-293 865zM512 1622v233h33v-233h-33zM862 1622v233h33v-233h-33z" />
<glyph unicode="&#xc5;" d="M10 0v35h164l510 1499h-156v35h201l524 -1534h162v-35h-358v35h160l-197 581h-612l-197 -581h160v-35h-361zM420 651h586l-293 865zM569 1753q0 58 36.5 96.5t92.5 38.5q57 0 95 -39t38 -96t-38 -95t-95 -38t-93 38t-36 95zM600 1753q0 -46 26.5 -74t71.5 -28 q44 0 73.5 31t29.5 71q0 46 -28.5 75.5t-74.5 29.5q-45 0 -71.5 -29t-26.5 -76z" />
<glyph unicode="&#xc6;" horiz-adv-x="1830" d="M0 0v33h162l624 1501h-172v33h1125v-191h-37v158h-754v-668h670v-32h-670v-801h754v160h37v-193h-830l2 573h-483l-227 -540h164v-33h-365zM442 606h467l2 928h-86z" />
<glyph unicode="&#xc7;" horiz-adv-x="1024" d="M72 680q0 191 32 345t83.5 251t120.5 162t138 91.5t140 26.5q117 0 196 -56t103 -146v106v86h37v-407h-37v51q0 145 -79.5 238.5t-221.5 93.5q-70 0 -137 -29t-129.5 -94.5t-108.5 -161.5t-73.5 -240.5t-26.5 -320.5q0 -138 22 -253.5t68.5 -209.5t127.5 -147.5 t191 -53.5q121 0 219 70t166 203l29 -19q-70 -138 -176 -213.5t-238 -75.5q-32 0 -62 4t-77 20t-86 43.5t-81.5 81t-72 125t-48.5 182.5t-19 247zM276 -449q84 11 137 36.5t75.5 62.5t28.5 86t-3 108q7 0 19.5 4t15.5 7q23 -161 -39 -237t-229 -89z" />
<glyph unicode="&#xc8;" horiz-adv-x="1181" d="M92 0v35h156v1460h-156v35h998v-189h-37v154h-768v-627h692v-34h-692v-799h768v155h37v-190h-998zM487 1741l17 39l315 -138l-12 -28z" />
<glyph unicode="&#xc9;" horiz-adv-x="1181" d="M92 0v35h156v1460h-156v35h998v-189h-37v154h-768v-627h692v-34h-692v-799h768v155h37v-190h-998zM526 1638l318 136l14 -41l-317 -125z" />
<glyph unicode="&#xca;" horiz-adv-x="1181" d="M92 0v35h156v1460h-156v35h998v-189h-37v154h-768v-627h692v-34h-692v-799h768v155h37v-190h-998zM428 1634l242 228l239 -228l-24 -22l-215 200l-215 -200z" />
<glyph unicode="&#xcb;" horiz-adv-x="1181" d="M92 0v35h156v1460h-156v35h998v-189h-37v154h-768v-627h692v-34h-692v-799h768v155h37v-190h-998zM463 1626v234h33v-234h-33zM813 1626v234h33v-234h-33z" />
<glyph unicode="&#xcc;" horiz-adv-x="520" d="M88 0v35h154v1460h-154v35h344v-35h-153v-1460h153v-35h-344zM92 1745l17 39l315 -137l-12 -29z" />
<glyph unicode="&#xcd;" horiz-adv-x="520" d="M88 0v35h154v1460h-154v35h344v-35h-153v-1460h153v-35h-344zM96 1657l318 135l14 -41l-317 -125z" />
<glyph unicode="&#xce;" horiz-adv-x="665" d="M90 1612l242 227l239 -227l-24 -23l-215 201l-215 -201zM158 0v35h153v1460h-153v35h344v-35h-154v-1460h154v-35h-344z" />
<glyph unicode="&#xcf;" horiz-adv-x="567" d="M92 1630v234h33v-234h-33zM109 0v35h153v1460h-153v35h344v-35h-154v-1460h154v-35h-344zM442 1630v234h33v-234h-33z" />
<glyph unicode="&#xd0;" horiz-adv-x="561" d="M0 1212q1 2 11.5 18t15.5 23t17 22t22 22.5t24 17t29.5 14t32.5 4.5q42 0 86 -27t84.5 -54t74.5 -27q14 0 27.5 3.5t23.5 7.5t21.5 13t18 14.5t16.5 17t13 15.5t11 16l9 11l24 -12q-68 -117 -164 -117q-31 0 -65.5 17t-59.5 37.5t-58 37.5t-62 17q-25 0 -45.5 -11.5 t-31 -23.5t-27.5 -36t-23 -32z" />
<glyph unicode="&#xd1;" horiz-adv-x="1370" d="M92 0v35h156v1460h-156v35h215l791 -1450v170v1245h-158v35h348v-35h-153v-1520h-23l-827 1520v-156v-1304h157v-35h-350zM416 1640q2 3 11.5 18t15.5 22.5t17 22t21.5 23t24 17.5t29 13.5t32.5 4.5q42 0 86.5 -27t85 -54t74.5 -27q14 0 27 3.5t23.5 8t21.5 12.5t18 14.5 t16.5 17t13 15.5t11 15.5t8.5 11.5l25 -12q-68 -117 -164 -117q-31 0 -65.5 17t-60 37.5t-58.5 37.5t-62 17q-25 0 -45.5 -11.5t-31 -23.5t-27.5 -36t-23 -32z" />
<glyph unicode="&#xd2;" horiz-adv-x="1167" d="M82 727q0 246 69 434.5t185.5 287.5t261.5 99q146 0 258 -108t170.5 -293.5t58.5 -419.5q0 -212 -68.5 -382t-188 -265.5t-267.5 -95.5q-142 0 -251.5 96t-168.5 264.5t-59 382.5zM119 727q0 -205 53.5 -366t154.5 -252t234 -91q138 0 249.5 90.5t175 253t63.5 365.5 q0 225 -54 402.5t-157 280.5t-240 103q-207 0 -343 -215t-136 -571zM399 1745l17 39l315 -137l-12 -29z" />
<glyph unicode="&#xd3;" horiz-adv-x="1167" d="M82 727q0 246 69 434.5t185.5 287.5t261.5 99q146 0 258 -108t170.5 -293.5t58.5 -419.5q0 -212 -68.5 -382t-188 -265.5t-267.5 -95.5q-142 0 -251.5 96t-168.5 264.5t-59 382.5zM119 727q0 -205 53.5 -366t154.5 -252t234 -91q138 0 249.5 90.5t175 253t63.5 365.5 q0 225 -54 402.5t-157 280.5t-240 103q-207 0 -343 -215t-136 -571zM463 1638l317 136l15 -41l-318 -125z" />
<glyph unicode="&#xd4;" horiz-adv-x="1167" d="M82 727q0 246 69 434.5t185.5 287.5t261.5 99q146 0 258 -108t170.5 -293.5t58.5 -419.5q0 -212 -68.5 -382t-188 -265.5t-267.5 -95.5q-142 0 -251.5 96t-168.5 264.5t-59 382.5zM119 727q0 -205 53.5 -366t154.5 -252t234 -91q138 0 249.5 90.5t175 253t63.5 365.5 q0 225 -54 402.5t-157 280.5t-240 103q-207 0 -343 -215t-136 -571zM342 1630l242 228l239 -228l-24 -22l-215 200l-215 -200z" />
<glyph unicode="&#xd5;" horiz-adv-x="1169" d="M84 727q0 246 69 434.5t185.5 287.5t261.5 99q146 0 258 -108t170.5 -293.5t58.5 -419.5q0 -212 -68.5 -382t-188 -265.5t-267.5 -95.5q-142 0 -251.5 96t-168.5 264.5t-59 382.5zM121 727q0 -205 53.5 -366t154.5 -252t234 -91q138 0 249.5 90.5t175 253t63.5 365.5 q0 225 -54 402.5t-157 280.5t-240 103q-207 0 -343 -215t-136 -571zM311 1634q1 2 11.5 18t15.5 23t17 22t22 22.5t24 17t29.5 14t32.5 4.5q42 0 86.5 -27t85 -54t74.5 -27q14 0 27 3.5t23.5 8t21.5 12.5t18 14.5t16.5 17t13 15.5t11 15.5t8.5 11.5l24 -12 q-68 -117 -163 -117q-39 0 -82.5 27t-85 54t-78.5 27q-25 0 -45.5 -11.5t-31 -23t-27.5 -36t-23 -31.5z" />
<glyph unicode="&#xd6;" horiz-adv-x="1167" d="M82 727q0 246 69 434.5t185.5 287.5t261.5 99q146 0 258 -108t170.5 -293.5t58.5 -419.5q0 -212 -68.5 -382t-188 -265.5t-267.5 -95.5q-142 0 -251.5 96t-168.5 264.5t-59 382.5zM119 727q0 -205 53.5 -366t154.5 -252t234 -91q138 0 249.5 90.5t175 253t63.5 365.5 q0 225 -54 402.5t-157 280.5t-240 103q-207 0 -343 -215t-136 -571zM401 1620v233h33v-233h-33zM752 1620v233h32v-233h-32z" />
<glyph unicode="&#xd7;" horiz-adv-x="708" d="M51 229l283 281l-279 274l23 25l278 -274l277 274l24 -23l-278 -276l276 -281l-24 -20l-277 278l-280 -278z" />
<glyph unicode="&#xd8;" horiz-adv-x="1167" d="M82 727q0 246 69 434.5t185.5 287.5t261.5 99q109 0 201 -61l67 186h37l-76 -209q122 -98 190 -293t68 -444q0 -212 -68.5 -382t-188 -265.5t-267.5 -95.5q-130 0 -235 82l-84 -236h-37l92 260q-102 96 -158.5 262t-56.5 375zM119 727q0 -197 49.5 -353t140.5 -249 l477 1327q-86 61 -188 61q-207 0 -343 -215t-136 -571zM338 98q99 -80 223 -80q138 0 249.5 90.5t175 253t63.5 365.5q0 236 -62 422t-172 281z" />
<glyph unicode="&#xd9;" horiz-adv-x="1345" d="M82 1495v35h215v-1497q82 4 179.5 52.5t196 144.5t179 223.5t131.5 307t51 376.5v358h-155v35h350v-35h-158v-1460h182v-35h-219v823q-28 -148 -90 -281t-143 -231t-174.5 -170t-187.5 -108.5t-179 -36.5v1499h-178zM463 1743l16 39l316 -137l-13 -29z" />
<glyph unicode="&#xda;" horiz-adv-x="1345" d="M82 1495v35h215v-1497q82 4 179.5 52.5t196 144.5t179 223.5t131.5 307t51 376.5v358h-155v35h350v-35h-158v-1460h182v-35h-219v823q-28 -148 -90 -281t-143 -231t-174.5 -170t-187.5 -108.5t-179 -36.5v1499h-178zM524 1638l318 136l14 -41l-317 -125z" />
<glyph unicode="&#xdb;" horiz-adv-x="1406" d="M143 1495v35h215v-1497q82 4 179.5 52.5t196.5 144.5t179.5 223.5t131.5 307t51 376.5v358h-156v35h350v-35h-157v-1460h182v-35h-219v823q-28 -148 -90 -281t-143 -231t-174.5 -170t-187.5 -108.5t-179 -36.5v1499h-179zM477 1630l242 228l239 -228l-24 -22l-215 200 l-215 -200z" />
<glyph unicode="&#xdc;" horiz-adv-x="1345" d="M82 1495v35h215v-1497q82 4 179.5 52.5t196 144.5t179 223.5t131.5 307t51 376.5v358h-155v35h350v-35h-158v-1460h182v-35h-219v823q-28 -148 -90 -281t-143 -231t-174.5 -170t-187.5 -108.5t-179 -36.5v1499h-178zM461 1620v233h33v-233h-33zM811 1620v233h33v-233h-33 z" />
<glyph unicode="&#xdd;" horiz-adv-x="1138" d="M20 1495v35h349v-35h-156q5 -239 101 -481t255 -404q156 159 254 402t101 483h-152v35h346v-35h-157q-3 -250 -107 -500.5t-268 -414.5v-545h153v-35h-342v35h154v545q-163 163 -267 413.5t-108 501.5h-156zM469 1638l317 136l15 -41l-318 -125z" />
<glyph unicode="&#xde;" horiz-adv-x="561" d="M0 1212q1 2 11.5 18t15.5 23t17 22t22 22.5t24 17t29.5 14t32.5 4.5q42 0 86 -27t84.5 -54t74.5 -27q14 0 27.5 3.5t23.5 7.5t21.5 13t18 14.5t16.5 17t13 15.5t11 16l9 11l24 -12q-68 -117 -164 -117q-31 0 -65.5 17t-59.5 37.5t-58 37.5t-62 17q-25 0 -45.5 -11.5 t-31 -23.5t-27.5 -36t-23 -32z" />
<glyph unicode="&#xdf;" horiz-adv-x="903" d="M-72 -295q40 0 83.5 26.5t81.5 73.5t62.5 122.5t24.5 162.5v690q0 306 166 482q55 59 126 100.5t137 60t112.5 26t81.5 7.5q0 -175 -41.5 -275t-143.5 -202q-21 -21 -57 -55.5t-52 -50.5t-39 -42.5t-33 -45.5t-17.5 -45t-7.5 -54q0 -42 22 -69.5t57 -41t77.5 -23.5 t85.5 -21t78 -28t57 -51.5t22 -84.5q0 -132 -118.5 -251.5t-305.5 -144.5v211h33v-176q80 20 144 55t103 73.5t65 81.5t36 78.5t10 65.5q0 46 -22 76t-57 44.5t-77.5 25t-85.5 21t-78 27t-57 50t-22 82.5q0 33 8 62t19.5 50.5t35 48.5t42.5 45t54.5 51.5t59.5 57.5 q99 99 134 187.5t38 236.5q-33 -3 -70 -9.5t-94 -26t-107.5 -48t-104.5 -79t-92.5 -114.5t-63.5 -159t-25 -209v-690q0 -91 -26.5 -171.5t-68 -132.5t-91.5 -82t-99 -30v31z" />
<glyph unicode="&#xe0;" horiz-adv-x="841" d="M113.5 360.5q1.5 155.5 46 265.5t156 184.5t315.5 125.5v-905h129v-31h-162v276q0 12 2.5 87.5t1.5 97.5q-5 -208 -137.5 -342t-335.5 -127q-17 213 -15.5 368.5zM147 351.5q-1 -141.5 13 -328.5q438 27 438 682v188q-181 -50 -280 -122.5t-134.5 -175t-36.5 -244z M205 1272l16 39l316 -137l-13 -29z" />
<glyph unicode="&#xe1;" horiz-adv-x="841" d="M113.5 360.5q1.5 155.5 46 265.5t156 184.5t315.5 125.5v-905h129v-31h-162v276q0 12 2.5 87.5t1.5 97.5q-5 -208 -137.5 -342t-335.5 -127q-17 213 -15.5 368.5zM147 351.5q-1 -141.5 13 -328.5q438 27 438 682v188q-181 -50 -280 -122.5t-134.5 -175t-36.5 -244z M236 1176l317 135l14 -41l-317 -125z" />
<glyph unicode="&#xe2;" horiz-adv-x="841" d="M113.5 360.5q1.5 155.5 46 265.5t156 184.5t315.5 125.5v-905h129v-31h-162v276q0 12 2.5 87.5t1.5 97.5q-5 -208 -137.5 -342t-335.5 -127q-17 213 -15.5 368.5zM147 351.5q-1 -141.5 13 -328.5q438 27 438 682v188q-181 -50 -280 -122.5t-134.5 -175t-36.5 -244z M166 1176l242 227l239 -227l-24 -23l-215 201l-215 -201z" />
<glyph unicode="&#xe3;" horiz-adv-x="845" d="M113 1169q2 3 11.5 18t15.5 22.5t17 22t21.5 23t24 17.5t29 13.5t32.5 4.5q42 0 86.5 -27t85 -54t74.5 -27q14 0 27 3.5t23.5 8t21.5 12.5t18 14.5t16.5 17t13 15.5t11 15.5t8.5 11.5l25 -12q-68 -117 -164 -117q-31 0 -65.5 17t-60 37.5t-58.5 37.5t-62 17 q-25 0 -45.5 -11.5t-31 -23.5t-27.5 -36t-23 -32zM117.5 360.5q1.5 155.5 46 265.5t156 184.5t315.5 125.5v-905h129v-31h-162v276q0 12 2.5 87.5t1.5 97.5q-5 -208 -137.5 -342t-335.5 -127q-17 213 -15.5 368.5zM151 351.5q-1 -141.5 13 -328.5q438 27 438 682v188 q-181 -50 -280 -122.5t-134.5 -175t-36.5 -244z" />
<glyph unicode="&#xe4;" horiz-adv-x="841" d="M113.5 360.5q1.5 155.5 46 265.5t156 184.5t315.5 125.5v-905h129v-31h-162v276q0 12 2.5 87.5t1.5 97.5q-5 -208 -137.5 -342t-335.5 -127q-17 213 -15.5 368.5zM147 351.5q-1 -141.5 13 -328.5q438 27 438 682v188q-181 -50 -280 -122.5t-134.5 -175t-36.5 -244z M217 1159v234h33v-234h-33zM567 1159v234h33v-234h-33z" />
<glyph unicode="&#xe5;" horiz-adv-x="841" d="M113.5 360.5q1.5 155.5 46 265.5t156 184.5t315.5 125.5v-905h129v-31h-162v276q0 12 2.5 87.5t1.5 97.5q-5 -208 -137.5 -342t-335.5 -127q-17 213 -15.5 368.5zM147 351.5q-1 -141.5 13 -328.5q438 27 438 682v188q-181 -50 -280 -122.5t-134.5 -175t-36.5 -244z M272 1276q0 58 36.5 96.5t92.5 38.5q57 0 95.5 -39t38.5 -96t-38.5 -95t-95.5 -38t-93 38t-36 95zM303 1276q0 -46 26.5 -74t71.5 -28q44 0 73.5 31t29.5 71q0 46 -28.5 75t-74.5 29q-45 0 -71.5 -29t-26.5 -75z" />
<glyph unicode="&#xe6;" horiz-adv-x="1220" d="M103.5 181q-3.5 89 9 155t37 120.5t59.5 89t78 61t91 36.5t99 15.5t103 -1.5q-2 67 -16 115t-34.5 76t-54.5 40.5t-65.5 14.5t-78 -8.5t-82 -22t-87.5 -30.5l-12 30q90 36 161 51t119.5 12t83 -25t53.5 -51.5t29.5 -76t12.5 -89.5t1 -101q19 127 143.5 224.5t340.5 119.5 q45 -281 -84 -438t-408 -148q0 -129 25 -325q188 3 285.5 47t179.5 161l26 -18q-94 -134 -205.5 -177.5t-318.5 -43.5q-14 121 -21 233l5 95q-33 -156 -156.5 -245t-294.5 -89q-20 104 -23.5 193zM154 18q235 23 337.5 177.5t90.5 431.5q-267 22 -375.5 -134t-52.5 -475z M604 381q87 -3 160 11t137 51.5t105 96t59 151.5t4 212q-77 -13 -133 -29t-121.5 -53.5t-107.5 -90t-71.5 -142t-31.5 -207.5z" />
<glyph unicode="&#xe7;" horiz-adv-x="727" d="M112 474q21 191 138.5 300t374.5 166v-242h-33v201q-174 -42 -273.5 -114t-138.5 -177.5t-41 -251t19 -333.5q173 -2 269 53t167 209l29 -11q-29 -64 -60.5 -111t-69 -78t-74 -50.5t-87 -29t-96 -12.5t-111.5 -3q-34 293 -13 484zM154 -412q84 11 137 36.5t75 62.5t28 86 t-3 108q25 0 35 10q23 -161 -39 -236t-229 -89z" />
<glyph unicode="&#xe8;" horiz-adv-x="765" d="M114 349q1 271 119 408q127 147 406 179q46 -283 -83.5 -439t-405.5 -147q0 -170 22 -325q185 3 284 46t181 162l27 -18q-90 -131 -201.5 -176t-323.5 -45q-25 257 -25 355zM150 383q243 -9 369.5 120t94.5 400q-130 -18 -221.5 -63t-143 -114.5t-74.5 -152.5t-25 -190z M242 1274l16 39l315 -137l-12 -29z" />
<glyph unicode="&#xe9;" horiz-adv-x="765" d="M114 349q1 271 119 408q127 147 406 179q46 -283 -83.5 -439t-405.5 -147q0 -170 22 -325q185 3 284 46t181 162l27 -18q-90 -131 -201.5 -176t-323.5 -45q-25 257 -25 355zM150 383q243 -9 369.5 120t94.5 400q-130 -18 -221.5 -63t-143 -114.5t-74.5 -152.5t-25 -190z M248 1176l317 135l15 -41l-318 -125z" />
<glyph unicode="&#xea;" horiz-adv-x="765" d="M114 349q1 271 119 408q127 147 406 179q46 -283 -83.5 -439t-405.5 -147q0 -170 22 -325q185 3 284 46t181 162l27 -18q-90 -131 -201.5 -176t-323.5 -45q-25 257 -25 355zM150 383q243 -9 369.5 120t94.5 400q-130 -18 -221.5 -63t-143 -114.5t-74.5 -152.5t-25 -190z M178 1174l242 227l239 -227l-24 -23l-215 201l-215 -201z" />
<glyph unicode="&#xeb;" horiz-adv-x="765" d="M114 349q1 271 119 408q127 147 406 179q46 -283 -83.5 -439t-405.5 -147q0 -170 22 -325q185 3 284 46t181 162l27 -18q-90 -131 -201.5 -176t-323.5 -45q-25 257 -25 355zM150 383q243 -9 369.5 120t94.5 400q-130 -18 -221.5 -63t-143 -114.5t-74.5 -152.5t-25 -190z M229 1159v234h33v-234h-33zM580 1159v234h32v-234h-32z" />
<glyph unicode="&#xec;" horiz-adv-x="450" d="M45 1276l16 39l316 -137l-12 -29zM92 897v33h174v-899h103v-31h-240v31h104v866h-141z" />
<glyph unicode="&#xed;" horiz-adv-x="450" d="M92 897v33h174v-899h103v-31h-240v31h104v866h-141zM100 1188l318 135l14 -41l-317 -125z" />
<glyph unicode="&#xee;" horiz-adv-x="450" d="M-16 1171l241 228l240 -228l-25 -22l-215 201l-215 -201zM92 897v33h174v-899h103v-31h-240v31h104v866h-141z" />
<glyph unicode="&#xef;" horiz-adv-x="450" d="M20 1161v234h33v-234h-33zM92 897v33h174v-899h103v-31h-240v31h104v866h-141zM371 1161v234h32v-234h-32z" />
<glyph unicode="&#xf0;" horiz-adv-x="561" d="M0 1212q1 2 11.5 18t15.5 23t17 22t22 22.5t24 17t29.5 14t32.5 4.5q42 0 86 -27t84.5 -54t74.5 -27q14 0 27.5 3.5t23.5 7.5t21.5 13t18 14.5t16.5 17t13 15.5t11 16l9 11l24 -12q-68 -117 -164 -117q-31 0 -65.5 17t-59.5 37.5t-58 37.5t-62 17q-25 0 -45.5 -11.5 t-31 -23.5t-27.5 -36t-23 -32z" />
<glyph unicode="&#xf1;" horiz-adv-x="935" d="M92 899v31h178v-150q-4 -151 -6 -217q32 184 155 279.5t333 95.5v-907h102v-31h-238v31h103v872q-210 0 -329.5 -133t-119.5 -389v-350h103v-31h-242v31h107v868h-146zM209 1169q2 3 11.5 18t15.5 22.5t17 22t21.5 23t24 17.5t29 13.5t32.5 4.5q42 0 86.5 -27t85 -54 t74.5 -27q14 0 27 3.5t23.5 8t21.5 12.5t18 14.5t16.5 17t13 15.5t11 15.5t8.5 11.5l25 -12q-68 -117 -164 -117q-31 0 -65.5 17t-60 37.5t-58.5 37.5t-62 17q-25 0 -45.5 -11.5t-31 -23.5t-27.5 -36t-23 -32z" />
<glyph unicode="&#xf2;" horiz-adv-x="768" d="M82 334q0 134 52 258.5t127.5 204.5t154.5 108q-88 -18 -189 6l9 27q65 -10 116.5 -11t79.5 3.5t74.5 13t83.5 12.5q34 -67 55 -183t21 -230q0 -142 -28 -253.5t-76 -178t-107.5 -100.5t-126.5 -34q-47 0 -88.5 19t-78 58.5t-58 111.5t-21.5 168zM115 326 q0 -157 61.5 -237.5t151.5 -80.5q130 0 217.5 137.5t87.5 397.5q0 220 -66 381q-103 -13 -190 -70.5t-143.5 -141.5t-87.5 -184.5t-31 -201.5zM211 1276l16 39l316 -137l-13 -29z" />
<glyph unicode="&#xf3;" horiz-adv-x="768" d="M82 334q0 134 52 258.5t127.5 204.5t154.5 108q-88 -18 -189 6l9 27q65 -10 116.5 -11t79.5 3.5t74.5 13t83.5 12.5q34 -67 55 -183t21 -230q0 -142 -28 -253.5t-76 -178t-107.5 -100.5t-126.5 -34q-47 0 -88.5 19t-78 58.5t-58 111.5t-21.5 168zM115 326 q0 -157 61.5 -237.5t151.5 -80.5q130 0 217.5 137.5t87.5 397.5q0 220 -66 381q-103 -13 -190 -70.5t-143.5 -141.5t-87.5 -184.5t-31 -201.5zM305 1176l318 135l14 -41l-318 -125z" />
<glyph unicode="&#xf4;" horiz-adv-x="768" d="M82 334q0 134 52 258.5t127.5 204.5t154.5 108q-88 -18 -189 6l9 27q65 -10 116.5 -11t79.5 3.5t74.5 13t83.5 12.5q34 -67 55 -183t21 -230q0 -142 -28 -253.5t-76 -178t-107.5 -100.5t-126.5 -34q-47 0 -88.5 19t-78 58.5t-58 111.5t-21.5 168zM115 326 q0 -157 61.5 -237.5t151.5 -80.5q130 0 217.5 137.5t87.5 397.5q0 220 -66 381q-103 -13 -190 -70.5t-143.5 -141.5t-87.5 -184.5t-31 -201.5zM166 1171l242 228l239 -228l-24 -22l-215 201l-215 -201z" />
<glyph unicode="&#xf5;" horiz-adv-x="763" d="M82 334q0 134 52 258.5t127.5 204.5t154.5 108q-88 -18 -189 6l9 27q65 -10 116.5 -11t79.5 3.5t74.5 13t83.5 12.5q34 -67 55 -183t21 -230q0 -142 -28 -253.5t-76 -178t-107.5 -100.5t-126.5 -34q-47 0 -88.5 19t-78 58.5t-58 111.5t-21.5 168zM115 326 q0 -157 61.5 -237.5t151.5 -80.5q130 0 217.5 137.5t87.5 397.5q0 220 -66 381q-103 -13 -190 -70.5t-143.5 -141.5t-87.5 -184.5t-31 -201.5zM152 1212q2 3 11.5 18t15.5 22.5t17 22t21.5 23t24 17.5t29 13.5t32.5 4.5q42 0 86.5 -27t85 -54t74.5 -27q14 0 27 3.5t23.5 8 t21.5 12.5t18 14.5t16.5 17t13 15.5t11 15.5t8.5 11.5l25 -12q-68 -117 -164 -117q-31 0 -65.5 17t-60 37.5t-58.5 37.5t-62 17q-25 0 -45.5 -11.5t-31 -23.5t-27.5 -36t-23 -32z" />
<glyph unicode="&#xf6;" horiz-adv-x="768" d="M82 334q0 134 52 258.5t127.5 204.5t154.5 108q-88 -18 -189 6l9 27q65 -10 116.5 -11t79.5 3.5t74.5 13t83.5 12.5q34 -67 55 -183t21 -230q0 -142 -28 -253.5t-76 -178t-107.5 -100.5t-126.5 -34q-47 0 -88.5 19t-78 58.5t-58 111.5t-21.5 168zM115 326 q0 -157 61.5 -237.5t151.5 -80.5q130 0 217.5 137.5t87.5 397.5q0 220 -66 381q-103 -13 -190 -70.5t-143.5 -141.5t-87.5 -184.5t-31 -201.5zM209 1159v234h33v-234h-33zM559 1159v234h33v-234h-33z" />
<glyph unicode="&#xf7;" horiz-adv-x="733" d="M51 543v32h631v-32h-631zM352 184v209h35v-209h-35zM352 741v209h35v-209h-35z" />
<glyph unicode="&#xf8;" horiz-adv-x="749" d="M84 365q10 184 99.5 333.5t205.5 206.5q-109 -11 -164 2l2 31q128 -21 228 0q41 8 92 14l63 168h37l-65 -168q61 -178 61 -407q0 -141 -30 -253.5t-78.5 -179.5t-105.5 -101.5t-116 -33.5q-46 0 -90 23l-73 -195h-39l82 215q-57 45 -87.5 133.5t-21.5 211.5zM117 356 q-6 -105 18 -182.5t70 -120.5l330 871q-113 -11 -208.5 -100t-149 -214t-60.5 -254zM233 31q41 -23 80 -23q42 -1 83.5 19t80 63.5t68 105.5t47.5 152.5t18 196.5q0 206 -45 360z" />
<glyph unicode="&#xf9;" horiz-adv-x="972" d="M82 899v31h172v-903q222 1 335 138.5t113 393.5v340h-102v31h242v-31h-107v-868h146v-31h-179l3 229q0 15 4 76q4 69 2 69q-1 1 -2 -7q-17 -88 -52.5 -155t-81 -107.5t-106 -66.5t-119.5 -35.5t-129 -10.5v907h-139zM293 1274l16 39l316 -137l-13 -29z" />
<glyph unicode="&#xfa;" horiz-adv-x="972" d="M82 899v31h172v-903q222 1 335 138.5t113 393.5v340h-102v31h242v-31h-107v-868h146v-31h-179l3 229q0 15 4 76q4 69 2 69q-1 1 -2 -7q-17 -88 -52.5 -155t-81 -107.5t-106 -66.5t-119.5 -35.5t-129 -10.5v907h-139zM346 1174l318 135l14 -41l-318 -125z" />
<glyph unicode="&#xfb;" horiz-adv-x="972" d="M82 899v31h172v-903q222 1 335 138.5t113 393.5v340h-102v31h242v-31h-107v-868h146v-31h-179l3 229q0 15 4 76q4 69 2 69q-1 1 -2 -7q-17 -88 -52.5 -155t-81 -107.5t-106 -66.5t-119.5 -35.5t-129 -10.5v907h-139zM242 1174l241 227l240 -227l-25 -23l-215 201 l-215 -201z" />
<glyph unicode="&#xfc;" horiz-adv-x="972" d="M82 899v31h172v-903q222 1 335 138.5t113 393.5v340h-102v31h242v-31h-107v-868h146v-31h-179l3 229q0 15 4 76q4 69 2 69q-1 1 -2 -7q-17 -88 -52.5 -155t-81 -107.5t-106 -66.5t-119.5 -35.5t-129 -10.5v907h-139zM289 1159v234h33v-234h-33zM639 1159v234h33v-234h-33 z" />
<glyph unicode="&#xfd;" horiz-adv-x="921" d="M82 899v31h174v-905q86 1 155.5 22.5t115 54t79.5 81.5t52 95t28.5 105.5t13 103t2.5 95.5v317h-98v31h236v-31h-105v-760q0 -94 -19.5 -173t-51.5 -133.5t-77 -96.5t-91 -67t-97.5 -41t-93 -22t-82.5 -7v159h33v-127q34 3 67 8.5t79 21t85.5 38t80.5 62t69.5 89.5 t46.5 124.5t18 164.5q0 58 1.5 111.5t1.5 103.5q-59 -362 -482 -362v907h-141zM313 1176l318 135l14 -41l-317 -125z" />
<glyph unicode="&#xfe;" horiz-adv-x="561" d="M0 1212q1 2 11.5 18t15.5 23t17 22t22 22.5t24 17t29.5 14t32.5 4.5q42 0 86 -27t84.5 -54t74.5 -27q14 0 27.5 3.5t23.5 7.5t21.5 13t18 14.5t16.5 17t13 15.5t11 16l9 11l24 -12q-68 -117 -164 -117q-31 0 -65.5 17t-59.5 37.5t-58 37.5t-62 17q-25 0 -45.5 -11.5 t-31 -23.5t-27.5 -36t-23 -32z" />
<glyph unicode="&#xff;" horiz-adv-x="921" d="M82 899v31h174v-905q86 1 155.5 22.5t115 54t79.5 81.5t52 95t28.5 105.5t13 103t2.5 95.5v317h-98v31h236v-31h-105v-760q0 -94 -19.5 -173t-51.5 -133.5t-77 -96.5t-91 -67t-97.5 -41t-93 -22t-82.5 -7v159h33v-127q34 3 67 8.5t79 21t85.5 38t80.5 62t69.5 89.5 t46.5 124.5t18 164.5q0 58 1.5 111.5t1.5 103.5q-59 -362 -482 -362v907h-141zM287 1161v234h32v-234h-32zM637 1161v234h33v-234h-33z" />
<glyph unicode="&#x152;" horiz-adv-x="1738" d="M82 727q0 246 69 434.5t185.5 287.5t261.5 99q60 0 115 -18h934v-189h-37v154l-832 2q118 -54 200 -230t101 -399h455v-34h-453q8 -69 4 -145.5t-14.5 -151t-36 -148.5t-61 -138t-90.5 -120.5t-123 -95.5h850v155h37v-190h-971q-59 -16 -115 -16q-142 0 -251.5 96 t-168.5 264.5t-59 382.5zM119 727q0 -205 53.5 -366t154.5 -252t234 -91q138 0 249.5 90.5t175 253t63.5 365.5q0 225 -54 402.5t-157 280.5t-240 103q-207 0 -343 -215t-136 -571z" />
<glyph unicode="&#x153;" horiz-adv-x="1277" d="M82 334q0 101 30.5 197t79 167t107 121.5t117.5 71.5q-88 -18 -189 6q1 4 4.5 13.5t4.5 13.5q65 -10 116.5 -11t79.5 3.5t74.5 13t83.5 12.5q31 -62 52 -154t22 -188q39 134 158 222.5t329 113.5q46 -283 -83.5 -439t-405.5 -147q0 -170 22 -325q185 3 284 46t181 162 q4 -3 13.5 -9t13.5 -9q-90 -131 -201.5 -176t-323.5 -45q-2 17 -6.5 66t-7 76t-4 66.5t-0.5 69.5q-41 -148 -123.5 -221.5t-181.5 -73.5q-47 0 -88.5 19t-78 58.5t-58 111.5t-21.5 168zM115 326q0 -157 61.5 -237.5t151.5 -80.5q130 0 217.5 137.5t87.5 397.5q0 205 -66 366 q-103 -13 -190 -68t-143.5 -136t-87.5 -179.5t-31 -199.5zM662 381q243 -11 370.5 122t93.5 400q-130 -18 -221.5 -63t-143 -115t-74.5 -153.5t-25 -190.5z" />
<glyph unicode="&#x178;" horiz-adv-x="1138" d="M20 1495v35h349v-35h-156q5 -239 101 -481t255 -404q156 159 254 402t101 483h-152v35h346v-35h-157q-3 -250 -107 -500.5t-268 -414.5v-545h153v-35h-342v35h154v545q-163 163 -267 413.5t-108 501.5h-156zM377 1649v233h33v-233h-33zM727 1649v233h33v-233h-33z" />
<glyph unicode="&#x2c6;" horiz-adv-x="481" d="M0 1249l242 228l239 -228l-24 -22l-215 200l-215 -200z" />
<glyph unicode="&#x2dc;" horiz-adv-x="561" d="M0 1212q1 2 11.5 18t15.5 23t17 22t22 22.5t24 17t29.5 14t32.5 4.5q42 0 86 -27t84.5 -54t74.5 -27q14 0 27.5 3.5t23.5 7.5t21.5 13t18 14.5t16.5 17t13 15.5t11 16l9 11l24 -12q-68 -117 -164 -117q-31 0 -65.5 17t-59.5 37.5t-58 37.5t-62 17q-25 0 -45.5 -11.5 t-31 -23.5t-27.5 -36t-23 -32z" />
<glyph unicode="&#x2000;" horiz-adv-x="944" />
<glyph unicode="&#x2001;" horiz-adv-x="1888" />
<glyph unicode="&#x2002;" horiz-adv-x="944" />
<glyph unicode="&#x2003;" horiz-adv-x="1888" />
<glyph unicode="&#x2004;" horiz-adv-x="629" />
<glyph unicode="&#x2005;" horiz-adv-x="472" />
<glyph unicode="&#x2006;" horiz-adv-x="314" />
<glyph unicode="&#x2007;" horiz-adv-x="314" />
<glyph unicode="&#x2008;" horiz-adv-x="236" />
<glyph unicode="&#x2009;" horiz-adv-x="377" />
<glyph unicode="&#x200a;" horiz-adv-x="104" />
<glyph unicode="&#x2010;" horiz-adv-x="782" d="M92 584v30h598v-30h-598z" />
<glyph unicode="&#x2011;" horiz-adv-x="782" d="M92 584v30h598v-30h-598z" />
<glyph unicode="&#x2012;" horiz-adv-x="782" d="M92 584v30h598v-30h-598z" />
<glyph unicode="&#x2013;" horiz-adv-x="921" d="M0 582v32h922v-32h-922z" />
<glyph unicode="&#x2014;" horiz-adv-x="2048" d="M195 582v32h1658v-32h-1658z" />
<glyph unicode="&#x2018;" horiz-adv-x="296" d="M113 1042q-10 164 0 301t55 279h33q-42 -140 -51.5 -257t-4.5 -323h-32z" />
<glyph unicode="&#x2019;" horiz-adv-x="296" d="M96 1042q42 140 51.5 257t4.5 323h32q10 -164 0 -301t-55 -279h-33z" />
<glyph unicode="&#x201a;" horiz-adv-x="296" d="M102 -309q42 140 51.5 256.5t4.5 322.5h32q10 -164 0 -300.5t-55 -278.5h-33z" />
<glyph unicode="&#x201c;" horiz-adv-x="462" d="M117 1042q-21 364 55 580h35q-76 -227 -55 -580h-35zM279 1042q-21 364 55 580h35q-79 -229 -56 -580h-34z" />
<glyph unicode="&#x201d;" horiz-adv-x="462" d="M94 1042q79 229 56 580h34q21 -364 -55 -580h-35zM256 1042q76 227 55 580h35q21 -364 -55 -580h-35z" />
<glyph unicode="&#x201e;" horiz-adv-x="462" d="M102 -309q79 229 56 579h35q21 -361 -56 -579h-35zM264 -309q76 227 55 579h35q21 -363 -55 -579h-35z" />
<glyph unicode="&#x2022;" horiz-adv-x="456" d="M92 692q0 56 39.5 94.5t97.5 38.5q56 0 96 -39t40 -94q0 -57 -40 -97t-96 -40q-58 0 -97.5 40t-39.5 97z" />
<glyph unicode="&#x2026;" horiz-adv-x="1062" d="M164 0v270h35v-270h-35zM512 0v270h35v-270h-35zM864 0v270h35v-270h-35z" />
<glyph unicode="&#x202f;" horiz-adv-x="377" />
<glyph unicode="&#x2039;" horiz-adv-x="667" d="M41 553l512 502l22 -25l-491 -477l489 -475l-20 -25z" />
<glyph unicode="&#x203a;" horiz-adv-x="667" d="M92 1030l23 25l512 -502l-512 -500l-21 25l490 475z" />
<glyph unicode="&#x205f;" horiz-adv-x="472" />
<glyph unicode="&#x20ac;" horiz-adv-x="1146" d="M92 657l10 33h95q3 86 16 184h-121l10 33h115q45 259 173.5 413.5t314.5 154.5q60 0 114 -19.5t91 -49.5t60.5 -57.5t37.5 -52.5l-21 -34q-3 7 -10 19t-32.5 42.5t-55.5 53.5t-80.5 42t-106.5 19q-91 0 -167.5 -42t-130.5 -116.5t-90.5 -168t-57.5 -204.5h606l-14 -33 h-598q-14 -106 -19 -184h631l-14 -33h-617q0 -145 23.5 -258.5t62 -185t92.5 -118t111.5 -65t122.5 -18.5q120 0 218 65t165 189l29 -14q-70 -130 -176 -202.5t-236 -72.5q-79 0 -145 23t-122.5 75t-95.5 130t-61 192.5t-22 259.5h-105z" />
<glyph unicode="&#x2122;" horiz-adv-x="1472" d="M72 1325v113h610v-111h-35v80h-250v-754h82v-30h-200v30h83v754h-256v-82h-34zM598 623v30h76l110 754h-73v31h135l162 -762l170 762h131v-31h-74l115 -754h71v-30h-184v30h76l-111 754l-180 -795h-31l-174 795l-108 -754h73v-30h-184z" />
<glyph unicode="&#x25fc;" horiz-adv-x="931" d="M0 0v932h932v-932h-932z" />
</font>
</defs>
</svg>
