<?xml version="1.0" standalone="no"?>
<!DOCTYPE svg PUBLIC "-//W3C//DTD SVG 1.1//EN" "http://www.w3.org/Graphics/SVG/1.1/DTD/svg11.dtd" >
<svg xmlns="http://www.w3.org/2000/svg">
<metadata></metadata>
<defs>
<font id="nautikbold" horiz-adv-x="1368" >
<font-face units-per-em="2048" ascent="1622" descent="-426" />
<missing-glyph horiz-adv-x="409" />
<glyph unicode="&#xfb01;" horiz-adv-x="960" d="M86 874v97h86v106q0 241 147 327t431 19l-21 -96q-244 49 -348.5 -13.5t-104.5 -244.5v-98h517v-877h88v-94h-281v94h90v780h-414v-780h86v-94h-270v94h80v780h-86z" />
<glyph unicode="&#xfb02;" horiz-adv-x="915" d="M86 874v97h86v106q-2 257 142 354.5t429 30.5v-1194q0 -176 138 -188l-7 -94q-107 3 -171 77.5t-64 204.5v1114q-198 25 -280.5 -54t-82.5 -261v-96h134v-97h-134v-780h86v-94h-270v94h80v780h-86z" />
<glyph horiz-adv-x="0" />
<glyph unicode="&#xd;" horiz-adv-x="2048" />
<glyph unicode=" "  horiz-adv-x="409" />
<glyph unicode="&#x09;" horiz-adv-x="409" />
<glyph unicode="&#xa0;" horiz-adv-x="409" />
<glyph unicode="!" horiz-adv-x="411" d="M205 0v262h104v-262h-104zM205 543v1069h104v-1069h-104z" />
<glyph unicode="&#x22;" horiz-adv-x="663" d="M143 989q-21 234 4 382t105 249l63 -57q-52 -115 -65.5 -231t-1.5 -343h-105zM408 989q-21 234 3.5 382t102.5 249l66 -57q-53 -114 -66.5 -230t-1.5 -344h-104z" />
<glyph unicode="#" horiz-adv-x="1085" d="M51 373l15 102h202l56 350h-209l14 101h209l57 372h107l-58 -372h252l58 372h106l-55 -372h231l-12 -101h-236l-53 -350h240l-12 -102h-244l-57 -373h-107l55 373h-250l-57 -373h-106l57 373h-203zM379 475h250l53 350h-250z" />
<glyph unicode="$" horiz-adv-x="1060" d="M102 -29v490h109v-156q18 -89 95 -150.5t177 -72.5v690q-47 16 -79 27.5t-74.5 31t-70.5 38.5t-58.5 47t-48.5 59t-29.5 73t-11.5 91q0 113 54.5 197t137.5 125t180 44v158h97v-164q115 -19 182 -117v121h110v-450h-110v118q-13 86 -62 142.5t-120 77.5v-545 q86 -26 152 -59t123.5 -83.5t88.5 -125.5t31 -170q0 -185 -107.5 -300t-287.5 -133v-186h-97v188q-164 9 -272 140v-146h-109zM221 1139q0 -54 20.5 -96t60.5 -72.5t81 -50t100 -39.5v522q-110 -3 -186 -73t-76 -191zM580 80q131 14 206.5 99t75.5 229q0 60 -18 109.5 t-44 82.5t-66.5 61.5t-74.5 44.5t-79 33v-659z" />
<glyph unicode="%" horiz-adv-x="1353" d="M72 1120q0 99 27 184.5t84 142t134 56.5q61 0 106.5 -32t70.5 -87t37 -119t12 -139q0 -67 -13.5 -126t-41 -108.5t-75 -78.5t-110.5 -29q-65 0 -111.5 28.5t-71.5 78.5t-36.5 106.5t-11.5 122.5zM156 1120q0 -114 35.5 -184t113.5 -70q79 0 116.5 70t37.5 188 q0 299 -146 299q-69 0 -113 -88.5t-44 -214.5zM375 0q498 1488 499 1491h101q-89 -267 -258 -767.5t-244 -723.5h-98zM805 328q0 96 27 180.5t84 140.5t133 56q63 0 108.5 -31.5t70 -86t35.5 -118t11 -137.5q0 -68 -13 -126.5t-40 -108.5t-75 -78.5t-112 -28.5t-110.5 28.5 t-71.5 78.5t-36 107t-11 124zM887 328q0 -75 13.5 -130.5t48.5 -91.5t89 -36q78 0 115 70.5t37 187.5q0 297 -143 297q-69 0 -114.5 -87t-45.5 -210z" />
<glyph unicode="&#x26;" horiz-adv-x="1193" d="M96.5 310.5q0.5 131.5 13.5 229t42 169.5q28 65 75 111.5t125 101.5q-21 31 -45 74.5t-52 123.5t-28 144q0 107 82.5 192.5t212.5 85.5q54 0 100 -16.5t77.5 -44.5t53.5 -63.5t32 -73.5t10 -76l-95 -49q0 103 -48.5 162t-131.5 59q-76 0 -131 -50.5t-55 -117.5 q0 -94 52.5 -193.5t240.5 -386.5q20 -31 31.5 -48t30 -45.5t34.5 -53.5l9 20q9 20 16 37.5t17.5 53t17.5 71t12.5 88t5.5 107.5h260v-103h-170q-3 -93 -36 -192.5t-71 -169.5q42 -60 65.5 -92.5t70.5 -91.5t80.5 -91.5t75 -59t73.5 -26.5v-104q-49 0 -100.5 24t-91.5 58 t-85 85t-73 89.5t-63 88.5q-9 13 -13 19q-92 -134 -197 -219v2q-188 -149 -428 -149q-2 189 -1.5 320.5zM199 317q0 -96 2 -221q64 8 136.5 40t131.5 81q104 83 193 225q-164 247 -252 392q-125 -66 -170 -189q-21 -64 -31 -148t-10 -180z" />
<glyph unicode="'" horiz-adv-x="415" d="M141 989q-18 237 4.5 376t104.5 255l63 -57q-54 -126 -65 -231t-2 -343h-105z" />
<glyph unicode="(" horiz-adv-x="309" d="M55 633q0 448 131 966l101 23q-52 -195 -93.5 -465t-41.5 -528q1 -241 43.5 -518t91.5 -488l-101 17q-49 201 -90 470t-41 523z" />
<glyph unicode=")" horiz-adv-x="309" d="M18 -377q52 197 94 466t42 527q-1 241 -43.5 517t-92.5 489l101 -16q49 -201 90 -470.5t41 -523.5q0 -448 -131 -966z" />
<glyph unicode="*" horiz-adv-x="735" d="M63 1321l25 78l242 -82l-6 256h86l-7 -256l242 82l27 -78l-246 -76l154 -205l-68 -49l-145 207l-150 -207l-65 51l151 201z" />
<glyph unicode="+" horiz-adv-x="821" d="M63 539v96h295v346h105v-346h295v-96h-295v-349h-105v349h-295z" />
<glyph unicode="," horiz-adv-x="372" d="M84 -309q54 127 65.5 232t2.5 341h104q18 -237 -4.5 -376t-104.5 -255z" />
<glyph unicode="-" horiz-adv-x="784" d="M80 512v100h625v-100h-625z" />
<glyph unicode="." horiz-adv-x="352" d="M158 0v266h110v-266h-110z" />
<glyph unicode="/" horiz-adv-x="776" d="M10 -268l643 1843h113l-643 -1843h-113z" />
<glyph unicode="0" horiz-adv-x="864" d="M74 508q0 147 46 280t134 219.5t197 86.5q75 0 135 -32.5t98.5 -87t64 -130t36 -156t10.5 -170.5q0 -104 -20 -195.5t-61 -167.5t-113 -120.5t-167 -44.5q-81 0 -145 30t-103.5 79t-65.5 117.5t-36 139.5t-10 152zM178 508q0 -122 26 -213.5t85 -148t145 -56.5 q83 0 142.5 59.5t87.5 153t28 209.5q0 139 -24.5 244.5t-81 171t-140.5 65.5q-74 0 -136 -69t-97 -180.5t-35 -235.5z" />
<glyph unicode="1" horiz-adv-x="630" d="M47 956l344 138v-996h187v-98h-486v98h197v860l-207 -86z" />
<glyph unicode="2" horiz-adv-x="739" d="M55 0q43 207 105.5 323.5t210.5 264.5q166 170 166 405q-65 1 -124 -9t-119 -35t-95 -78.5t-33 -129.5l-82 23q-1 63 17.5 113.5t49 84.5t77.5 59t93.5 38.5t107 22t108.5 10.5t106 2q2 -123 -17.5 -220.5t-53.5 -164t-76 -121.5t-89 -105t-89 -101t-79 -124t-57 -160 h383v158h103v-256h-613z" />
<glyph unicode="3" horiz-adv-x="780" d="M29 -201q138 56 244 132.5t166.5 156.5t91 157t30.5 148q0 72 -36.5 114t-91.5 49.5t-116 -6.5t-114 -46l-39 86q285 118 397 387h-387v-127h-102v225h628q-21 -85 -58.5 -166t-100.5 -157.5t-138 -114.5q125 14 194 -57.5t69 -178.5q0 -89 -37 -184t-108.5 -188.5 t-189.5 -178.5t-268 -143z" />
<glyph unicode="4" horiz-adv-x="825" d="M49 100q14 118 23.5 184t31.5 175t46.5 175.5t67.5 151.5t97 138t132 100t174 70v-895h135v-99h-135v-276h90v-98h-287v98h94v276h-469zM168 199h350v743q-146 -62 -227 -231.5t-123 -511.5z" />
<glyph unicode="5" horiz-adv-x="757" d="M49 -201q242 126 375 284t133 327q0 92 -44.5 140t-115.5 48q-34 0 -68 -6.5t-70.5 -22.5t-54 -24t-55 -30.5t-38.5 -22.5v583h546v-225h-104v127h-338v-342q35 22 92.5 41.5t108.5 19.5q121 0 180 -78.5t59 -203.5q0 -402 -563 -703z" />
<glyph unicode="6" horiz-adv-x="819" d="M80 401q0 235 57.5 443.5t184.5 335.5q169 169 378 178l13 -98q-178 -12 -318 -148q-176 -170 -215 -522q51 123 185.5 192.5t281.5 71.5q75 -250 72 -434q0 -193 -79.5 -309.5t-236.5 -116.5q-159 0 -241 110t-82 297zM184 358q0 -122 58.5 -194t160.5 -72 q89 0 151 77.5t62 238.5q0 136 -47 333q-156 -11 -270.5 -119.5t-114.5 -263.5z" />
<glyph unicode="7" horiz-adv-x="874" d="M37 852v225h780l35 -116q-87 -60 -133.5 -96t-107.5 -95.5t-91 -117t-65 -146.5t-50 -199t-25 -259.5t-9 -342.5h-105q0 305 23 511t80 351.5t135 235.5t205 174h-570v-125h-102z" />
<glyph unicode="8" horiz-adv-x="858" d="M76 338q0 215 250 457q-156 134 -156 274q0 114 87 200.5t218 86.5q117 0 193.5 -79.5t76.5 -201.5q0 -54 -15.5 -105t-46.5 -98.5t-55 -77.5t-63 -73q63 -57 105.5 -108.5t74 -126t31.5 -154.5q0 -154 -95.5 -253t-256.5 -99q-166 0 -257 102t-91 256zM180 348 q0 -124 71.5 -198t174.5 -74q97 0 172.5 66.5t75.5 185.5q0 219 -279 409q-100 -93 -157.5 -196t-57.5 -193zM274 1069q0 -44 17 -84t52 -77.5t68 -65t87 -66.5q69 72 106 140.5t37 146.5q0 86 -49 140t-121 54q-82 0 -139.5 -56.5t-57.5 -131.5z" />
<glyph unicode="9" horiz-adv-x="813" d="M80 672q1 88 18 161t54 134t102 95t154 34q84 0 146.5 -33t98 -91t52 -128t16.5 -152q0 -151 -21 -288.5t-76.5 -273t-142.5 -222.5q-172 -172 -379 -178l-14 96q86 3 169 42t151 107q83 85 138.5 221t74.5 302q-53 -124 -182.5 -193t-276.5 -69q-82 204 -82 436z M182 680q0 -205 54 -338q98 7 185 58.5t142 139t55 189.5q0 121 -54.5 194.5t-155.5 73.5q-103 0 -164.5 -83t-61.5 -234z" />
<glyph unicode=":" horiz-adv-x="346" d="M158 0v264h104v-264h-104zM158 707v264h104v-264h-104z" />
<glyph unicode=";" horiz-adv-x="348" d="M84 -309q54 127 65.5 231.5t2.5 341.5h104q18 -237 -4.5 -376t-104.5 -255zM147 705v266h105v-266h-105z" />
<glyph unicode="&#x3c;" horiz-adv-x="833" d="M31 553l651 465l66 -98l-541 -365l543 -373l-68 -94z" />
<glyph unicode="=" horiz-adv-x="878" d="M76 371v96h727v-96h-727zM76 639v96h727v-96h-727z" />
<glyph unicode="&#x3e;" horiz-adv-x="833" d="M84 182l543 373l-541 365l66 98l651 -465l-651 -465z" />
<glyph unicode="?" horiz-adv-x="770" d="M154 1278v262q54 -10 118 -28.5t139 -51.5t135 -73.5t100 -97t40 -118.5q0 -52 -19 -96t-49.5 -75t-67 -58.5t-73 -52t-67 -50t-49.5 -59t-19 -71.5q0 -88 80 -136l-43 -86q-55 24 -96 78.5t-41 136.5q0 52 19 97.5t49.5 77.5t67.5 61t74 54.5t67.5 50.5t49.5 56t19 66 q0 54 -58.5 108t-133 88t-140.5 46v-129h-102zM311 0v266h105v-266h-105z" />
<glyph unicode="@" horiz-adv-x="1409" d="M76 287q0 130 31.5 261.5t98 254.5t159 218t226 152.5t288.5 57.5q104 0 184.5 -29.5t130.5 -78t82 -117.5t44.5 -141.5t12.5 -157.5q0 -117 -30 -228t-90.5 -211.5t-163 -179t-236.5 -117.5l37 342q-56 -154 -177 -237.5t-280 -83.5q-2 137 1.5 227t16 182t40.5 161 t73 126q132 166 469 256l-73 -825q79 32 141 100.5t98 153.5t54 172.5t18 171.5q0 207 -83.5 313.5t-268.5 106.5q-137 0 -254 -52t-197 -137.5t-137.5 -197t-84 -230t-26.5 -235.5q0 -103 20 -190.5t59.5 -156.5t105.5 -108t153 -39q135 0 258 59l41 -90q-134 -63 -301 -63 q-204 0 -322 154.5t-118 435.5zM492 98q119 19 200 103q86 92 126 224t59 382q-189 -68 -269 -172q-66 -85 -89.5 -207t-26.5 -330z" />
<glyph unicode="A" d="M10 0v102h150l415 1301h-153v102h342l444 -1403h150v-102h-414v102h152l-150 465h-522l-150 -465h148v-102h-412zM453 668h460l-229 735z" />
<glyph unicode="B" horiz-adv-x="1136" d="M117 0v102h155v1272h-155v103h407q218 0 334.5 -100.5t116.5 -270.5q0 -103 -59.5 -194t-165.5 -117q129 -23 217 -132t88 -241q0 -197 -123 -309.5t-371 -112.5h-444zM383 102h178q204 0 293.5 83t89.5 237q0 134 -96.5 224.5t-259.5 90.5h-205v-635zM383 840h207 q136 0 205 73t69 193q0 125 -82.5 196.5t-257.5 71.5h-141v-534z" />
<glyph unicode="C" horiz-adv-x="1034" d="M72 647q0 136 17 253t46.5 202.5t70 154t86.5 112.5t97.5 73.5t100.5 42t98 12.5q87 0 150 -36.5t89 -108.5l-2 98v63h107v-446h-111v41q0 138 -62 212.5t-173 74.5q-170 1 -288 -207q-117 -206 -116 -531v-6q0 -117 19.5 -217.5t59.5 -181.5t108 -127.5t157 -46.5 q114 0 194.5 70t141.5 190l92 -47q-35 -69 -74.5 -122.5t-91.5 -99t-118.5 -70t-143.5 -24.5q-66 0 -126.5 18t-121.5 66t-105.5 121t-72.5 193.5t-28 273.5z" />
<glyph unicode="D" horiz-adv-x="1212" d="M117 0v102h153v1272h-153v103h395q161 0 282 -52.5t195.5 -151.5t111 -234t36.5 -306q0 -82 -6.5 -154t-23.5 -148t-44.5 -138t-72.5 -117.5t-103.5 -93.5t-141.5 -60t-184 -22h-444zM381 102h180q111 0 194 32t134.5 86.5t82.5 137.5t42.5 172t11.5 203 q0 319 -126.5 480t-387.5 161h-131v-1272z" />
<glyph unicode="E" horiz-adv-x="1204" d="M117 1374v103h977v-258h-111v155h-596v-506h604v-102h-604v-664h596v152h111v-254h-975v102h157v1272h-159z" />
<glyph unicode="F" horiz-adv-x="1138" d="M117 0v102h164v1272h-158v103h967v-260h-111v157h-588v-504h623v-102h-623v-666h162v-102h-436z" />
<glyph unicode="G" horiz-adv-x="1081" d="M68 682q0 162 34 308t97.5 259.5t162 180.5t218.5 67q95 0 157 -40t90 -107q0 4 -3 59t-3 102h107v-446h-111v92q0 35 -14 74.5t-41 77t-75.5 62t-108.5 24.5q-121 0 -213.5 -105t-139.5 -271.5t-47 -361.5q0 -268 86 -423.5t244 -155.5q43 0 86.5 12.5t89 43.5t80.5 76 t58.5 117t25.5 160l2 185h-234v102h342v-790h-110l2 100q0 22 3 71t3 54q-21 -74 -80 -129t-126 -80t-132 -25q-450 0 -450 707z" />
<glyph unicode="H" horiz-adv-x="1409" d="M117 0v102h157v1272h-157v103h407v-103h-139v-506h637v506h-137v103h407v-103h-159v-1272h159v-102h-407v102h137v664h-637v-664h139v-102h-407z" />
<glyph unicode="I" horiz-adv-x="659" d="M117 0v102h155v1272h-155v103h426v-103h-160v-1272h160v-102h-426z" />
<glyph unicode="J" horiz-adv-x="622" d="M0 -305q41 14 75 34t60 45.5t47 56t35.5 65t25 73.5t16.5 81t10 87t5 92t2 96v49.5v49.5v55v895h-157v103h422v-103h-154v-895q1 -51 1 -101.5t-1 -99.5q-3 -99 -9 -186t-28.5 -164.5t-59.5 -140t-101.5 -111t-153.5 -77.5z" />
<glyph unicode="K" horiz-adv-x="1239" d="M117 0v102h155v1272h-155v103h391v-103h-123v-557q187 0 207 -2l274 559h-110v103h358v-103h-129l-283 -581q91 -27 136 -109q13 -14 24.5 -30.5t21 -31.5t20.5 -39.5t19 -42t20.5 -52t20 -56.5t22 -68.5t23.5 -74.5t27.5 -89t30.5 -98h133v-102h-217q-16 52 -37 123 t-32 108t-26.5 88t-24.5 77t-21 61t-20.5 53.5t-19.5 41t-21.5 37.5t-22.5 29q-36 52 -94 74.5t-146 22.5h-133v-613h123v-102h-391z" />
<glyph unicode="L" horiz-adv-x="1058" d="M117 0v102h157v1272h-155v103h422v-103h-156v-1272h541v150h110v-252h-919z" />
<glyph unicode="M" horiz-adv-x="1671" d="M20 0v102h158l207 1272h-156v103h338l269 -1246l268 1246h340v-103h-160l209 -1272h158v-102h-404v102h133l-204 1276l-304 -1392h-86l-309 1392l-190 -1276h137v-102h-404z" />
<glyph unicode="N" horiz-adv-x="1439" d="M117 0v102h157v1272h-157v103h334l632 -1260l-6 154v1003h-157v103h419v-103h-155v-1386h-109l-698 1392l4 -129v-1149h158v-102h-422z" />
<glyph unicode="O" horiz-adv-x="1146" d="M76 719q0 355 145 576t367 221q148 0 258 -102.5t167.5 -282t57.5 -412.5q0 -349 -140 -541t-368 -192q-220 0 -353.5 200.5t-133.5 532.5zM186 719q0 -160 32 -284.5t86.5 -198t120 -111t138.5 -37.5q62 0 118 21.5t108 69.5t89.5 120t60 179.5t22.5 240.5 q0 330 -107.5 512t-265.5 182q-76 0 -146.5 -44t-128 -127.5t-92.5 -219t-35 -303.5z" />
<glyph unicode="P" horiz-adv-x="1032" d="M117 0v102h159v1272h-159v103h397q229 -1 363 -117q131 -114 131 -323v-9q-7 -416 -621 -430v-496h158v-102h-428zM387 698q51 0 97.5 3.5t98.5 13.5t95.5 26t84.5 42t69 60q28 35 46 83q19 51 19 109q0 167 -98 253q-99 86 -285 86h-127v-676z" />
<glyph unicode="Q" horiz-adv-x="1155" d="M76 702q0 228 67 410.5t184.5 284.5t262.5 102q148 0 258 -103t167.5 -282.5t57.5 -411.5q0 -257 -78 -432.5t-215 -246.5q71 -162 260 -162v-103q-66 0 -123 16.5t-93 39t-68 56t-47 57.5t-31 55q-62 -15 -107 -15q-221 0 -358 201t-137 534zM186 702q0 -160 33.5 -285 t89 -198.5t122.5 -111t140 -37.5q62 0 117.5 21t106.5 69.5t87.5 120t58.5 179.5t22 242q0 168 -30.5 302.5t-82.5 219t-118.5 129t-141.5 44.5t-146.5 -46.5t-129.5 -131.5t-93 -220t-35 -297z" />
<glyph unicode="R" horiz-adv-x="1200" d="M117 0v102h157v1272h-157v103h268q97 0 145.5 -1t111.5 -7t99.5 -18t76 -33.5t73.5 -55.5q115 -118 115 -287q0 -128 -73.5 -226.5t-195.5 -121.5q60 -10 107 -57q65 -65 91 -178.5t56 -389.5h135v-102h-237q-3 30 -9 105t-10 111t-11.5 99t-15.5 99.5t-20.5 81t-29 74.5 t-37.5 51q-39 39 -90.5 51t-135.5 12h-145v-582h143v-102h-411zM385 782h207q151 0 227 75t76 214q0 133 -84 217q-58 59 -145 74q-72 12 -219 12h-62v-592z" />
<glyph unicode="S" horiz-adv-x="1062" d="M102 -16v479h109v-105q18 -138 105 -207t212 -69q154 0 244 86t90 242q0 76 -25.5 133t-69 93t-100 63t-119 47t-124.5 40t-118.5 47.5t-100 64t-69 95t-25.5 135.5q0 88 33.5 160t89.5 116.5t125 68.5t143 24q81 0 152.5 -38t111.5 -107l-2 71v58h110v-439h-110v82 q-14 140 -86.5 205.5t-175.5 65.5q-116 0 -198.5 -70.5t-82.5 -196.5q0 -60 26 -105t69.5 -73.5t100.5 -50.5t119.5 -41.5t125 -41t119.5 -55t100.5 -78t69.5 -114t26 -159.5q0 -198 -123.5 -314t-325.5 -116q-215 0 -321 161l4 -61v-96h-109z" />
<glyph unicode="T" horiz-adv-x="1155" d="M14 1219v258h1127v-258h-111v155h-397v-1272h158v-102h-426v102h157v1272h-397v-155h-111z" />
<glyph unicode="U" horiz-adv-x="1349" d="M82 1374v103h274v-1360q71 10 150.5 53.5t160 126.5t144.5 192t104.5 264t40.5 328v293h-141v103h410v-103h-158v-1272h166v-102h-277v602q-47 -180 -159.5 -319.5t-256.5 -212t-294 -72.5v1376h-164z" />
<glyph unicode="V" horiz-adv-x="1230" d="M94 1374v103h410v-103h-142v-1274q88 20 162 59t130 90t101 120.5t76 140.5t53.5 160t35.5 170t21 179t10.5 178.5t2.5 176.5h-143v103h399v-103h-145q3 -91 3 -189v-8q0 -94 -12 -193q-12 -103 -30 -204.5t-52.5 -199t-77.5 -184.5t-107 -161.5t-140.5 -130.5t-178 -90 t-218.5 -41v1401h-158z" />
<glyph unicode="W" horiz-adv-x="1730" d="M82 1374v103h416v-103h-146v-1296q90 28 162 82.5t123 124.5t88.5 168.5t60.5 201t37 237t19 261.5t6 289h110v-1364q76 19 140 63.5t110 93t84 135.5t62 146.5t43 173t27.5 167.5t16 179t8.5 158.5t4 149.5q1 20 1 30h-145v103h407v-103h-151q0 -103 -2.5 -194 t-12 -204.5t-25.5 -210t-43.5 -201t-65 -188.5t-92 -161.5t-122 -130t-158 -85t-196.5 -34.5l2 649q-25 -181 -104.5 -325.5t-210.5 -232.5t-293 -93v1411h-160z" />
<glyph unicode="X" horiz-adv-x="1210" d="M55 0v102h156q5 111 25.5 208.5t47.5 167.5t70 138t79 112t87 97q-76 63 -125 115.5t-89 118t-59.5 142.5t-21.5 173h-157v103h403v-103h-137q3 -157 65.5 -271t190.5 -216q55 51 89 85.5t73.5 83.5t62.5 93t40.5 102.5t21.5 122.5h-138v103h404v-103h-156 q-3 -55 -15 -105.5t-26.5 -90t-41.5 -82.5t-48 -71.5t-60 -69t-62.5 -63t-69.5 -65.5q64 -59 109 -114.5t90.5 -141t70.5 -203.5t29 -266h192v-102h-303q0 139 -15 252.5t-37.5 189t-59.5 141t-69.5 103.5t-78.5 82q-55 -59 -96.5 -117t-81.5 -138t-63.5 -184t-28.5 -227 h131v-102h-398z" />
<glyph unicode="Y" horiz-adv-x="1126" d="M20 1374v103h396v-103h-144q3 -200 83 -399.5t206 -319.5q129 118 208.5 313.5t80.5 405.5h-141v103h397v-103h-145q-1 -233 -98 -446t-249 -357v-469h158v-102h-422v102h156v469q-150 143 -245.5 356.5t-98.5 446.5h-142z" />
<glyph unicode="Z" horiz-adv-x="1081" d="M61 0l773 1374h-605v-178h-108v281h899l-770 -1375h627v174h110v-276h-926z" />
<glyph unicode="[" horiz-adv-x="364" d="M59 -401v1970h287v-103h-176v-1765h176v-102h-287z" />
<glyph unicode="\" horiz-adv-x="776" d="M10 1575h113l643 -1843h-113z" />
<glyph unicode="]" horiz-adv-x="364" d="M18 -299h177v1765h-177v103h287v-1970h-287v102z" />
<glyph unicode="^" horiz-adv-x="860" d="M61 850l310 627h121l307 -627l-115 -14l-254 546l-254 -546z" />
<glyph unicode="_" horiz-adv-x="954" d="M16 0h922v-102h-922v102z" />
<glyph unicode="`" horiz-adv-x="352" d="M0 1370l74 86l278 -190l-59 -70z" />
<glyph unicode="a" horiz-adv-x="854" d="M94 491q24 193 150 306t418 192v-895h112v-94h-217v180q0 27 3.5 70.5t6.5 76t2 38.5q-38 -160 -167 -266q-125 -103 -294 -103h-10q-15 164 -15 296q0 111 11 199zM186 356q-1 -24 0 -49q0 -87 9 -192q117 17 199.5 98.5t122.5 205.5t40 281v156q-109 -37 -178 -79.5 t-113 -101.5t-60 -136t-20 -183z" />
<glyph unicode="b" horiz-adv-x="811" d="M70 1413v94h266v-94h-82v-586q0 -84 -10 -209q27 136 146 237t331 126q10 -125 10 -235q0 -84 -6 -158q-13 -172 -67.5 -294t-178.5 -200.5t-329 -113.5v1433h-80zM246 96q106 29 178 74.5t115 109.5t65 150t26 194q2 51 2 108q0 63 -3 134q-191 -45 -287 -189.5 t-96 -404.5v-176z" />
<glyph unicode="c" horiz-adv-x="733" d="M80 380q2 170 48.5 291.5t171 199.5t341.5 114v-295h-102v172q-178 -41 -260.5 -135.5t-93.5 -250.5q-4 -54 -4 -116q0 -119 14 -268q146 5 225 46t139 157l86 -47q-71 -146 -186 -201t-355 -55q-25 200 -25 359q1 15 1 29z" />
<glyph unicode="d" horiz-adv-x="843" d="M86 375q2 159 43 273.5t142 192.5t284 134v436h-82v94h266v-94h-82v-1317h107v-94h-209v182q0 48 7 128.5t7 82.5q-26 -181 -158 -291q-126 -105 -295 -104h-16q-14 194 -14 341v36zM190 482q-7 -70 -8 -154q0 -102 11 -226q163 20 263 182q100 160 99 437v6v145 q-176 -46 -262.5 -141t-102.5 -249z" />
<glyph unicode="e" horiz-adv-x="780" d="M83 360q0 270 109 412q139 179 480 211q4 -55 4 -105q0 -528 -488 -534q0 -135 17 -252q155 3 242 42.5t155 141.5l88 -51q-95 -137 -219 -185t-365 -48q-23 259 -23 360v8zM190 434q379 6 379 417v17q-379 -64 -379 -428v-6z" />
<glyph unicode="f" horiz-adv-x="499" d="M90 877v94h86v258q0 142 74 214q73 70 196 70h7l6 -94q-178 -12 -178 -190v-258h92v-94h-92v-783h86v-94h-271v94h80v783h-86z" />
<glyph unicode="g" horiz-adv-x="782" d="M88 371q4 163 54 282t177 202t349 134v-893q0 -106 -33.5 -192.5t-89.5 -143t-130.5 -94t-154.5 -52.5q-71 -13 -144 -13h-20v209h107v-103q48 4 94.5 17.5t96 43t86.5 71.5t61 108.5t24 148.5q0 73 4 150t4 88q-16 -94 -63 -163t-114 -106t-138 -53q-68 -16 -143 -16h-9 q-19 177 -19 320q0 28 1 55zM196 468q-8 -68 -8 -152q0 -96 11 -212q368 63 368 537v213q-180 -54 -266.5 -146t-104.5 -240z" />
<glyph unicode="h" horiz-adv-x="888" d="M90 0v94h88v1317h-88v94h281v-94h-90v-514q0 -111 -13 -209q37 124 160 203t291 90v-887h90v-94h-266v94h73v774q-48 -8 -91.5 -25.5t-89.5 -52t-79 -83t-54 -123.5t-21 -168v-322h75v-94h-266z" />
<glyph unicode="i" horiz-adv-x="477" d="M86 877v94h225v-877h86v-94h-278v94h88v783h-121zM207 1174v264h104v-264h-104z" />
<glyph unicode="j" horiz-adv-x="464" d="M-31 -299q27 -1 55.5 9t58.5 35.5t53.5 64t38.5 101.5t15 142v824h-88v94h277v-94h-86v-824q0 -212 -91 -331t-222 -119zM190 1174v264h105v-264h-105z" />
<glyph unicode="k" horiz-adv-x="847" d="M80 0v94h100v1315h-88v94h281v-94h-90v-838q99 59 170 138.5t82 167.5h-72v94h270v-94h-92q-14 -84 -66.5 -155.5t-132.5 -141.5q127 -53 188.5 -168t76.5 -318h124v-94h-227q-2 104 -13 181.5t-35.5 149t-70 120.5t-112.5 75l-90 -51v-381h84v-94h-287z" />
<glyph unicode="l" horiz-adv-x="421" d="M55 1409v94h271v-94h-84v-1141q0 -176 141 -188l-16 -94q-106 5 -167 78.5t-61 203.5v1141h-84z" />
<glyph unicode="m" horiz-adv-x="1304" d="M86 877v94h225v-37q0 -46 -5 -134.5t-5 -99.5q35 138 143 206q104 66 265 65h14v-41q0 -35 -3 -82.5t-7 -94.5t-4 -51q81 269 409 269h21l-2 -877h88v-94h-273v94h82v783q-50 -5 -93 -21.5t-84.5 -51.5t-70 -86t-46 -130.5t-17.5 -179.5v-408h-100v877q-54 -6 -98 -22.5 t-85 -51t-68.5 -85.5t-44 -130t-16.5 -182v-312h84v-94h-274v94h88v783h-123z" />
<glyph unicode="n" horiz-adv-x="919" d="M86 877v94h225v-103q0 -71 -14 -190q47 148 163 225q106 71 261 71q14 0 29 -1v-879h90v-94h-277v94h84v776q-148 -16 -242 -136.5t-94 -332.5v-307h84v-94h-278v94h92v783h-123z" />
<glyph unicode="o" horiz-adv-x="770" d="M68 348q0 170 81 312t197 217q-35 -6 -71 -6l-43 3q-57 6 -89 17l27 82q88 -16 154 -17q16 0 30 -1q44 1 72 5q36 6 90 16.5t102 14.5q76 -195 76 -428q0 -81 -11 -159t-37.5 -156.5t-66 -136.5t-102.5 -94.5t-141 -36.5q-50 0 -95.5 19.5t-85.5 61t-63.5 115.5 t-23.5 172zM168 336q0 -119 49.5 -187.5t124.5 -68.5q83 0 141.5 72t83.5 178t25 233q0 189 -51 328q-122 -38 -209 -129.5t-125.5 -200.5t-38.5 -225z" />
<glyph unicode="p" horiz-adv-x="866" d="M76 877v94h223v-127q0 -46 -4 -126.5t-4 -88.5q38 139 158.5 233.5t322.5 110.5q13 -164 13 -298q0 -108 -9 -196q-19 -196 -129 -310t-348 -169v-295h82v-94h-270v94h84v1172h-119zM295 242l4 -144q191 50 277.5 139.5t102.5 242.5q8 73 8 166q0 98 -9 218 q-197 -48 -294 -200q-90 -138 -90 -377q0 -22 1 -45z" />
<glyph unicode="q" horiz-adv-x="806" d="M94 486q21 193 148 310t411 193v-1286h84v-94h-266v94h80v381q0 69 8 184.5t8 116.5q-13 -72 -49 -139.5t-93 -125t-143 -90.5q-80 -32 -175 -32h-11q-13 156 -13 283q0 114 11 205zM178 394q-2 -39 -2 -82q0 -94 10 -208q179 49 270.5 188.5t94.5 405.5v160 q-131 -42 -209 -102t-117.5 -149.5t-46.5 -212.5z" />
<glyph unicode="r" horiz-adv-x="755" d="M86 877v94h225v-123q-1 -34 -7.5 -98.5t-6.5 -75.5q30 138 148 220q113 79 280 79h16v-279h-104l2 172q-69 -11 -125.5 -41.5t-103.5 -84.5t-73 -141t-26 -200v-305h90v-94h-284v94h90v783h-121z" />
<glyph unicode="s" horiz-adv-x="681" d="M94 -27v258h107v-143q127 29 205.5 102t78.5 162q0 47 -28 78.5t-71 46.5t-93.5 33.5t-93.5 38.5t-72 62.5t-29 103.5q0 76 38 131t105 85t143.5 44t168.5 16v-225h-104v125q-114 -5 -181 -48.5t-67 -117.5q0 -37 21.5 -63.5t55.5 -42.5t75 -29.5t82.5 -30.5t75.5 -39.5 t55.5 -63t21.5 -94.5q0 -61 -30.5 -123t-88.5 -117.5t-155.5 -95.5t-219.5 -53z" />
<glyph unicode="t" horiz-adv-x="598" d="M72 877v94h96l8 184h92v-184h256v-94h-256v-775q126 54 199 197l90 -41q-74 -135 -162 -200t-229 -78v897h-94z" />
<glyph unicode="u" horiz-adv-x="976" d="M70 877v94h225v-860q161 25 262.5 161.5t101.5 380.5v224h-86v94h279v-94h-88v-783h125v-94h-230v158q0 17 15 182q-33 -119 -107.5 -198t-168 -112t-208.5 -34v881h-120z" />
<glyph unicode="v" horiz-adv-x="837" d="M80 877v94h272v-94h-80v-781q101 23 174 94t112.5 178.5t55.5 233.5q13 101 14 218q0 28 -1 57h-76v94h266v-94h-88q1 -26 1 -51q0 -113 -12 -213q-14 -123 -52 -240t-100 -200t-163.5 -133.5t-232.5 -51.5v889h-90z" />
<glyph unicode="w" horiz-adv-x="1157" d="M80 877v94h276v-94h-84v-773q65 20 114 62.5t80 106.5t50.5 133.5t27.5 165.5q10 96 12 179q2 59 1 134v63h107v-839q72 23 125 75t84 120t49 163.5t23 191.5q4 69 4 151q0 33 -1 69h-84v92h275v-92h-88q0 -22 1 -44q0 -65 -3 -121q-3 -74 -14 -166t-31.5 -164.5 t-57 -146t-87 -124t-125.5 -85t-169 -42.5v241l4 144q-11 -78 -41 -145t-78 -121t-120 -85.5t-160 -33.5v891h-90z" />
<glyph unicode="x" horiz-adv-x="886" d="M51 0v94h109q1 147 49 245t149 196q-46 36 -73 62t-57 67t-45 93t-19 120h-111v94h295v-94h-78q0 -102 38.5 -167.5t119.5 -121.5q87 61 131 126.5t47 162.5h-82v94h299v-94h-108q-5 -50 -20.5 -94.5t-31.5 -72.5t-50 -65t-51 -52t-60 -52q96 -79 144.5 -179t49.5 -268 h140v-94h-242q0 49 -2 74q-4 155 -42 250.5t-118 167.5q-166 -158 -168 -398h92v-94h-305z" />
<glyph unicode="y" horiz-adv-x="942" d="M80 877v94h227v-869q98 13 169 59t111 118.5t58.5 158t18.5 189.5v250h-89v94h291v-94h-98v-754q0 -118 -34 -210t-89 -149t-130.5 -94.5t-151.5 -52.5t-160 -16v209h104v-97q55 6 103.5 20t97.5 44.5t83.5 74.5t56.5 113.5t22 157.5q0 113 4 205q-36 -167 -156 -249.5 t-315 -82.5v881h-123z" />
<glyph unicode="z" horiz-adv-x="804" d="M53 0l510 877h-356v-129h-105v223h637l-508 -877h373v148h105v-242h-656z" />
<glyph unicode="{" horiz-adv-x="409" d="M47 489v80q14 0 30.5 3.5t37.5 13t35 31.5t14 53q2 67 -5 327t-7 334q3 173 229 162l6 -96q-66 -5 -98 -33t-33 -113q-1 -22 4.5 -274t3.5 -313q-1 -30 -12.5 -54.5t-32.5 -41t-34 -24t-33 -16.5q110 -44 112 -135q1 -20 -0.5 -161t-3.5 -282t-2 -145q0 -43 8 -70.5 t27.5 -41t39 -18.5t54.5 -9l-6 -98q-229 8 -229 162q0 34 7 310.5t5 348.5q0 31 -14 52.5t-35 31t-37.5 13t-30.5 3.5z" />
<glyph unicode="|" horiz-adv-x="411" d="M154 -258v1907h104v-1907h-104z" />
<glyph unicode="}" horiz-adv-x="405" d="M18 -336q35 4 54.5 9t39 18.5t27.5 41t8 70.5q0 4 -2 145t-3.5 282t-0.5 161q2 91 113 135q-21 9 -33.5 16.5t-34 24t-33 41t-12.5 54.5q-2 61 4 313t5 274q-1 45 -10 73.5t-28.5 43.5t-40 20.5t-53.5 8.5l7 96q226 11 229 -162q0 -74 -7 -334t-5 -327q0 -31 13.5 -53 t35 -31.5t37.5 -13t30 -3.5v-80q-14 0 -30.5 -3.5t-37.5 -13t-34.5 -31t-13.5 -52.5q-2 -72 5 -348.5t7 -310.5q0 -154 -229 -162z" />
<glyph unicode="~" horiz-adv-x="1079" d="M63 1331q24 38 45.5 65.5t57 63t78.5 55t90 19.5q45 0 90.5 -20t82.5 -48t72.5 -56.5t74 -48.5t73.5 -20t67 13t52 28t41.5 42t29.5 39.5t21 35.5l78 -35q-13 -27 -29 -53t-43 -57.5t-57.5 -54.5t-72.5 -38.5t-87 -15.5q-58 0 -106 24.5t-107 69.5q-7 5 -25.5 20 t-26.5 21t-24.5 17.5t-27 17t-24.5 12t-26.5 9t-25.5 2.5q-33 0 -64.5 -15t-58.5 -42.5t-43 -48.5t-37 -52z" />
<glyph unicode="&#xa1;" horiz-adv-x="360" d="M154 428h104v-1069h-104v1069zM154 709v262h104v-262h-104z" />
<glyph unicode="&#xa2;" horiz-adv-x="894" d="M51 471q0 142 40 263.5t117.5 203.5t180.5 98v150h96v-148q55 -8 99.5 -42.5t56.5 -82.5q-6 80 -6 103v39h104v-353h-104q0 114 -49.5 177t-149.5 63q-67 0 -123 -43.5t-90 -113t-52.5 -150t-18.5 -160.5q0 -71 17.5 -138t52 -123.5t92.5 -91t132 -34.5q100 0 171.5 37 t132.5 98l53 -78q-59 -66 -143.5 -106.5t-176.5 -44.5v-144h-94v146q-149 18 -243.5 141t-94.5 334z" />
<glyph unicode="&#xa3;" horiz-adv-x="1032" d="M68 719v102h194q-1 144 19 248.5t58 172t100 107t137.5 53t177.5 9.5l-23 -102q-108 6 -177 -18t-109.5 -86t-56 -152.5t-15.5 -231.5h250v-102h-250v-617h495v148h111v-250h-875v102h158v617h-194z" />
<glyph unicode="&#xa4;" horiz-adv-x="1163" d="M59 819l27 86h156q53 249 186.5 377.5t298.5 128.5q83 0 163 -42.5t126 -100.5l-41 -94q-4 6 -11 15t-31.5 33t-51 42.5t-68.5 33.5t-86 15q-136 0 -230.5 -112.5t-138.5 -295.5h476l-29 -86h-467q-12 -102 -16 -153h512l-27 -88h-483q6 -243 100 -373.5t246 -130.5 q209 0 340 239l86 -41q-161 -297 -426 -297q-97 0 -176.5 35.5t-141.5 107t-97.5 189t-39.5 271.5h-154l25 88h129q0 71 10 153h-166z" />
<glyph unicode="&#xa5;" horiz-adv-x="1140" d="M29 1372v103h395v-103h-141q0 -184 82 -360t206 -285q134 122 209.5 289.5t75.5 355.5h-141v103h397v-103h-145q0 -352 -260 -639h292v-90h-376v-143h376v-82h-376v-316h157v-102h-422v102h156v316h-377v82h377v143h-377v90h295q-117 127 -188.5 292t-71.5 347h-143z" />
<glyph unicode="&#xa6;" horiz-adv-x="399" d="M147 -258v635h105v-635h-105zM147 1012v637h105v-637h-105z" />
<glyph unicode="&#xa7;" horiz-adv-x="1003" d="M102 844q0 51 23.5 115t56.5 106q-24 38 -32.5 77t-8.5 97q0 134 100.5 236t256.5 102q111 0 198.5 -48.5t120.5 -109.5l-69 -76q-39 68 -109 99t-145 31q-104 0 -174 -71.5t-70 -172.5q0 -76 53 -144q48 -59 199 -143q159 -89 205 -120q158 -107 187 -230q7 -31 7 -64 q0 -138 -76 -260q35 -66 35 -155q0 -84 -29 -153t-74 -112t-101.5 -73t-108.5 -42t-98 -12q-193 0 -328 132l57 84q80 -66 144 -90.5t127 -24.5q30 0 66 8t78.5 28.5t76.5 51.5t57 83t23 116q0 59 -20.5 107t-63 86.5t-83 64.5t-104.5 59q-141 75 -174 96q-147 93 -186 213 q-17 50 -17 109zM213 840q0 -41 16.5 -79t39 -65.5t64 -58t72 -49t82.5 -47.5q65 -34 101 -54t84.5 -54t79.5 -68q36 82 36 155q0 51 -22 95.5t-67 83t-89 66.5t-112 64q-4 2 -39 20.5t-46 24.5t-41 22.5t-45.5 27t-36.5 26t-36 29.5q-17 -27 -29 -68t-12 -71z" />
<glyph unicode="&#xa8;" horiz-adv-x="434" d="M0 1174v239h104v-239h-104zM330 1174v239h104v-239h-104z" />
<glyph unicode="&#xa9;" horiz-adv-x="1382" d="M72 831q0 178 80 326.5t223 235t319 86.5q172 0 314 -86.5t222.5 -235t80.5 -326.5q0 -127 -47.5 -245t-129 -206t-197 -141t-243.5 -53q-131 0 -247.5 53t-198 141t-129 206t-47.5 245zM158 831q0 -147 67.5 -275.5t192 -208t276.5 -79.5q151 0 274.5 79.5t191 208 t67.5 275.5q0 153 -67.5 282t-190.5 206.5t-275 77.5q-153 0 -276.5 -77.5t-191.5 -206.5t-68 -282zM391 807q0 107 33.5 201.5t104 157.5t163.5 63q51 0 91 -23.5t55 -66.5q-7 49 -7 67v29h84v-277h-84l-2 54q0 59 -36 96t-101 37q-66 0 -116.5 -51.5t-74.5 -126.5 t-24 -156q0 -119 59.5 -205t165.5 -86q103 0 195 92l43 -61q-100 -111 -254 -111q-130 0 -212.5 104t-82.5 263z" />
<glyph unicode="&#xaa;" horiz-adv-x="751" d="M77 1016.5q25 175.5 139.5 276t371.5 169.5v-805h100v-86h-194v158q0 35 6 102t6 68q-35 -145 -151 -239t-277 -93q-26 274 -1 449.5zM160 930q-4 -111 6 -266q105 17 180.5 99.5t111.5 201.5t36 260v116q-122 -38 -192 -90.5t-104 -131t-38 -189.5z" />
<glyph unicode="&#xab;" horiz-adv-x="1050" d="M29 553l512 502l69 -66l-450 -436l452 -434l-71 -66zM399 553l514 502l66 -72l-451 -430l455 -434l-70 -66z" />
<glyph unicode="&#xac;" horiz-adv-x="839" d="M63 539v96h713v-283h-104v187h-609z" />
<glyph unicode="&#xad;" horiz-adv-x="784" d="M80 512v100h625v-100h-625z" />
<glyph unicode="&#xae;" horiz-adv-x="1470" d="M84 829q0 137 51 260t138.5 210.5t209 138.5t256.5 51q132 0 251.5 -51t206.5 -138t138 -210t51 -261q0 -174 -86.5 -323t-236.5 -236.5t-328 -87.5q-180 0 -330.5 88.5t-235.5 237t-85 321.5zM178 827q0 -109 44 -210.5t118.5 -176t179 -119.5t219.5 -45q153 0 280.5 76 t199 202.5t71.5 272.5q0 114 -42.5 218.5t-115 181.5t-175.5 122.5t-218 45.5q-153 0 -282.5 -77t-204 -208t-74.5 -283zM469 461v76h90v628h-90v78h248q133 0 206.5 -61.5t73.5 -169.5q0 -76 -55.5 -126t-118.5 -52q42 -8 71.5 -42.5t43 -84.5t19 -90t6.5 -80h79v-76h-153 q-2 153 -18 214q-33 124 -136 124h-96v-262h80v-76h-250zM639 870h98q78 0 129.5 37t51.5 107q0 82 -63 122t-216 29v-295z" />
<glyph unicode="&#xaf;" horiz-adv-x="583" d="M0 1241q23 51 69 97t103 46q34 0 69 -16t58.5 -36t51.5 -36t50 -16q23 0 43 8.5t38 28.5t23.5 27t20.5 28l58 -29q-27 -56 -71 -98.5t-107 -42.5q-39 0 -81 27t-81 53.5t-70 26.5q-13 0 -25.5 -5t-21 -10t-20 -17.5t-16.5 -19t-17 -22.5t-15 -21z" />
<glyph unicode="&#xb0;" horiz-adv-x="532" d="M0 1217q0 113 76 192.5t186 79.5q112 0 191 -79.5t79 -192.5q0 -107 -79.5 -188t-190.5 -81q-109 0 -185.5 81t-76.5 188zM68 1217q0 -82 57.5 -141.5t138.5 -59.5q84 0 143.5 59.5t59.5 141.5q0 83 -59.5 144.5t-143.5 61.5q-81 0 -138.5 -60.5t-57.5 -145.5z" />
<glyph unicode="&#xb1;" horiz-adv-x="839" d="M63 -25h713v-94h-713v94zM76 520v94h291v344h104v-344h293v-94h-293v-350h-104v350h-291z" />
<glyph unicode="&#xb2;" horiz-adv-x="643" d="M68 879q10 136 62.5 228.5t141.5 162.5q2 2 26 21t29.5 24t26 23.5t27.5 28t21.5 29t21 35.5t13 37.5t9.5 44.5q-189 28 -282 -124l-72 41q56 110 162.5 146.5t284.5 12.5q3 -74 -10.5 -131.5t-43.5 -100t-57 -69.5t-71 -64q-3 -2 -4 -3t-3.5 -2.5t-4 -3.5t-3.5 -3 q-46 -36 -72.5 -63t-52 -75t-33.5 -107h371v-88h-487z" />
<glyph unicode="&#xb3;" horiz-adv-x="647" d="M63 918q206 6 304 65.5t98 149.5q0 46 -24 76t-62.5 40t-83 7.5t-88.5 -17.5l-17 72q121 30 188 77.5t97 127.5h-325v75h434q-8 -86 -65 -168t-146 -108q51 -1 90 -19t59.5 -46t30.5 -57t10 -58q0 -55 -25 -104.5t-78.5 -93.5t-150 -70.5t-225.5 -26.5z" />
<glyph unicode="&#xb4;" horiz-adv-x="434" d="M41 1266l278 190l74 -86l-293 -170z" />
<glyph unicode="&#xb5;" horiz-adv-x="966" d="M76 874v97h225v-871q69 17 133.5 63t118.5 119t86.5 183.5t32.5 241.5v167h-84v97h274v-97h-88v-778h111v-96h-213v111q0 51 3.5 121t6.5 114l4 45q-15 -93 -75 -177t-141.5 -139t-168.5 -75v-289h102v-94h-309v94h105v1163h-123z" />
<glyph unicode="&#xb6;" horiz-adv-x="1003" d="M98 893q-5 120 37 211.5t139.5 146t237.5 54.5v-1518h-266v102h157v856q-83 -89 -245 -102q-55 130 -60 250zM643 1305h268v-103h-157v-1415h-109z" />
<glyph unicode="&#xb7;" horiz-adv-x="278" d="M84 563v266h111v-266h-111z" />
<glyph unicode="&#xb8;" horiz-adv-x="286" d="M0 -317q124 10 158.5 67.5t15.5 177.5q25 -3 59 1.5t46 9.5q23 -161 -39.5 -236.5t-229.5 -89.5z" />
<glyph unicode="&#xb9;" horiz-adv-x="399" d="M35 1524q194 55 268 69v-714h-98v600l-139 -35z" />
<glyph unicode="&#xba;" horiz-adv-x="753" d="M47 907q0 156 76.5 287.5t185.5 200.5q-53 -8 -106 -3t-82 17l24 76q81 -16 143 -18t94 4t82.5 16.5t94.5 13.5q76 -196 76 -395q0 -75 -10.5 -147.5t-35.5 -145t-62.5 -127.5t-96 -89t-131.5 -34q-46 0 -89 19t-80.5 58t-60 108t-22.5 159zM143 897q0 -111 46 -174.5 t116 -63.5q76 0 130 66.5t77 165t23 215.5q0 173 -48 303q-113 -35 -193 -119.5t-115.5 -185t-35.5 -207.5z" />
<glyph unicode="&#xbb;" horiz-adv-x="1050" d="M68 119l454 434l-450 430l65 72l514 -502l-514 -500zM438 119l453 434l-451 436l70 66l512 -502l-512 -500z" />
<glyph unicode="&#xbc;" horiz-adv-x="1314" d="M76 1284q194 54 270 66v-715h-102v602l-138 -35zM80 20l1063 1422l76 -66l-1057 -1415zM729 150q3 53 7.5 94t16 93t28.5 92.5t46.5 86t68.5 80.5t96 67.5t128 55.5v-483h119v-86h-119v-150h-96v150h-295zM817 236h207v358q-93 -56 -145 -140.5t-62 -217.5z" />
<glyph unicode="&#xbd;" horiz-adv-x="1404" d="M78 20l1061 1420l75 -64l-1056 -1415zM96 1384q195 56 269 70v-715h-99v600l-139 -34zM846 35q10 136 63 228.5t142 162.5q3 3 23 19t26 21t23.5 20.5t24.5 24t21 24.5t20.5 29t15.5 30.5t13.5 36.5t6.5 39q-189 28 -283 -125l-72 41q56 110 162.5 146.5t284.5 12.5 q3 -73 -10 -130t-43.5 -100.5t-56.5 -69.5t-71 -63q-5 -4 -8.5 -7t-7.5 -6q-69 -55 -107.5 -108t-49.5 -138h370v-88h-487z" />
<glyph unicode="&#xbe;" horiz-adv-x="1409" d="M72 717q206 4 303.5 64.5t97.5 150.5q0 46 -24 76t-62.5 39.5t-83 6.5t-88.5 -18l-16 72q120 30 187 78t97 129h-325v76h434q-5 -55 -30 -110t-73 -102.5t-108 -64.5q51 -1 90 -19t59.5 -46.5t30.5 -57.5t10 -57q0 -55 -25 -105t-78.5 -94t-150 -70t-225.5 -26zM176 20 l1061 1422l76 -66l-1057 -1415zM823 150q4 54 8.5 94t16 93t28.5 93t46 85.5t68 80.5t96 67.5t128 55.5v-483h119v-86h-119v-150h-96v150h-295zM911 236h207v358q-92 -55 -143.5 -139.5t-63.5 -218.5z" />
<glyph unicode="&#xbf;" horiz-adv-x="745" d="M35 -203q0 60 25.5 110t63.5 81.5t83 64.5t83 59.5t63.5 65t25.5 82.5q0 87 -80 135l43 86q55 -24 96 -78.5t41 -136.5q0 -52 -19 -97.5t-49.5 -77.5t-67.5 -61t-74 -54.5t-67.5 -50.5t-49.5 -56t-19 -66q0 -54 58.5 -107.5t133 -87.5t140.5 -46v129h102v-262 q-54 10 -118 28.5t-139 51.5t-135 73t-100 96.5t-40 118.5zM305 702v267h105v-267h-105z" />
<glyph unicode="&#xc0;" d="M10 0v102h150l415 1301h-153v102h342l444 -1403h150v-102h-414v102h152l-150 465h-522l-150 -465h148v-102h-412zM446 1761l74 86l279 -190l-60 -70zM453 668h460l-229 735z" />
<glyph unicode="&#xc1;" d="M10 0v102h150l415 1301h-153v102h342l444 -1403h150v-102h-414v102h152l-150 465h-522l-150 -465h148v-102h-412zM453 668h460l-229 735zM543 1657l278 190l74 -86l-293 -170z" />
<glyph unicode="&#xc2;" d="M10 0v102h150l415 1301h-153v102h342l444 -1403h150v-102h-414v102h152l-150 465h-522l-150 -465h148v-102h-412zM397 1634l252 228l252 -228l-57 -49l-195 154l-192 -154zM453 668h460l-229 735z" />
<glyph unicode="&#xc3;" d="M10 0v102h150l415 1301h-153v102h342l444 -1403h150v-102h-414v102h152l-150 465h-522l-150 -465h148v-102h-412zM348 1626q23 51 69 97t103 46q34 0 69 -16.5t59 -35.5t52 -35.5t50 -16.5q10 0 19.5 2t17 4.5t16 8t14 9t13 11.5t11 11.5t10.5 13t8.5 11.5t8.5 12l6 9 l58 -28q-27 -57 -71 -99.5t-107 -42.5q-31 0 -64.5 16.5t-57.5 37t-54.5 37t-55.5 16.5q-15 0 -28 -4.5t-27 -18t-20 -20t-21.5 -28t-17.5 -24.5zM453 668h460l-229 735z" />
<glyph unicode="&#xc4;" d="M10 0v102h150l415 1301h-153v102h342l444 -1403h150v-102h-414v102h152l-150 465h-522l-150 -465h148v-102h-412zM440 1587v240h105v-240h-105zM453 668h460l-229 735zM770 1587v240h104v-240h-104z" />
<glyph unicode="&#xc5;" d="M10 0v102h150l415 1301h-153v102h342l444 -1403h150v-102h-414v102h152l-150 465h-522l-150 -465h148v-102h-412zM453 668h460l-229 735zM498 1743q0 73 48.5 123.5t119.5 50.5q70 0 120 -51t50 -123q0 -69 -50 -118.5t-120 -49.5q-71 0 -119.5 49t-48.5 119zM565 1743 q0 -42 28.5 -70t72.5 -28q42 0 70 29.5t28 68.5q0 43 -28 72.5t-70 29.5q-44 0 -72.5 -29.5t-28.5 -72.5z" />
<glyph unicode="&#xc6;" horiz-adv-x="1890" d="M6 0v104h164l565 1303h-180v102h1225v-260h-115v158h-633v-526h637v-105h-637v-672h633v154h115v-258h-862l2 502h-459l-168 -398h168v-104h-455zM508 606h410v807h-68z" />
<glyph unicode="&#xc7;" horiz-adv-x="1034" d="M72 647q0 136 17 253t46.5 202.5t70 154t86.5 112.5t97.5 73.5t100.5 42t98 12.5q87 0 150 -36.5t89 -108.5l-2 98v63h107v-446h-111v41q0 138 -62 212.5t-173 74.5q-170 0 -287.5 -207.5t-116.5 -536.5q0 -117 19.5 -217.5t59.5 -181.5t108 -127.5t157 -46.5 q114 0 194.5 70t141.5 190l92 -47q-35 -69 -74.5 -122.5t-91.5 -99t-118.5 -70t-143.5 -24.5q-66 0 -126.5 18t-121.5 66t-105.5 121t-72.5 193.5t-28 273.5zM330 -391q124 10 158.5 68t15.5 178q26 -3 59 1t45 9q23 -161 -39 -237t-229 -89z" />
<glyph unicode="&#xc8;" horiz-adv-x="1204" d="M117 1374v103h977v-258h-111v155h-596v-506h604v-102h-604v-664h596v152h111v-254h-975v102h157v1272h-159zM479 1753l74 86l278 -190l-59 -70z" />
<glyph unicode="&#xc9;" horiz-adv-x="1204" d="M117 1374v103h977v-258h-111v155h-596v-506h604v-102h-604v-664h596v152h111v-254h-975v102h157v1272h-159zM514 1647l279 190l73 -86l-293 -170z" />
<glyph unicode="&#xca;" horiz-adv-x="1204" d="M117 1374v103h977v-258h-111v155h-596v-506h604v-102h-604v-664h596v152h111v-254h-975v102h157v1272h-159zM412 1632l252 228l251 -228l-57 -49l-194 154l-193 -154z" />
<glyph unicode="&#xcb;" horiz-adv-x="1204" d="M117 1374v103h977v-258h-111v155h-596v-506h604v-102h-604v-664h596v152h111v-254h-975v102h157v1272h-159zM432 1579v240h105v-240h-105zM762 1579v240h104v-240h-104z" />
<glyph unicode="&#xcc;" horiz-adv-x="655" d="M115 0v102h155v1272h-155v103h426v-103h-160v-1272h160v-102h-426zM152 1765l73 86l279 -190l-60 -70z" />
<glyph unicode="&#xcd;" horiz-adv-x="655" d="M115 0v102h155v1272h-155v103h426v-103h-160v-1272h160v-102h-426zM154 1665l278 190l74 -86l-293 -170z" />
<glyph unicode="&#xce;" horiz-adv-x="737" d="M117 1624l252 227l252 -227l-58 -49l-194 154l-193 -154zM158 0v102h155v1272h-155v103h426v-103h-160v-1272h160v-102h-426z" />
<glyph unicode="&#xcf;" horiz-adv-x="673" d="M121 1610v239h104v-239h-104zM123 0v102h156v1272h-156v103h426v-103h-160v-1272h160v-102h-426zM451 1610v239h104v-239h-104z" />
<glyph unicode="&#xd0;" horiz-adv-x="583" d="M0 1241q23 51 69 97t103 46q34 0 69 -16t58.5 -36t51.5 -36t50 -16q23 0 43 8.5t38 28.5t23.5 27t20.5 28l58 -29q-27 -56 -71 -98.5t-107 -42.5q-39 0 -81 27t-81 53.5t-70 26.5q-13 0 -25.5 -5t-21 -10t-20 -17.5t-16.5 -19t-17 -22.5t-15 -21z" />
<glyph unicode="&#xd1;" horiz-adv-x="1445" d="M117 0v102h157v1272h-157v103h334l632 -1260l-6 154v1003h-157v103h419v-103h-155v-1386h-109l-698 1392l4 -129v-1149h158v-102h-422zM438 1640q23 52 69 98t103 46q34 0 69 -16.5t59 -36t52 -36t50 -16.5q28 0 54.5 17t39 32t27.5 38q3 4 4 6l57 -29q-27 -56 -71 -98.5 t-107 -42.5q-39 0 -81 26.5t-81 53t-70 26.5q-13 0 -25 -4.5t-20.5 -10t-20 -17.5t-16.5 -19t-16.5 -22.5t-15.5 -20.5z" />
<glyph unicode="&#xd2;" horiz-adv-x="1146" d="M76 719q0 355 145 576t367 221q148 0 258 -102.5t167.5 -282t57.5 -412.5q0 -349 -140 -541t-368 -192q-220 0 -353.5 200.5t-133.5 532.5zM186 719q0 -160 32 -284.5t86.5 -198t120 -111t138.5 -37.5q62 0 118 21.5t108 69.5t89.5 120t60 179.5t22.5 240.5 q0 330 -107.5 512t-265.5 182q-76 0 -146.5 -44t-128 -127.5t-92.5 -219t-35 -303.5zM385 1755l74 86l278 -190l-59 -70z" />
<glyph unicode="&#xd3;" horiz-adv-x="1146" d="M76 719q0 355 145 576t367 221q148 0 258 -102.5t167.5 -282t57.5 -412.5q0 -349 -140 -541t-368 -192q-220 0 -353.5 200.5t-133.5 532.5zM186 719q0 -160 32 -284.5t86.5 -198t120 -111t138.5 -37.5q62 0 118 21.5t108 69.5t89.5 120t60 179.5t22.5 240.5 q0 330 -107.5 512t-265.5 182q-76 0 -146.5 -44t-128 -127.5t-92.5 -219t-35 -303.5zM469 1647l279 190l73 -86l-293 -170z" />
<glyph unicode="&#xd4;" horiz-adv-x="1146" d="M76 719q0 355 145 576t367 221q148 0 258 -102.5t167.5 -282t57.5 -412.5q0 -349 -140 -541t-368 -192q-220 0 -353.5 200.5t-133.5 532.5zM186 719q0 -160 32 -284.5t86.5 -198t120 -111t138.5 -37.5q62 0 118 21.5t108 69.5t89.5 120t60 179.5t22.5 240.5 q0 330 -107.5 512t-265.5 182q-76 0 -146.5 -44t-128 -127.5t-92.5 -219t-35 -303.5zM324 1642l251 228l252 -228l-57 -49l-195 154l-192 -154z" />
<glyph unicode="&#xd5;" horiz-adv-x="1146" d="M76 719q0 355 145 576t367 221q148 0 258 -102.5t167.5 -282t57.5 -412.5q0 -349 -140 -541t-368 -192q-220 0 -353.5 200.5t-133.5 532.5zM186 719q0 -160 32 -284.5t86.5 -198t120 -111t138.5 -37.5q62 0 118 21.5t108 69.5t89.5 120t60 179.5t22.5 240.5 q0 330 -107.5 512t-265.5 182q-76 0 -146.5 -44t-128 -127.5t-92.5 -219t-35 -303.5zM291 1638q23 52 69 98t103 46q34 0 69 -16.5t58.5 -36t51.5 -36t50 -16.5q23 0 43 8.5t38 28.5t23.5 27t20.5 28l57 -28q-27 -57 -71 -99.5t-107 -42.5q-31 0 -64 16.5t-57.5 37t-54.5 37 t-55 16.5q-13 0 -25.5 -5t-20.5 -10t-20 -17.5t-16.5 -18.5t-17 -22.5t-15.5 -20.5z" />
<glyph unicode="&#xd6;" horiz-adv-x="1146" d="M76 719q0 355 145 576t367 221q148 0 258 -102.5t167.5 -282t57.5 -412.5q0 -349 -140 -541t-368 -192q-220 0 -353.5 200.5t-133.5 532.5zM186 719q0 -160 32 -284.5t86.5 -198t120 -111t138.5 -37.5q62 0 118 21.5t108 69.5t89.5 120t60 179.5t22.5 240.5 q0 330 -107.5 512t-265.5 182q-76 0 -146.5 -44t-128 -127.5t-92.5 -219t-35 -303.5zM367 1599v240h104v-240h-104zM696 1599v240h105v-240h-105z" />
<glyph unicode="&#xd7;" horiz-adv-x="768" d="M63 287l254 252l-251 243l69 74l250 -250l246 250l74 -72l-254 -245l251 -252l-73 -70l-246 254l-248 -254z" />
<glyph unicode="&#xd8;" horiz-adv-x="1146" d="M76 719q0 355 145 576t367 221q94 0 178 -46l59 164h111l-82 -231q103 -100 160 -279t57 -405q0 -349 -140 -541t-368 -192q-103 0 -186 47l-84 -242h-111l105 303q-101 92 -156 253.5t-55 371.5zM186 719q0 -344 140 -510l405 1159q-70 45 -143 45q-76 0 -146.5 -44 t-128 -127.5t-92.5 -219t-35 -303.5zM412 133q68 -45 151 -45q62 0 118 21.5t108 69.5t89.5 120t60 179.5t22.5 240.5q0 186 -39.5 329.5t-108.5 229.5z" />
<glyph unicode="&#xd9;" horiz-adv-x="1361" d="M94 1374v103h275v-1360q71 10 150.5 53.5t160 126.5t144.5 192t104.5 264t40.5 328v293h-142v103h410v-103h-158v-1272h166v-102h-276v602q-47 -180 -160 -319.5t-257 -212t-294 -72.5v1376h-164zM420 1765l74 86l278 -190l-59 -70z" />
<glyph unicode="&#xda;" horiz-adv-x="1361" d="M94 1374v103h275v-1360q71 10 150.5 53.5t160 126.5t144.5 192t104.5 264t40.5 328v293h-142v103h410v-103h-158v-1272h166v-102h-276v602q-47 -180 -160 -319.5t-257 -212t-294 -72.5v1376h-164zM504 1647l278 190l74 -86l-293 -170z" />
<glyph unicode="&#xdb;" horiz-adv-x="1386" d="M119 1374v103h274v-1360q71 10 150.5 53.5t160 126.5t144.5 192t104.5 264t40.5 328v293h-141v103h410v-103h-158v-1272h166v-102h-277v602q-47 -180 -159.5 -319.5t-256.5 -212t-294 -72.5v1376h-164zM430 1642l252 228l252 -228l-57 -49l-195 154l-193 -154z" />
<glyph unicode="&#xdc;" horiz-adv-x="1361" d="M94 1374v103h275v-1360q71 10 150.5 53.5t160 126.5t144.5 192t104.5 264t40.5 328v293h-142v103h410v-103h-158v-1272h166v-102h-276v602q-47 -180 -160 -319.5t-257 -212t-294 -72.5v1376h-164zM451 1606v239h104v-239h-104zM780 1606v239h105v-239h-105z" />
<glyph unicode="&#xdd;" horiz-adv-x="1126" d="M20 1374v103h396v-103h-144q3 -200 83 -399.5t206 -319.5q129 118 208.5 313.5t80.5 405.5h-141v103h397v-103h-145q-1 -233 -98 -446t-249 -357v-469h158v-102h-422v102h156v469q-150 143 -245.5 356.5t-98.5 446.5h-142zM465 1647l278 190l74 -86l-293 -170z" />
<glyph unicode="&#xde;" horiz-adv-x="583" d="M0 1241q23 51 69 97t103 46q34 0 69 -16t58.5 -36t51.5 -36t50 -16q23 0 43 8.5t38 28.5t23.5 27t20.5 28l58 -29q-27 -56 -71 -98.5t-107 -42.5q-39 0 -81 27t-81 53.5t-70 26.5q-13 0 -25.5 -5t-21 -10t-20 -17.5t-16.5 -19t-17 -22.5t-15 -21z" />
<glyph unicode="&#xdf;" horiz-adv-x="952" d="M-47 -211q32 -1 67.5 20t67.5 60.5t53 107t21 150.5v674q0 365 241 545q187 149 453 149q0 -111 -11 -189.5t-39 -140.5t-62 -107t-93 -104q-17 -17 -53.5 -51.5t-51.5 -50.5t-35.5 -42.5t-28 -50t-7.5 -50.5q0 -36 21.5 -59t56 -34t76 -19.5t83.5 -20.5t76.5 -31t56 -57 t21.5 -93q0 -93 -41.5 -171.5t-110 -130t-153.5 -82.5t-176 -36v277h98v-164q127 24 205 106.5t78 180.5q0 38 -22 62.5t-56.5 36.5t-77 21t-84.5 22t-76.5 33t-56.5 60.5t-22 98.5q0 42 11 77.5t37.5 70.5t48.5 58t68.5 66t71.5 68q81 81 111.5 160.5t32.5 185.5 q-36 -6 -71.5 -15.5t-86 -30.5t-93.5 -49.5t-87.5 -75.5t-76 -104t-51.5 -139.5t-20 -179.5v-672q0 -185 -95.5 -312.5t-217.5 -127.5v100z" />
<glyph unicode="&#xe0;" horiz-adv-x="854" d="M93.5 491q23.5 193 150 306t418.5 192v-895h112v-94h-217v180q0 27 3.5 70.5t6.5 76t2 38.5q-38 -160 -167 -266t-304 -103q-28 302 -4.5 495zM186.5 356.5q-3.5 -105.5 8.5 -241.5q117 17 199.5 98.5t122.5 205.5t40 281v156q-109 -37 -178 -79.5t-113 -101.5t-60 -136 t-19.5 -182.5zM190 1337l74 86l279 -190l-60 -70z" />
<glyph unicode="&#xe1;" horiz-adv-x="854" d="M93.5 491q23.5 193 150 306t418.5 192v-895h112v-94h-217v180q0 27 3.5 70.5t6.5 76t2 38.5q-38 -160 -167 -266t-304 -103q-28 302 -4.5 495zM186.5 356.5q-3.5 -105.5 8.5 -241.5q117 17 199.5 98.5t122.5 205.5t40 281v156q-109 -37 -178 -79.5t-113 -101.5t-60 -136 t-19.5 -182.5zM246 1233l278 190l74 -86l-293 -170z" />
<glyph unicode="&#xe2;" horiz-adv-x="854" d="M93.5 491q23.5 193 150 306t418.5 192v-895h112v-94h-217v180q0 27 3.5 70.5t6.5 76t2 38.5q-38 -160 -167 -266t-304 -103q-28 302 -4.5 495zM164 1227l252 227l252 -227l-58 -49l-194 153l-193 -153zM186.5 356.5q-3.5 -105.5 8.5 -241.5q117 17 199.5 98.5 t122.5 205.5t40 281v156q-109 -37 -178 -79.5t-113 -101.5t-60 -136t-19.5 -182.5z" />
<glyph unicode="&#xe3;" horiz-adv-x="856" d="M95.5 491q23.5 193 150 306t418.5 192v-895h112v-94h-217v180q0 27 3.5 70.5t6.5 76t2 38.5q-38 -160 -167 -266t-304 -103q-28 302 -4.5 495zM123 1212q23 52 69 98t103 46q34 0 69 -16.5t58.5 -36t51.5 -36t50 -16.5q23 0 43 8.5t38 28.5t23.5 27t20.5 28l58 -28 q-26 -56 -71 -98.5t-108 -42.5q-39 0 -80.5 26.5t-80.5 53t-70 26.5q-13 0 -25.5 -5t-20.5 -10t-20 -17.5t-16.5 -18.5t-17 -22.5t-15.5 -20.5zM188.5 356.5q-3.5 -105.5 8.5 -241.5q117 17 199.5 98.5t122.5 205.5t40 281v156q-109 -37 -178 -79.5t-113 -101.5t-60 -136 t-19.5 -182.5z" />
<glyph unicode="&#xe4;" horiz-adv-x="854" d="M93.5 491q23.5 193 150 306t418.5 192v-895h112v-94h-217v180q0 27 3.5 70.5t6.5 76t2 38.5q-38 -160 -167 -266t-304 -103q-28 302 -4.5 495zM186.5 356.5q-3.5 -105.5 8.5 -241.5q117 17 199.5 98.5t122.5 205.5t40 281v156q-109 -37 -178 -79.5t-113 -101.5t-60 -136 t-19.5 -182.5zM199 1165v240h104v-240h-104zM528 1165v240h105v-240h-105z" />
<glyph unicode="&#xe5;" horiz-adv-x="854" d="M93.5 491q23.5 193 150 306t418.5 192v-895h112v-94h-217v180q0 27 3.5 70.5t6.5 76t2 38.5q-38 -160 -167 -266t-304 -103q-28 302 -4.5 495zM186.5 356.5q-3.5 -105.5 8.5 -241.5q117 17 199.5 98.5t122.5 205.5t40 281v156q-109 -37 -178 -79.5t-113 -101.5t-60 -136 t-19.5 -182.5zM256 1286q0 73 48.5 123.5t119.5 50.5q70 0 120 -51t50 -123q0 -69 -50 -118.5t-120 -49.5q-71 0 -119.5 49t-48.5 119zM324 1286q0 -42 28 -70t72 -28q42 0 70 29.5t28 68.5q0 43 -28 73t-70 30q-44 0 -72 -30t-28 -73z" />
<glyph unicode="&#xe6;" horiz-adv-x="1216" d="M93.5 206.5q-3.5 96.5 7 167t39 125.5t63 91t90 64.5t108.5 45.5t129 35q-3 119 -100 151t-272 -40l-39 88q88 38 163.5 53t128 9t93.5 -26.5t66 -50.5t40.5 -66t20 -70t2.5 -66q30 99 150.5 172t322.5 94q60 -649 -471 -649q0 -26 6.5 -118.5t9.5 -123.5q155 4 236.5 43 t150.5 141l88 -51q-99 -138 -215 -182.5t-354 -44.5q-9 75 -16 184v68q-32 -110 -149.5 -185t-274.5 -75q-20 120 -23.5 216.5zM186 291.5q-5 -85.5 21 -197.5q87 14 151 54t100 91.5t57 122t26.5 135t3.5 140.5q-84 -10 -146.5 -32.5t-111.5 -64t-72.5 -102.5t-28.5 -146.5 zM637 424q93 5 160.5 28t119.5 72t75.5 134t17.5 206q-184 -32 -278.5 -135t-94.5 -305z" />
<glyph unicode="&#xe7;" horiz-adv-x="733" d="M79.5 380.5q2.5 169.5 49 291t171 199.5t341.5 114v-295h-102v172q-178 -41 -260.5 -135.5t-93.5 -250.5t10 -384q146 5 225 46t139 157l86 -47q-71 -146 -186 -201t-355 -55q-27 219 -24.5 388.5zM147 -354q86 7 129 37t50 82t-4 126q25 -3 58.5 1.5t45.5 9.5 q23 -161 -39 -237t-229 -89z" />
<glyph unicode="&#xe8;" horiz-adv-x="780" d="M83 360q0 270 109 412q139 179 480 211q51 -633 -484 -639q0 -135 17 -252q155 3 242 42.5t155 141.5l88 -51q-95 -137 -219 -185t-365 -48q-24 270 -23 368zM190 434q387 6 379 434q-382 -64 -379 -434zM219 1337l74 86l278 -190l-59 -70z" />
<glyph unicode="&#xe9;" horiz-adv-x="780" d="M83 360q0 270 109 412q139 179 480 211q51 -633 -484 -639q0 -135 17 -252q155 3 242 42.5t155 141.5l88 -51q-95 -137 -219 -185t-365 -48q-24 270 -23 368zM190 434q387 6 379 434q-382 -64 -379 -434zM244 1233l278 190l74 -86l-293 -170z" />
<glyph unicode="&#xea;" horiz-adv-x="780" d="M83 360q0 270 109 412q139 179 480 211q51 -633 -484 -639q0 -135 17 -252q155 3 242 42.5t155 141.5l88 -51q-95 -137 -219 -185t-365 -48q-24 270 -23 368zM145 1231l252 227l252 -227l-57 -49l-195 153l-192 -153zM190 434q387 6 379 434q-382 -64 -379 -434z" />
<glyph unicode="&#xeb;" horiz-adv-x="780" d="M83 360q0 270 109 412q139 179 480 211q51 -633 -484 -639q0 -135 17 -252q155 3 242 42.5t155 141.5l88 -51q-95 -137 -219 -185t-365 -48q-24 270 -23 368zM190 434q387 6 379 434q-382 -64 -379 -434zM195 1165v240h104v-240h-104zM524 1165v240h105v-240h-105z" />
<glyph unicode="&#xec;" horiz-adv-x="485" d="M66 1337l73 86l279 -190l-60 -70zM92 874v97h225v-877h86v-94h-278v94h88v780h-121z" />
<glyph unicode="&#xed;" horiz-adv-x="491" d="M84 874v97h225v-877h86v-94h-278v94h88v780h-121zM94 1237l279 190l73 -86l-292 -170z" />
<glyph unicode="&#xee;" horiz-adv-x="577" d="M41 1231l252 227l252 -227l-58 -49l-194 153l-193 -153zM143 874v97h226v-877h86v-94h-279v94h88v780h-121z" />
<glyph unicode="&#xef;" horiz-adv-x="546" d="M55 1165v240h105v-240h-105zM129 874v97h225v-877h86v-94h-278v94h88v780h-121zM385 1165v240h104v-240h-104z" />
<glyph unicode="&#xf0;" horiz-adv-x="583" d="M0 1241q23 51 69 97t103 46q34 0 69 -16t58.5 -36t51.5 -36t50 -16q23 0 43 8.5t38 28.5t23.5 27t20.5 28l58 -29q-27 -56 -71 -98.5t-107 -42.5q-39 0 -81 27t-81 53.5t-70 26.5q-13 0 -25.5 -5t-21 -10t-20 -17.5t-16.5 -19t-17 -22.5t-15 -21z" />
<glyph unicode="&#xf1;" horiz-adv-x="919" d="M86 877v94h225v-103q0 -71 -14 -190q47 148 162.5 225t290.5 70v-879h90v-94h-277v94h84v776q-148 -16 -242 -136.5t-94 -332.5v-307h84v-94h-278v94h92v783h-123zM176 1225q23 51 69 97t103 46q34 0 69 -16t59 -36t52 -36t50 -16q10 0 19.5 2t17 4.5t16 8t14 9t13 11.5 t11 11.5t10.5 13t8.5 11.5t8.5 11l6 10l58 -29q-27 -56 -71 -98.5t-107 -42.5q-39 0 -81 26.5t-81 53t-70 26.5q-13 0 -25 -4.5t-20.5 -10t-20 -17.5t-16.5 -19t-16.5 -22.5t-15.5 -20.5z" />
<glyph unicode="&#xf2;" horiz-adv-x="770" d="M68 348q0 170 81 312t197 217q-57 -9 -114 -3.5t-89 17.5l27 82q88 -16 154.5 -18t102 4.5t89.5 17t102 14.5q76 -195 76 -428q0 -81 -11 -159t-37.5 -156.5t-66 -136.5t-102.5 -94.5t-141 -36.5q-50 0 -95.5 19.5t-85.5 61t-63.5 115.5t-23.5 172zM168 336 q0 -119 49.5 -187.5t124.5 -68.5q83 0 141.5 72t83.5 178t25 233q0 189 -51 328q-122 -38 -209 -129.5t-125.5 -200.5t-38.5 -225zM209 1337l74 86l278 -190l-59 -70z" />
<glyph unicode="&#xf3;" horiz-adv-x="770" d="M68 348q0 170 81 312t197 217q-57 -9 -114 -3.5t-89 17.5l27 82q88 -16 154.5 -18t102 4.5t89.5 17t102 14.5q76 -195 76 -428q0 -81 -11 -159t-37.5 -156.5t-66 -136.5t-102.5 -94.5t-141 -36.5q-50 0 -95.5 19.5t-85.5 61t-63.5 115.5t-23.5 172zM168 336 q0 -119 49.5 -187.5t124.5 -68.5q83 0 141.5 72t83.5 178t25 233q0 189 -51 328q-122 -38 -209 -129.5t-125.5 -200.5t-38.5 -225zM324 1233l278 190l74 -86l-293 -170z" />
<glyph unicode="&#xf4;" horiz-adv-x="770" d="M68 348q0 170 81 312t197 217q-57 -9 -114 -3.5t-89 17.5l27 82q88 -16 154.5 -18t102 4.5t89.5 17t102 14.5q76 -195 76 -428q0 -81 -11 -159t-37.5 -156.5t-66 -136.5t-102.5 -94.5t-141 -36.5q-50 0 -95.5 19.5t-85.5 61t-63.5 115.5t-23.5 172zM143 1231l252 227 l252 -227l-57 -49l-195 153l-192 -153zM168 336q0 -119 49.5 -187.5t124.5 -68.5q83 0 141.5 72t83.5 178t25 233q0 189 -51 328q-122 -38 -209 -129.5t-125.5 -200.5t-38.5 -225z" />
<glyph unicode="&#xf5;" horiz-adv-x="768" d="M68 348q0 170 81 312t197 217q-57 -9 -114 -3.5t-89 17.5l27 82q88 -16 154.5 -18t102 4.5t89.5 17t102 14.5q76 -195 76 -428q0 -81 -11 -159t-37.5 -156.5t-66 -136.5t-102.5 -94.5t-141 -36.5q-50 0 -95.5 19.5t-85.5 61t-63.5 115.5t-23.5 172zM121 1241q23 51 69 97 t103 46q34 0 69 -16t58.5 -36t51.5 -36t50 -16q23 0 43 8.5t38 28.5t23.5 27t20.5 28l58 -29q-26 -56 -71 -98.5t-108 -42.5q-31 0 -64 16.5t-57.5 37t-54.5 37t-55 16.5q-13 0 -25.5 -5t-21 -10t-20 -17.5t-16.5 -19t-17 -22.5t-15 -21zM168 336q0 -119 49.5 -187.5 t124.5 -68.5q83 0 141.5 72t83.5 178t25 233q0 189 -51 328q-122 -38 -209 -129.5t-125.5 -200.5t-38.5 -225z" />
<glyph unicode="&#xf6;" horiz-adv-x="770" d="M68 348q0 170 81 312t197 217q-57 -9 -114 -3.5t-89 17.5l27 82q88 -16 154.5 -18t102 4.5t89.5 17t102 14.5q76 -195 76 -428q0 -81 -11 -159t-37.5 -156.5t-66 -136.5t-102.5 -94.5t-141 -36.5q-50 0 -95.5 19.5t-85.5 61t-63.5 115.5t-23.5 172zM168 336 q0 -119 49.5 -187.5t124.5 -68.5q83 0 141.5 72t83.5 178t25 233q0 189 -51 328q-122 -38 -209 -129.5t-125.5 -200.5t-38.5 -225zM201 1165v240h104v-240h-104zM530 1165v240h105v-240h-105z" />
<glyph unicode="&#xf7;" horiz-adv-x="806" d="M63 547v88h680v-88h-680zM356 172v227h101v-227h-101zM356 788v228h101v-228h-101z" />
<glyph unicode="&#xf8;" horiz-adv-x="757" d="M70 360q4 165 73 297.5t176 214.5q-51 -7 -103 0t-75 19l23 82q130 -34 258 -12q5 1 51 10t76 14l65 162l91 -12l-78 -191q57 -177 57 -381q0 -100 -21 -199t-62.5 -187t-112.5 -142.5t-160 -54.5q-39 0 -82 16l-70 -176l-96 8l88 217q-104 100 -98 315zM174 352 q-3 -121 43 -188l291 721q-79 -22 -143.5 -80t-104 -134.5t-62 -158.5t-24.5 -160zM283 84q27 -10 51 -10q72 1 129.5 73t87 182.5t29.5 233.5q0 116 -21 215z" />
<glyph unicode="&#xf9;" horiz-adv-x="976" d="M70 877v94h225v-860q161 25 262.5 161.5t101.5 380.5v224h-86v94h279v-94h-88v-783h125v-94h-230v158q0 17 15 182q-33 -119 -107.5 -198t-168 -112t-208.5 -34v881h-120zM250 1327l74 86l278 -190l-59 -70z" />
<glyph unicode="&#xfa;" horiz-adv-x="976" d="M70 877v94h225v-860q161 25 262.5 161.5t101.5 380.5v224h-86v94h279v-94h-88v-783h125v-94h-230v158q0 17 15 182q-33 -119 -107.5 -198t-168 -112t-208.5 -34v881h-120zM348 1221l279 190l73 -86l-292 -170z" />
<glyph unicode="&#xfb;" horiz-adv-x="976" d="M70 877v94h225v-860q161 25 262.5 161.5t101.5 380.5v224h-86v94h279v-94h-88v-783h125v-94h-230v158q0 17 15 182q-33 -119 -107.5 -198t-168 -112t-208.5 -34v881h-120zM225 1231l252 227l252 -227l-57 -49l-195 153l-192 -153z" />
<glyph unicode="&#xfc;" horiz-adv-x="976" d="M70 877v94h225v-860q161 25 262.5 161.5t101.5 380.5v224h-86v94h279v-94h-88v-783h125v-94h-230v158q0 17 15 182q-33 -119 -107.5 -198t-168 -112t-208.5 -34v881h-120zM258 1165v240h104v-240h-104zM588 1165v240h104v-240h-104z" />
<glyph unicode="&#xfd;" horiz-adv-x="942" d="M80 877v94h227v-869q98 13 169 59t111 118.5t58.5 158t18.5 189.5v250h-89v94h291v-94h-98v-754q0 -118 -34 -210t-89 -149t-130.5 -94.5t-151.5 -52.5t-160 -16v209h104v-97q55 6 103.5 20t97.5 44.5t83.5 74.5t56.5 113.5t22 157.5q0 113 4 205q-36 -167 -156 -249.5 t-315 -82.5v881h-123zM309 1233l279 190l74 -86l-293 -170z" />
<glyph unicode="&#xfe;" horiz-adv-x="583" d="M0 1241q23 51 69 97t103 46q34 0 69 -16t58.5 -36t51.5 -36t50 -16q23 0 43 8.5t38 28.5t23.5 27t20.5 28l58 -29q-27 -56 -71 -98.5t-107 -42.5q-39 0 -81 27t-81 53.5t-70 26.5q-13 0 -25.5 -5t-21 -10t-20 -17.5t-16.5 -19t-17 -22.5t-15 -21z" />
<glyph unicode="&#xff;" horiz-adv-x="942" d="M80 877v94h227v-869q98 13 169 59t111 118.5t58.5 158t18.5 189.5v250h-89v94h291v-94h-98v-754q0 -118 -34 -210t-89 -149t-130.5 -94.5t-151.5 -52.5t-160 -16v209h104v-97q55 6 103.5 20t97.5 44.5t83.5 74.5t56.5 113.5t22 157.5q0 113 4 205q-36 -167 -156 -249.5 t-315 -82.5v881h-123zM262 1165v240h105v-240h-105zM592 1165v240h104v-240h-104z" />
<glyph unicode="&#x152;" horiz-adv-x="1755" d="M76 719q0 353 144.5 567.5t367.5 214.5q65 0 139 -24h918v-258h-111v155h-672q81 -70 135 -208.5t68 -309.5h475v-102h-471q7 -191 -42.5 -365t-172.5 -285l680 -2v152h111v-254h-949q-64 -18 -133 -18q-220 0 -353.5 201.5t-133.5 535.5zM186 719q0 -129 21 -236 t57.5 -180t85 -123t102 -73t111.5 -23q62 0 118 21.5t108 70.5t89.5 121t60 180.5t22.5 241.5q0 329 -107 504.5t-266 175.5q-76 0 -146.5 -42t-128 -123t-92.5 -214.5t-35 -300.5z" />
<glyph unicode="&#x153;" horiz-adv-x="1282" d="M68 348q0 169 80.5 308t197.5 214q-56 -9 -114 -3t-89 20q4 13 13.5 40.5t13.5 41.5q88 -17 154.5 -19.5t102 4t90 17t101.5 14.5q55 -140 60 -262q133 226 496 260q53 -618 -484 -639q0 -150 17 -252q156 5 242.5 44t154.5 140q35 -18 88 -51q-94 -136 -217 -181.5 t-365 -45.5q-15 124 -12 186q-37 -95 -105.5 -146.5t-156.5 -51.5q-51 0 -96 19t-85 58.5t-63.5 113t-23.5 171.5zM166 336q0 -119 49 -185.5t127 -66.5q83 0 141.5 71t83.5 176t25 232q0 183 -51 322q-123 -38 -210 -128t-126 -197.5t-39 -223.5zM694 432q189 9 286 112.5 t91 323.5q-380 -72 -377 -436z" />
<glyph unicode="&#x178;" horiz-adv-x="1126" d="M20 1374v103h396v-103h-144q3 -200 83 -399.5t206 -319.5q129 118 208.5 313.5t80.5 405.5h-141v103h397v-103h-145q-1 -233 -98 -446t-249 -357v-469h158v-102h-422v102h156v469q-150 143 -245.5 356.5t-98.5 446.5h-142zM346 1642v240h105v-240h-105zM676 1642v240h104 v-240h-104z" />
<glyph unicode="&#x2c6;" horiz-adv-x="503" d="M0 1262l252 227l252 -227l-58 -50l-194 154l-193 -154z" />
<glyph unicode="&#x2dc;" horiz-adv-x="583" d="M0 1241q23 51 69 97t103 46q34 0 69 -16t58.5 -36t51.5 -36t50 -16q23 0 43 8.5t38 28.5t23.5 27t20.5 28l58 -29q-27 -56 -71 -98.5t-107 -42.5q-39 0 -81 27t-81 53.5t-70 26.5q-13 0 -25.5 -5t-21 -10t-20 -17.5t-16.5 -19t-17 -22.5t-15 -21z" />
<glyph unicode="&#x2000;" horiz-adv-x="958" />
<glyph unicode="&#x2001;" horiz-adv-x="1917" />
<glyph unicode="&#x2002;" horiz-adv-x="958" />
<glyph unicode="&#x2003;" horiz-adv-x="1917" />
<glyph unicode="&#x2004;" horiz-adv-x="639" />
<glyph unicode="&#x2005;" horiz-adv-x="479" />
<glyph unicode="&#x2006;" horiz-adv-x="319" />
<glyph unicode="&#x2007;" horiz-adv-x="319" />
<glyph unicode="&#x2008;" horiz-adv-x="239" />
<glyph unicode="&#x2009;" horiz-adv-x="383" />
<glyph unicode="&#x200a;" horiz-adv-x="106" />
<glyph unicode="&#x2010;" horiz-adv-x="784" d="M80 512v100h625v-100h-625z" />
<glyph unicode="&#x2011;" horiz-adv-x="784" d="M80 512v100h625v-100h-625z" />
<glyph unicode="&#x2012;" horiz-adv-x="784" d="M80 512v100h625v-100h-625z" />
<glyph unicode="&#x2013;" horiz-adv-x="983" d="M0 520v92h983v-92h-983z" />
<glyph unicode="&#x2014;" horiz-adv-x="2048" d="M195 522v92h1658v-92h-1658z" />
<glyph unicode="&#x2018;" horiz-adv-x="348" d="M106 989q-18 237 4.5 376t104.5 255l64 -57q-54 -127 -65.5 -232.5t-2.5 -341.5h-105z" />
<glyph unicode="&#x2019;" horiz-adv-x="348" d="M70 1044q54 126 65 231t2 343h105q18 -237 -4.5 -376t-104.5 -255z" />
<glyph unicode="&#x201a;" horiz-adv-x="372" d="M109 -303q54 126 65 231t2 342h105q18 -237 -4.5 -375t-104.5 -255z" />
<glyph unicode="&#x201c;" horiz-adv-x="638" d="M111 987q-21 235 3.5 382.5t104.5 248.5l64 -57q-52 -115 -66 -231.5t-2 -342.5h-104zM375 987q-21 234 3.5 382t102.5 249l66 -57q-53 -114 -66.5 -230t-1.5 -344h-104z" />
<glyph unicode="&#x201d;" horiz-adv-x="638" d="M92 1044q53 114 66.5 230t1.5 344h104q21 -234 -3.5 -382t-102.5 -249zM356 1044q52 115 66 231.5t2 342.5h104q21 -235 -3.5 -382.5t-104.5 -248.5z" />
<glyph unicode="&#x201e;" horiz-adv-x="638" d="M84 -311q53 114 66.5 229.5t1.5 343.5h104q21 -234 -3.5 -382t-102.5 -249zM348 -311q52 115 66 231t2 342h104q21 -235 -3.5 -382.5t-104.5 -248.5z" />
<glyph unicode="&#x2022;" horiz-adv-x="522" d="M80 686q0 75 53 127.5t129 52.5q74 0 127 -52.5t53 -127.5q0 -74 -53.5 -128t-126.5 -54q-76 0 -129 54t-53 128z" />
<glyph unicode="&#x2026;" horiz-adv-x="1028" d="M109 0v266h110v-266h-110zM457 0v266h110v-266h-110zM809 0v266h111v-266h-111z" />
<glyph unicode="&#x202f;" horiz-adv-x="383" />
<glyph unicode="&#x2039;" horiz-adv-x="673" d="M29 553l512 502l63 -66l-454 -436l456 -434l-65 -66z" />
<glyph unicode="&#x203a;" horiz-adv-x="673" d="M68 119l456 434l-454 436l63 66l512 -502l-512 -500z" />
<glyph unicode="&#x205f;" horiz-adv-x="479" />
<glyph unicode="&#x20ac;" horiz-adv-x="1171" d="M68 819l26 86h156q53 249 186.5 377.5t298.5 128.5q83 0 163 -42.5t126 -100.5l-41 -94q-4 6 -11 15t-31.5 33t-51 42.5t-68.5 33.5t-86 15q-136 0 -230 -112.5t-138 -295.5h475l-29 -86h-467q-12 -102 -16 -153h512l-27 -88h-483q6 -243 100 -373.5t246 -130.5 q209 0 340 239l86 -41q-161 -297 -426 -297q-97 0 -176.5 35.5t-141.5 107t-97.5 189t-39.5 271.5h-153l24 88h129q0 71 10 153h-165z" />
<glyph unicode="&#x2122;" horiz-adv-x="1636" d="M29 1278l2 162h639v-162h-82v88h-195v-659h94v-76h-274v76h94v659h-196v-88h-82zM627 631v76h90l110 659h-84v74h215l138 -660l147 660h215v-74h-86l113 -659h88v-76h-244v76h78l-109 655l-165 -739h-72l-162 739l-104 -655h75v-76h-243z" />
<glyph unicode="&#x25fc;" horiz-adv-x="972" d="M0 0v973h973v-973h-973z" />
</font>
</defs>
</svg>
