<?xml version="1.0" standalone="no"?>
<!DOCTYPE svg PUBLIC "-//W3C//DTD SVG 1.1//EN" "http://www.w3.org/Graphics/SVG/1.1/DTD/svg11.dtd" >
<svg xmlns="http://www.w3.org/2000/svg">
<metadata></metadata>
<defs>
<font id="nautiklight" horiz-adv-x="1413" >
<font-face units-per-em="2048" ascent="1622" descent="-426" />
<missing-glyph horiz-adv-x="409" />
<glyph unicode="&#xfb01;" horiz-adv-x="899" d="M90 893v45h98v66q0 108 22.5 185.5t65 123.5t103.5 69.5t139 23.5t172 -13l-12 -45q-242 32 -341 -49t-99 -295v-66h481v-893h98v-45h-248v45h101v848h-432v-848h92v-45h-226v45h84v848h-98z" />
<glyph unicode="&#xfb02;" horiz-adv-x="860" d="M90 893v45h98v66q0 152 30 252.5t90 155.5t151 71t213 -2v-1223q0 -108 45 -160t119 -57l-5 -45q-95 3 -151.5 70.5t-56.5 191.5v1182q-91 9 -158 -6t-110.5 -49.5t-69.5 -92.5t-36.5 -128t-10.5 -165v-61h127v-45h-127v-848h90v-45h-224v45h84v848h-98z" />
<glyph horiz-adv-x="0" />
<glyph unicode="&#xd;" horiz-adv-x="2048" />
<glyph unicode=" "  horiz-adv-x="409" />
<glyph unicode="&#x09;" horiz-adv-x="409" />
<glyph unicode="&#xa0;" horiz-adv-x="409" />
<glyph unicode="!" horiz-adv-x="358" d="M205 0v262h51v-262h-51zM205 543v1069h51v-1069h-51z" />
<glyph unicode="&#x22;" horiz-adv-x="507" d="M117 1030q-24 388 67 592l41 -14q-79 -219 -59 -578h-49zM301 1030q-24 386 68 592l41 -14q-81 -216 -58 -578h-51z" />
<glyph unicode="#" horiz-adv-x="987" d="M51 422l4 47h230l55 377h-231l2 47h237l64 405h49l-62 -405h281l61 405h52l-62 -405h221l-2 -47h-227l-57 -377h229l-2 -47h-234l-65 -422h-51l65 422h-282l-64 -422h-49l63 422h-225zM334 469h282l58 377h-281z" />
<glyph unicode="$" horiz-adv-x="1056" d="M102 -16v471h52v-174q38 -113 134.5 -183.5t219.5 -74.5v790q-51 17 -83.5 28.5t-78.5 31.5t-75.5 39t-62 47.5t-51.5 60.5t-31.5 74.5t-12.5 91.5q0 88 34 160t90.5 116.5t126.5 67t144 18.5v146h49v-148q80 -14 145.5 -62t106.5 -124v158h51v-410h-51v125 q-30 110 -95.5 176t-156.5 84v-643q410 -108 410 -447q0 -193 -111.5 -307t-298.5 -123v-163h-49v163q-111 0 -203 54.5t-151 148.5v-192h-52zM164 1186q0 -56 20.5 -102.5t50.5 -77.5t79.5 -59t91.5 -45t102 -36v631q-65 4 -126 -14.5t-110 -56t-78.5 -100t-29.5 -140.5z M557 23q165 9 261.5 109.5t96.5 270.5q0 65 -16.5 120t-48 94.5t-64.5 69t-78.5 52t-77.5 35t-73 25.5v-776z" />
<glyph unicode="%" horiz-adv-x="1290" d="M72 1188q0 144 64 254t163 110q60 0 104 -31t68 -84t35.5 -114.5t11.5 -132.5q0 -143 -53 -232.5t-168 -89.5q-62 0 -106.5 25.5t-70 71t-37 100.5t-11.5 123zM117 1188q0 -277 180 -277q178 0 178 279q0 319 -176 319q-78 0 -130 -94t-52 -227zM340 0 q107 304 310.5 875.5t240.5 674.5h49q-37 -103 -240.5 -674.5t-310.5 -875.5h-49zM756 317q0 91 27 173.5t80 136t120 53.5q60 0 103.5 -31t67.5 -84.5t35 -114.5t11 -131q0 -145 -52 -233t-167 -88q-119 0 -172 87.5t-53 231.5zM799 317q0 -276 182 -276q176 0 176 276 q0 320 -174 320q-78 0 -131 -94.5t-53 -225.5z" />
<glyph unicode="&#x26;" horiz-adv-x="1132" d="M86 -8q-2 298 11.5 454.5t56.5 260.5q15 36 32.5 63.5t48.5 55t51 42.5t70 50q-5 7 -17 25t-35 58.5t-41.5 82.5t-33 95t-14.5 97q0 100 78.5 181t198.5 81q62 0 112 -25.5t78.5 -64.5t43.5 -81.5t15 -82.5l-47 -27q0 87 -55.5 158.5t-149.5 71.5q-90 0 -156.5 -63.5 t-66.5 -143.5q0 -100 73.5 -233t356.5 -558l6 11q5 11 12.5 28.5t17.5 43t19.5 59t17 70.5t12.5 83t5 93h234v-50h-189q0 -64 -14.5 -133t-35.5 -121t-35 -82t-21 -42l21 -30q36 -51 56.5 -80t59 -80t66 -81.5t61.5 -64t62.5 -49t52.5 -15.5l2 -55q-47 0 -99.5 33 t-111 103.5t-90 112.5t-87.5 125q-4 5 -5.5 7.5t-4.5 7t-5.5 8t-4.5 6.5q-106 -165 -221 -258q-186 -147 -391 -147zM137 47q145 0 320 139q124 103 211 254q-236 359 -283 434q-80 -47 -125 -92.5t-72 -122.5q-24 -73 -35.5 -177.5t-13.5 -186.5t-2 -248z" />
<glyph unicode="'" horiz-adv-x="323" d="M115 1030q-10 208 2 330.5t65 261.5l39 -14q-44 -136 -54 -249.5t-3 -328.5h-49z" />
<glyph unicode="(" horiz-adv-x="264" d="M37 635q0 171 18.5 349t47.5 317t44.5 203.5t28.5 107.5l51 10q-141 -552 -141 -989q0 -180 35 -431.5t63 -386t43 -194.5l-51 8q-9 33 -27.5 117t-46 228t-46.5 324.5t-19 336.5z" />
<glyph unicode=")" horiz-adv-x="264" d="M27 -379q141 552 141 989q0 180 -35 431.5t-63 386t-43 194.5l51 -8q9 -33 27.5 -117t46 -228t46.5 -324.5t19 -336.5q0 -171 -18.5 -349t-47.5 -317t-44.5 -203.5t-28.5 -107.5z" />
<glyph unicode="*" horiz-adv-x="673" d="M53 1360l15 45l247 -86l-4 264h49l-4 -264l248 86l14 -45l-251 -78l157 -211l-39 -29l-149 215l-154 -215l-39 31l158 205z" />
<glyph unicode="+" horiz-adv-x="782" d="M53 543v45h314v368h49v-368h311v-45h-311v-375h-49v375h-314z" />
<glyph unicode="," horiz-adv-x="313" d="M98 -307q45 137 54.5 250.5t3.5 326.5h49q10 -206 -2 -329.5t-66 -262.5z" />
<glyph unicode="-" horiz-adv-x="782" d="M90 567v47h602v-47h-602z" />
<glyph unicode="." horiz-adv-x="313" d="M162 0v268h53v-268h-53z" />
<glyph unicode="/" horiz-adv-x="731" d="M10 -268l658 1843h53l-658 -1843h-53z" />
<glyph unicode="0" horiz-adv-x="860" d="M88 485q0 139 43 266t124.5 209t182.5 82q91 0 158 -47.5t104 -129t54.5 -176t17.5 -202.5q0 -105 -18 -191.5t-56.5 -156t-105 -108.5t-156.5 -39q-76 0 -136.5 26t-99.5 70.5t-64.5 108t-36.5 134.5t-11 154zM139 485q0 -208 71.5 -327t225.5 -119q148 0 217.5 120.5 t69.5 327.5q0 105 -16 194t-48.5 160.5t-89 112.5t-131.5 41q-81 0 -150.5 -72t-109 -189.5t-39.5 -248.5z" />
<glyph unicode="1" horiz-adv-x="608" d="M66 930l288 117v-1002h211v-45h-473v45h215v934l-219 -90z" />
<glyph unicode="2" horiz-adv-x="694" d="M59 0q41 186 105 301.5t198 249.5q180 180 185 448q-57 1 -110 -3.5t-114.5 -22t-105.5 -47t-71.5 -83.5t-24.5 -126l-43 4q-3 71 18.5 126.5t63 90t90.5 57.5t113 34t117.5 15t115.5 3q-2 -119 -22.5 -210.5t-54 -152t-74.5 -110.5t-87 -99.5t-88 -103t-82 -137 t-65 -187.5h450v150h50v-197h-564z" />
<glyph unicode="3" horiz-adv-x="727" d="M14 -252q127 63 225.5 132t160.5 134t102 134.5t55.5 130.5t15.5 124q0 68 -28.5 113.5t-74 62.5t-100 17t-108.5 -16t-98 -43l-21 41q156 71 252.5 166t169.5 239h-446v-143h-47v190h565q-51 -127 -131 -234t-176 -161q141 23 217 -44t76 -183q0 -91 -31.5 -180 t-98.5 -180.5t-184.5 -180t-277.5 -164.5z" />
<glyph unicode="4" horiz-adv-x="802" d="M59 104q12 95 23 166t32.5 168.5t47 169.5t66 151.5t89 133.5t117 96t150.5 58v-895h139v-48h-139v-346h108v-45h-272v45h115v346h-476zM115 152h420v829q-167 -53 -267 -246t-153 -583z" />
<glyph unicode="5" horiz-adv-x="739" d="M59 -252q98 55 171 103.5t142.5 108.5t113 120.5t70 135.5t26.5 157q0 112 -55 171.5t-138 59.5q-50 0 -117 -25.5t-98.5 -43.5t-50.5 -31v526h516v-188h-51v141h-416v-403q9 6 38 21t83 32.5t98 17.5q118 0 178 -75.5t60 -200.5q0 -109 -38 -203.5t-115 -176 t-170.5 -149t-225.5 -141.5z" />
<glyph unicode="6" horiz-adv-x="806" d="M90 377q0 532 234 766q178 181 409 184l4 -49q-114 -1 -205 -44.5t-174 -125.5q-90 -87 -148 -237.5t-71 -348.5q43 136 181 217t296 78q76 -250 76 -409q0 -207 -78 -310.5t-208 -103.5q-144 0 -230 93.5t-86 289.5zM139 360q0 -160 73 -239.5t194 -79.5q48 0 88 18 t74.5 58.5t53.5 114t19 174.5q0 149 -63 360q-184 -6 -311.5 -125.5t-127.5 -280.5z" />
<glyph unicode="7" horiz-adv-x="792" d="M31 846v186h749l23 -55q-66 -45 -112 -82.5t-100.5 -96.5t-91 -123.5t-73 -160t-57.5 -209t-33.5 -267.5t-11.5 -339h-50q0 250 23 443.5t60 323t98.5 231.5t124 164t151.5 124h-651v-139h-49z" />
<glyph unicode="8" horiz-adv-x="827" d="M80 334q0 115 70 239t184 218q-83 70 -121.5 131t-38.5 135q0 105 83 186.5t206 81.5q107 0 178.5 -74.5t71.5 -181.5q0 -186 -185 -367q107 -88 162 -179t55 -201q0 -159 -96 -248.5t-237 -89.5q-155 0 -243.5 99t-88.5 251zM131 336q0 -134 80.5 -219.5t202.5 -85.5 q50 0 97.5 16t90 49t68.5 90.5t26 132.5q0 60 -20 116t-49 99t-76.5 88t-86.5 74.5t-95 67.5q-117 -100 -177.5 -212.5t-60.5 -215.5zM225 1057q0 -36 12 -70t27.5 -58t48 -54.5t53.5 -47t65 -49t63 -47.5q170 166 170 336q0 86 -59.5 148.5t-141.5 62.5q-101 0 -169.5 -68 t-68.5 -153z" />
<glyph unicode="9" horiz-adv-x="774" d="M35 -238q102 0 201.5 45t179.5 125q85 85 144 240t71 348q-43 -138 -178 -219t-293 -78q-85 203 -82 410q0 92 17 165.5t52 130.5t96 88.5t144 31.5q152 0 223.5 -101.5t71.5 -273.5q0 -545 -231 -776q-180 -180 -412 -183zM127 635q0 -218 70 -361q120 1 221 59t158 151 t57 198q0 155 -64.5 236t-181.5 81q-132 0 -196 -96t-64 -268z" />
<glyph unicode=":" horiz-adv-x="311" d="M162 0v268h51v-268h-51zM162 670v268h51v-268h-51z" />
<glyph unicode=";" horiz-adv-x="309" d="M98 -309q45 137 54.5 250.5t3.5 326.5h49q10 -205 -2 -328t-66 -262zM156 668v270h49v-270h-49z" />
<glyph unicode="&#x3c;" horiz-adv-x="780" d="M31 553l643 446l31 -45l-586 -401l586 -401l-31 -46z" />
<glyph unicode="=" horiz-adv-x="894" d="M80 397v49h735v-49h-735zM82 594v47h733v-47h-733z" />
<glyph unicode="&#x3e;" horiz-adv-x="780" d="M76 152l586 401l-586 401l30 45l644 -446l-644 -447z" />
<glyph unicode="?" horiz-adv-x="747" d="M154 1325v227q42 -8 96.5 -24.5t127 -48.5t131 -70t99.5 -94t41 -117q0 -46 -19.5 -87.5t-51.5 -72t-70 -59.5t-76 -56.5t-70 -56t-51.5 -65t-19.5 -76.5q0 -34 11 -64.5t23 -47t31 -32t24 -18l13 -6.5l-20 -43q-13 5 -27.5 15t-41 34t-43.5 66.5t-17 95.5 q0 47 19.5 88.5t51 73t69.5 60t76 56t69.5 55.5t51 63.5t19.5 74.5q0 52 -40.5 101.5t-104 86.5t-127 63t-125.5 42v-164h-49zM326 0v268h49v-268h-49z" />
<glyph unicode="@" horiz-adv-x="1382" d="M80 297q0 91 22 190t64 199.5t109.5 190.5t151.5 160.5t198 111.5t241 41q80 0 144.5 -17t109.5 -45t78.5 -71t53 -88t31.5 -102.5t16 -109t4 -112.5q0 -111 -29.5 -216t-86 -197t-149 -160.5t-209.5 -98.5l33 394q-54 -185 -180 -284t-287 -99q0 255 26 406.5t109 258.5 q136 169 416 236l-65 -846q82 29 147.5 83t106 116.5t68 135.5t38 139t10.5 130q0 266 -90 382t-295 116q-144 0 -268 -56t-207.5 -146t-143 -203.5t-87 -227.5t-27.5 -219q0 -255 99.5 -406t281.5 -151q145 0 270 71l25 -45q-128 -73 -301 -73q-67 0 -126.5 19t-115.5 64 t-96.5 113.5t-65 175t-24.5 240.5zM446 35q144 14 234 104q111 112 150.5 246t58.5 436q-207 -63 -314 -192q-75 -92 -101 -228.5t-28 -365.5z" />
<glyph unicode="A" d="M10 0v49h162l487 1456h-155v49h233l506 -1505h160v-49h-371v49h158l-186 557h-592l-187 -557h158v-49h-373zM428 655h557l-278 836z" />
<glyph unicode="B" horiz-adv-x="1099" d="M98 0v49h150v1419h-150v50h389q217 0 332 -99t115 -268q0 -118 -64 -212t-178 -124q135 -30 230.5 -143.5t95.5 -251.5q0 -197 -121 -308.5t-373 -111.5h-426zM301 49h223q441 0 441 371q0 152 -113 259.5t-279 108.5h-272v-739zM301 838h256q158 0 241 88t83 225 q0 146 -98 231.5t-296 85.5h-186v-630z" />
<glyph unicode="C" horiz-adv-x="1026" d="M72 672q0 191 32.5 344.5t84 250t120.5 161t137.5 90.5t139.5 26q110 0 185.5 -51.5t100.5 -138.5v104l-2 80h54v-416h-54v49q0 143 -75.5 232.5t-210.5 89.5q-69 0 -134.5 -30t-125.5 -95.5t-104 -159.5t-70 -233q-25 -134 -25 -293v-12q0 -133 21.5 -245t66.5 -203.5 t123.5 -143t183.5 -51.5q119 0 214 70.5t161 199.5l41 -25q-70 -139 -175.5 -217t-240.5 -78q-35 0 -68.5 5t-80 22.5t-86 47t-80 82.5t-69 124t-46.5 177.5t-18 236.5z" />
<glyph unicode="D" horiz-adv-x="1204" d="M98 0v49h148v1419h-148v50h375q323 0 487 -201.5t164 -564.5q0 -752 -602 -752h-424zM299 49h223q128 0 225.5 37.5t158 100t98.5 155t52.5 191t14.5 219.5q0 348 -150 532t-448 184h-174v-1419z" />
<glyph unicode="E" horiz-adv-x="1187" d="M98 0v49h156v1419h-156v50h994v-205h-56v155h-729v-600h672v-49h-672v-770h729v156h56v-205h-994z" />
<glyph unicode="F" horiz-adv-x="1103" d="M98 0v49h168v1419h-153v50h981v-205h-56v155h-719v-600h711v-49h-711v-770h164v-49h-385z" />
<glyph unicode="G" horiz-adv-x="1071" d="M63 684q0 108 14 211.5t40.5 199.5t69.5 177t97.5 141t127.5 93.5t157 33.5q107 0 180 -47t115 -119q0 22 -1 77t-1 85h53v-416h-53v142q0 24 -19 60t-53.5 74.5t-93.5 65.5t-127 27q-113 0 -202 -70t-142 -187t-80.5 -258.5t-27.5 -295.5q0 -325 103.5 -488t289.5 -163 q80 0 163 41.5t146 123t74 181.5l2 344h-250v51h303v-772h-53v115q0 19 1 62t1 60q-50 -121 -159.5 -188.5t-225.5 -67.5q-76 0 -139 21.5t-108.5 59t-81 91t-58 114t-37 133t-20 142t-5.5 146.5z" />
<glyph unicode="H" horiz-adv-x="1359" d="M98 0v49h156v1419h-156v50h359v-50h-150v-600h746v600h-152v50h361v-50h-156v-1419h156v-49h-361v49h152v770h-746v-770h150v-49h-359z" />
<glyph unicode="I" horiz-adv-x="557" d="M98 0v49h154v1419h-154v50h363v-50h-156v-1419h156v-49h-363z" />
<glyph unicode="J" horiz-adv-x="548" d="M0 -362q48 17 86.5 41t67 60t49 74t34.5 95.5t22.5 111.5t12.5 134.5t5.5 151.5t1.5 175v987h-154v50h356v-50h-147v-987q0 -107 -1 -180.5t-5.5 -158t-14 -141.5t-25 -118.5t-39 -103t-56.5 -81t-77 -66t-100 -44.5z" />
<glyph unicode="K" horiz-adv-x="1204" d="M98 1468v50h338v-50h-131v-657q62 0 110 1q145 0 165 -5l323 661h-135v50h326v-50h-136l-325 -669q133 -32 203 -172q30 -46 60 -129t109 -332q24 -75 37 -117h138v-49h-176q-144 457 -171 526q-18 43 -36 72q-46 85 -111 123.5t-166 38.5h-215v-711h131v-49h-336v49h152 v1419h-154z" />
<glyph unicode="L" horiz-adv-x="1013" d="M98 0v49h152v1419h-152v50h359v-50h-154v-1419h645v139h53v-188h-903z" />
<glyph unicode="M" horiz-adv-x="1603" d="M20 0v49h160l217 1419h-151v50h243l308 -1395l319 1395h242v-50h-152l219 -1419h158v-49h-358v49h147l-219 1419l-340 -1488h-35l-332 1488l-213 -1419h146v-49h-359z" />
<glyph unicode="N" horiz-adv-x="1386" d="M98 0v49h156v1419h-156v50h242l754 -1407v165v1192h-158v50h364v-50h-155v-1491h-41l-799 1491l2 -149v-1270h158v-49h-367z" />
<glyph unicode="O" horiz-adv-x="1163" d="M80 725q0 366 147.5 590.5t368.5 224.5q146 0 257.5 -106.5t169.5 -290.5t58 -418q0 -216 -67.5 -386t-186 -262.5t-266.5 -92.5q-142 0 -252 94.5t-169.5 263t-59.5 383.5zM133 725q0 -311 119 -500.5t309 -189.5q130 0 236 83.5t168.5 242t62.5 364.5q0 225 -53.5 399 t-152 270.5t-226.5 96.5q-197 0 -330 -208t-133 -558z" />
<glyph unicode="P" horiz-adv-x="1001" d="M98 0v49h156v1419h-156v50h379q231 0 363 -114q131 -113 131 -326q0 -82 -22.5 -147t-58.5 -109.5t-90 -78t-110 -53.5t-125 -32t-129 -16.5t-129 -4.5v-588h158v-49h-367zM307 686q64 0 119.5 3.5t119.5 14.5t115.5 28.5t100.5 47.5t82.5 70t53.5 98t20 129 q0 189 -115 290t-326 101h-170v-782z" />
<glyph unicode="Q" horiz-adv-x="1167" d="M80 721q0 230 68.5 417.5t187 293.5t262.5 106q146 0 258 -107t170.5 -292t58.5 -418q0 -267 -95 -457.5t-257 -253.5q11 -26 24 -50t38.5 -55.5t55.5 -54.5t75 -39t96 -16v-49q-62 0 -116 19t-88.5 45.5t-64 63.5t-43.5 64t-26 56q-58 -14 -104 -14q-144 0 -258 94.5 t-178 264t-64 382.5zM133 721q0 -308 127.5 -499t319.5 -191q198 0 325 189t127 501q0 341 -120 553.5t-314 212.5q-94 0 -179.5 -57t-148.5 -157t-100 -243.5t-37 -308.5z" />
<glyph unicode="R" horiz-adv-x="1165" d="M98 0v49h154v1419h-154v50h207q84 0 122.5 -0.5t98.5 -2.5t88.5 -6.5t69.5 -12.5t65.5 -20.5t52 -31t52.5 -43.5q115 -115 115 -287q0 -148 -76 -249t-205 -120q60 -12 111 -63q14 -14 26.5 -31t22 -33t19 -42t16 -44t15 -56t13.5 -61t13.5 -75t13.5 -82.5t15.5 -98.5 t17.5 -110h131v-49h-180q-8 48 -23.5 159t-24.5 165t-26.5 130.5t-40.5 124.5t-53 78q-37 37 -91 51.5t-139 14.5h-219v-674h154v-49h-361zM305 772h275q162 0 248.5 91.5t86.5 248.5t-98 252q-25 26 -52 44t-65.5 29.5t-66 18t-85 9t-89.5 3t-110 0.5h-15h-13.5h-15.5v-696 z" />
<glyph unicode="S" horiz-adv-x="1060" d="M102 -6v467h54v-162q39 -124 139 -195t229 -71q182 0 286.5 99.5t104.5 279.5q0 86 -27.5 151t-74 105.5t-106.5 70.5t-126.5 51t-133 41.5t-126.5 47.5t-106.5 63t-74 95t-27.5 137q0 87 33 157.5t87.5 114t122.5 67t142 23.5q101 0 183.5 -51t129.5 -144l-2 80v80h53 v-405h-53v116q-30 133 -113.5 204t-197.5 71q-89 0 -162.5 -34t-121.5 -107t-48 -172q0 -59 21.5 -106t49.5 -76t84 -56.5t93.5 -40.5t111.5 -35q86 -26 131 -42t115.5 -53.5t106 -79t64 -112.5t28.5 -161q0 -200 -122.5 -315t-324.5 -115q-118 0 -214 53.5t-156 152.5 l2 -61v-133h-54z" />
<glyph unicode="T" horiz-adv-x="1177" d="M18 1317v201h1139v-201h-53v151h-488v-1417h154v-49h-360v49h153v1417h-491v-151h-54z" />
<glyph unicode="U" horiz-adv-x="1347" d="M82 1468v50h229v-1467q66 4 142 39t155 96.5t152 156t130.5 208.5t91.5 263t34 310v344h-152v50h363v-50h-158v-1419h180v-49h-233v774q-28 -139 -88.5 -264t-138.5 -217.5t-169 -160t-184 -102t-178 -34.5v1472h-176z" />
<glyph unicode="V" horiz-adv-x="1216" d="M84 1468v50h360v-50h-151v-1435q126 25 227.5 83t173 136t125 186t85.5 220t51.5 253.5t27 271t8.5 285.5h-153v50h358v-50h-152q-1 -111 -4.5 -203t-14 -210.5t-28 -215t-48 -205.5t-72 -194.5t-102.5 -169t-136.5 -142t-177 -100.5t-221.5 -57v1497h-156z" />
<glyph unicode="W" horiz-adv-x="1757" d="M82 1468v50h362v-50h-153v-1441q207 46 339 212t196 480q60 291 59 722v68h51v-1482q88 17 162.5 58.5t130 97t100.5 134.5t75.5 159.5t53.5 183.5t36 194.5t21 206.5t11 205t4 202h-152v50h361v-50h-156q-1 -110 -3 -199t-11.5 -210t-24 -218.5t-41 -209.5t-62 -199 t-89 -172t-119 -143t-154.5 -97.5t-194 -48.5l4 901q-16 -184 -63.5 -338.5t-126 -277t-196.5 -198t-265 -89.5v1499h-156z" />
<glyph unicode="X" horiz-adv-x="1169" d="M37 0v49h160q2 128 23.5 239t51 187.5t79.5 152t89 120t99 104.5q-86 69 -141.5 125.5t-100.5 129.5t-65.5 161t-20.5 200h-160v50h361v-50h-148v-27q0 -173 71 -299q77 -136 238 -257q18 18 58.5 58t58 57.5t51 53.5t48.5 57.5t39.5 57t36 65t24.5 68t18 79.5t6 87h-149 v50h358v-50h-155q-1 -46 -8 -89t-15 -78t-25 -72t-30.5 -63.5t-38.5 -59.5t-41.5 -53.5t-47.5 -52.5t-48.5 -49t-52.5 -50t-52 -49q57 -50 97.5 -93t86.5 -113t74.5 -149t48 -194t21.5 -254h197v-49h-250q0 147 -18 267.5t-44.5 200.5t-71 151t-82.5 112.5t-94 91.5 q-55 -56 -94.5 -102.5t-85 -118.5t-73.5 -147.5t-48 -180.5t-22 -225h143v-49h-356z" />
<glyph unicode="Y" horiz-adv-x="1136" d="M20 1468v50h359v-50h-152q3 -231 95.5 -463t244.5 -384q150 150 243.5 381.5t96.5 465.5h-149v50h358v-50h-155q-3 -248 -105.5 -490t-263.5 -400v-529h156v-49h-361v49h154v529q-160 159 -262 401t-105 489h-154z" />
<glyph unicode="Z" horiz-adv-x="1112" d="M86 0l850 1468h-733v-198h-53v248h876l-850 -1469h760v197h55v-246h-905z" />
<glyph unicode="[" horiz-adv-x="305" d="M45 -426v2001h234v-49h-181v-1903h181v-49h-234z" />
<glyph unicode="\" horiz-adv-x="731" d="M10 1575h53l658 -1843h-53z" />
<glyph unicode="]" horiz-adv-x="305" d="M27 -377h180v1903h-180v49h233v-2001h-233v49z" />
<glyph unicode="^" horiz-adv-x="907" d="M86 858l334 660h69l334 -660l-55 -14l-313 633l-316 -633z" />
<glyph unicode="_" horiz-adv-x="993" d="M35 0h921v-49h-921v49z" />
<glyph unicode="`" horiz-adv-x="335" d="M0 1358l29 51l307 -149l-23 -39z" />
<glyph unicode="a" horiz-adv-x="843" d="M108 366q2 156 48 267.5t160 186.5t321 128v-903h127v-45h-174v254q0 17 2 91q2 53 2 78v15q-10 -196 -142 -324q-125 -121 -309 -120h-20q-16 198 -16 347q1 12 1 25zM157 364q0 -18 -1 -37q0 -124 12 -284q76 6 138 32t105 65t76 93t52 109.5t31 121t16 121.5t4 117 v183q-171 -48 -265.5 -117.5t-130 -168t-37.5 -235.5z" />
<glyph unicode="b" horiz-adv-x="800" d="M80 1444v45h221v-45h-86v-699q0 -84 -4 -186q6 33 15 61t29.5 69.5t55.5 76.5t85.5 71t129 65t176.5 48q9 -118 10 -221q0 -85 -7 -159q-14 -164 -69.5 -281.5t-169.5 -191.5t-298 -109v1456h-88zM213 45q122 31 205.5 79t135 118t76.5 164q24 94 30 215q2 46 3 96 q0 82 -6 176q-165 -40 -259 -107.5t-139 -184t-46 -304.5v-252z" />
<glyph unicode="c" horiz-adv-x="729" d="M106 476q18 194 139 307t384 167v-254h-49v195q-164 -39 -259 -108.5t-133 -172.5q-38 -102 -40 -244v-32q0 -130 18 -295q167 0 259.5 51.5t160.5 196.5l41 -19q-33 -73 -71.5 -123t-80.5 -80.5t-99 -47t-114.5 -22t-140.5 -5.5q-21 188 -21 335q-1 81 6 151z" />
<glyph unicode="d" horiz-adv-x="847" d="M122 466q14 188 122.5 300t351.5 174v500h-86v45h221v-45h-86v-1395h123v-45h-172v279q1 23 4.5 83t3.5 84q-20 -220 -152 -340q-124 -112 -296 -112h-23q-16 180 -16 321q0 82 5 151zM170 466q-6 -68 -6 -151q0 -121 14 -272q202 8 313 180q105 163 105 461v33v172 q-213 -50 -311.5 -151.5t-114.5 -271.5z" />
<glyph unicode="e" horiz-adv-x="770" d="M106 350q1 269 115 407q130 156 426 189q10 -71 10 -134q0 -195 -96 -313q-122 -151 -383 -151h-20q0 -156 22 -309q177 3 274 46t175 159l41 -27q-92 -132 -205.5 -177.5t-333.5 -45.5q-25 260 -25 356zM160 395h28q94 0 170 24q86 28 147 87.5t87 158.5q17 64 17 142 q0 42 -5 88q-124 -18 -211.5 -61.5t-137 -110t-72 -146.5t-23.5 -182z" />
<glyph unicode="f" horiz-adv-x="507" d="M100 893v45h97v283q0 129 59.5 195.5t157.5 68.5l6 -45q-78 -5 -126 -58t-48 -161v-283h104v-45h-104v-848h90v-45h-221v45h82v848h-97z" />
<glyph unicode="g" horiz-adv-x="780" d="M120 446q4 187 127.5 312t403.5 190v-819q0 -122 -35.5 -218t-90 -153t-127 -94.5t-138.5 -51t-133 -13.5v172h49v-123q38 3 75 10.5t80.5 24.5t81 40.5t73.5 61t61.5 85t41 114t15.5 145.5t2 130.5t2 92.5q-59 -353 -469 -358q-20 223 -20 391q0 31 1 61zM170 460 q-6 -57 -6 -124q0 -128 20 -293q72 8 129 25t113.5 55.5t94 97t60.5 153.5t23 220v291q-219 -59 -319 -159t-115 -266z" />
<glyph unicode="h" horiz-adv-x="888" d="M92 0v45h98v1395h-98v45h250v-45h-102v-660q0 -29 -3 -94.5t-4 -91.5q28 140 155 242t319 112v-903h100v-45h-246v45h96v850q-60 -6 -116.5 -25.5t-112.5 -58.5t-97.5 -93.5t-66.5 -136.5q-24 -79 -24 -174v-8v-354h100v-45h-248z" />
<glyph unicode="i" horiz-adv-x="456" d="M90 893v45h186v-893h99v-45h-248v45h100v848h-137zM227 1161v271h49v-271h-49z" />
<glyph unicode="j" horiz-adv-x="452" d="M-31 -356q34 0 66 9.5t66 37t59 70.5t41 117t16 169v846h-96v45h241v-45h-96v-846q0 -101 -17 -180t-44.5 -128.5t-66 -81.5t-78.5 -45t-85 -13zM217 1161v271h53v-271h-53z" />
<glyph unicode="k" horiz-adv-x="854" d="M90 0v45h107v1393h-99v45h248v-45h-100v-926q138 98 193 149q122 116 126 232h-84v45h226v-45h-93q-8 -94 -65 -171.5t-152 -152.5q143 -75 203.5 -191t79.5 -333h149v-45h-196q-6 102 -19 177t-42 148.5t-82 127t-130 88.5l-114 -78v-418h104v-45h-260z" />
<glyph unicode="l" horiz-adv-x="403" d="M68 1438v45h225v-45h-88v-1180q0 -109 45.5 -160.5t120.5 -56.5l-6 -45q-94 3 -151.5 70.5t-57.5 191.5v1180h-88z" />
<glyph unicode="m" horiz-adv-x="1292" d="M90 893v45h191v-41q0 -91 -11 -289q29 168 134 250q104 81 287 80h5v-53q0 -47 -5 -155.5t-5 -121.5q30 169 134 250q103 80 289 80h5l-2 -893h100v-45h-245v45h98v848q-87 -2 -151.5 -27.5t-115 -83t-76.5 -157t-26 -240.5v-385h-47v895q-67 -3 -120.5 -18.5t-101 -51.5 t-79 -92.5t-49.5 -143.5t-18 -202v-342h96v-45h-248v45h102v848h-141z" />
<glyph unicode="n" horiz-adv-x="931" d="M90 893v45h191v-137q0 -2 -2 -40.5t-4 -90t-3 -80.5q36 175 158 266q120 90 318 90h4v-901h98v-45h-246v45h98v850q-196 -3 -308.5 -133.5t-112.5 -376.5v-340h96v-45h-248v45h102v848h-141z" />
<glyph unicode="o" horiz-adv-x="768" d="M78 338q0 191 99.5 350.5t221.5 210.5q-37 -7 -75 -7q-56 0 -115 15l12 39q70 -12 125 -13h16q43 1 69 5q30 6 78 14.5t87 12.5q35 -74 55.5 -188.5t20.5 -229.5q0 -266 -95.5 -418t-246.5 -152q-47 0 -90 19t-80.5 59.5t-59.5 113t-22 169.5zM127 328q0 -148 59 -225.5 t144 -77.5q129 0 211 138.5t82 383.5q0 212 -62 368q-134 -22 -235 -114.5t-150 -216.5t-49 -256z" />
<glyph unicode="p" horiz-adv-x="847" d="M80 893v45h184v-199q-5 -182 -6 -219q5 71 34.5 135.5t85.5 123t149.5 102t215.5 63.5q14 -155 14 -283q0 -110 -11 -199q-22 -192 -134 -302.5t-348 -161.5v-348h88v-45h-227v45h90v1243h-135zM262 221l2 -174q161 35 256.5 100t138.5 166t49 244q2 43 2 91 q0 110 -10 243q-94 -22 -164.5 -55.5t-118.5 -80t-79 -99t-47.5 -124t-22.5 -143.5q-6 -62 -6 -143v-25z" />
<glyph unicode="q" horiz-adv-x="804" d="M108 368q3 160 49 272.5t161 186.5t319 119v-1302h88v-45h-223v45h86v538q5 176 8 262q-4 -53 -20 -110t-52 -120.5t-87 -112.5t-133 -79q-75 -28 -163 -28h-18q-16 182 -16 324q0 26 1 50zM162 462q-6 -70 -6 -154q0 -118 12 -263q197 11 305.5 166.5t114.5 437.5v236 q-215 -53 -313 -154.5t-113 -268.5z" />
<glyph unicode="r" horiz-adv-x="751" d="M90 893v45h186v-172q0 -68 -10 -180q26 165 148 263q121 97 313 97h4v-250h-47v199q-67 -4 -124.5 -22t-110.5 -57t-91 -96.5t-60 -143.5t-22 -193v-338h109v-45h-264v45h106v848h-137z" />
<glyph unicode="s" horiz-adv-x="657" d="M111 -18v229h51v-172q143 30 241 117.5t99 199.5q0 41 -16.5 71t-44 46.5t-62.5 31.5t-72 24.5t-72 26t-62.5 36t-44.5 53.5t-17 80q0 65 35 113.5t95 75.5t128 39.5t145 13.5v-189h-49v137q-61 -2 -114 -13t-96.5 -32.5t-69 -58t-25.5 -84.5q0 -49 29 -82.5t72 -48.5 t93.5 -33.5t93.5 -38t72 -62t29 -104.5q0 -52 -24 -106.5t-72.5 -109t-137.5 -98t-204 -62.5z" />
<glyph unicode="t" horiz-adv-x="591" d="M63 893v45h111l4 209h45v-209h271v-45h-271v-850q80 25 137 76.5t109 146.5l43 -20q-71 -122 -140 -178.5t-198 -85.5v911h-111z" />
<glyph unicode="u" horiz-adv-x="972" d="M80 893v45h182v-893q209 6 319.5 143.5t110.5 391.5v313h-98v45h250v-45h-103v-848h142v-45h-191l2 213q0 17 5 84q4 49 4 63q0 6 -1 6t-2 -6q-74 -366 -485 -366v899h-135z" />
<glyph unicode="v" horiz-adv-x="827" d="M82 893v45h248v-45h-99v-852q233 27 331 233q95 199 95 595v24h-96v45h246v-45h-100q0 -116 -6 -213t-22 -190.5t-42 -167t-67 -136t-95.5 -104t-128 -65.5t-164.5 -25v901h-100z" />
<glyph unicode="w" horiz-adv-x="1126" d="M82 893v45h250v-45h-101v-848q88 18 152.5 75t103 136.5t60.5 192t28 227.5q4 77 4 166q0 45 -1 92h47v-889q105 24 177 99t109.5 193t51.5 253q11 105 11 231q0 36 -1 74h-99v43h248v-43h-100v-47q0 -57 -2 -107q-2 -69 -12 -163t-27.5 -167t-50.5 -150.5t-79 -131 t-115 -91.5t-156 -46v305l6 199q-16 -214 -120 -353t-284 -151v901h-100z" />
<glyph unicode="x" horiz-adv-x="864" d="M51 0v45h115q1 158 51.5 266t161.5 213q-71 51 -111 94t-67 112t-29 163h-117v45h269v-45h-101q1 -87 23.5 -147.5t60 -101t109.5 -93.5q47 40 69.5 60t55.5 55.5t47.5 64.5t27 71.5t13.5 90.5h-109v45h271v-45h-113q-3 -65 -20 -117t-50.5 -95t-62 -70.5t-77.5 -68.5 q-11 -9 -17 -14q115 -92 159 -197.5t47 -285.5h156v-45h-203q0 53 -2 80q-11 158 -49.5 245.5t-142.5 176.5q-44 -41 -75 -78.5t-62 -92t-47 -126.5t-17 -160h115v-45h-279z" />
<glyph unicode="y" horiz-adv-x="925" d="M82 893v45h186v-895q79 2 144 23t108.5 52.5t76 77t50.5 91.5t29 103t14.5 103t3.5 99v301h-96v45h248v-45h-103v-758q0 -92 -19.5 -169t-51 -131t-76 -96t-91 -67.5t-99.5 -42t-97.5 -23t-89.5 -7.5v172h49v-121q35 3 68.5 9t77.5 21.5t81 37.5t75 59.5t64.5 85.5 t43 118t16.5 154q0 13 4 213q-63 -354 -479 -354v899h-137z" />
<glyph unicode="z" horiz-adv-x="774" d="M68 0l536 893h-446v-119h-49v164h583l-534 -893h460v152h50v-197h-600z" />
<glyph unicode="{" horiz-adv-x="307" d="M43 535v38q4 0 11.5 1t21.5 6t25.5 13t21 25t10.5 39q2 77 -8.5 400t-9.5 358q3 60 47 94.5t102 32.5l6 -47q-13 -1 -18 -2t-25 -7.5t-30.5 -16.5t-21 -31t-11.5 -49q-2 -32 9 -347.5t9 -386.5q-4 -65 -76 -102q72 -21 76 -100q1 -26 -2.5 -204.5t-7.5 -352t-4 -177.5 q0 -26 9.5 -46t21 -30t28.5 -17t25 -8.5t18 -2.5l-6 -49q-66 6 -107.5 40.5t-41.5 96.5q0 2 10 333.5t8 414.5q-1 22 -10.5 38.5t-21 25t-25.5 13.5t-21.5 6t-11.5 1z" />
<glyph unicode="|" horiz-adv-x="356" d="M154 -274v1947h49v-1947h-49z" />
<glyph unicode="}" horiz-adv-x="296" d="M27 -387q10 1 18 2.5t25 8.5t28.5 17t21 30t9.5 46q0 4 -4 177.5t-7.5 352t-2.5 204.5q4 79 75 100q-71 37 -75 102q-2 71 9 386t9 347q-1 28 -11.5 49t-21.5 31t-30 17t-25 8t-18 2l6 47q58 2 102 -32.5t47 -94.5q1 -35 -9.5 -358t-8.5 -400q1 -22 10.5 -39t21 -25 t25.5 -13t21.5 -6t11.5 -1v-39q-4 0 -11.5 -1t-21.5 -6t-25.5 -13t-21 -24.5t-10.5 -38.5q-2 -83 8 -414.5t10 -333.5q0 -62 -41.5 -96.5t-107.5 -40.5z" />
<glyph unicode="~" horiz-adv-x="1019" d="M53 1352q1 1 19 27t23.5 32.5t24.5 29.5t29.5 32t31.5 26t38 24t40 13t46 6q51 0 106 -29t96 -64t94 -64t101 -29q44 0 83 18t69 51t43.5 52t30.5 47l39 -21q-109 -192 -265 -192q-40 0 -81.5 15t-68 31.5t-69.5 47.5q-82 62 -117 77q-33 15 -61 15q-21 0 -40 -5 t-38.5 -18.5t-31.5 -21.5t-31.5 -31.5t-25 -29.5t-26.5 -34l-20 -28z" />
<glyph unicode="&#xa1;" horiz-adv-x="307" d="M154 397h51v-1069h-51v1069zM154 678v262h51v-262h-51z" />
<glyph unicode="&#xa2;" horiz-adv-x="915" d="M49 467q0 149 43.5 275.5t125 206t185.5 85.5v152h48v-152q68 -3 120 -47t58 -104q-6 106 -6 133v39h49v-353h-49q0 137 -50 212t-151 75q-75 0 -138.5 -48t-103.5 -124t-62 -167.5t-22 -182.5q0 -193 91 -310.5t245 -117.5q109 0 194.5 44t131.5 99l33 -37 q-59 -67 -149.5 -107.5t-190.5 -43.5v-144h-48v144q-70 2 -131 30t-112 82.5t-81 147.5t-30 213z" />
<glyph unicode="&#xa3;" horiz-adv-x="944" d="M39 772v49h186q0 142 20 244t56.5 166.5t96.5 100.5t131 47.5t169 6.5l-8 -49q-120 8 -198 -16t-126 -88t-67.5 -162t-19.5 -250h282v-49h-282v-723h544v135h54v-184h-803v49h151v723h-186z" />
<glyph unicode="&#xa4;" horiz-adv-x="1134" d="M68 639l14 45h102q2 52 15 178h-131l14 45h125q46 255 175.5 404t309.5 149q56 0 108 -17.5t89.5 -45t62.5 -54.5t41 -53l-24 -49q-4 7 -11 18t-32 40t-54.5 51.5t-78 40.5t-101.5 18q-87 0 -160.5 -39.5t-125.5 -109.5t-87.5 -158.5t-56.5 -194.5h578l-19 -45h-567 q-12 -87 -18 -178h604l-19 -45h-585q1 -134 23 -240t58.5 -175t88 -114t107.5 -64t120 -19q237 0 373 249l41 -20q-70 -131 -175 -205t-239 -74q-99 0 -178.5 37.5t-141 114.5t-95 206.5t-34.5 303.5h-116z" />
<glyph unicode="&#xa5;" horiz-adv-x="1122" d="M14 1466v47h357v-47h-150q0 -213 97.5 -415.5t240.5 -335.5q164 155 253 350.5t89 400.5h-151v47h358v-47h-154q0 -205 -87 -399t-238 -350h360v-45h-403v-146h403v-43h-403v-434h155v-49h-360v49h151v434h-405v43h405v146h-405v45h365q-146 149 -235 346.5t-89 402.5 h-154z" />
<glyph unicode="&#xa6;" horiz-adv-x="352" d="M152 -274v649h49v-649h-49zM152 1024v649h49v-649h-49z" />
<glyph unicode="&#xa7;" horiz-adv-x="964" d="M102 870q0 50 27.5 115t65.5 111q-52 71 -52 180q0 125 93.5 220t240.5 95q99 0 177.5 -36.5t113.5 -86.5l-35 -32q-35 48 -102.5 77t-153.5 29q-124 0 -204 -80.5t-80 -187.5q0 -88 61 -172q44 -57 222 -155q11 -6 16 -9q70 -40 111 -64.5t97 -66t86.5 -76.5t53 -83 t22.5 -99q0 -69 -20.5 -129.5t-65.5 -136.5q39 -70 39 -166q0 -80 -28 -145t-71 -104.5t-97.5 -67t-104.5 -38t-96 -10.5q-84 0 -146.5 27t-156.5 96l26 39q88 -64 147.5 -89.5t129.5 -25.5q40 0 83.5 9.5t91.5 33t86 58t62.5 91t24.5 126.5q0 48 -11.5 89.5t-36.5 75.5 t-51 60.5t-68.5 54t-74 45t-82.5 43.5q-42 22 -61 32t-58 32.5t-59 38t-50.5 41t-46.5 49.5t-33.5 54t-24.5 64.5t-7 73.5zM154 870q0 -42 11 -79t36 -69t48.5 -55.5t65 -50t67.5 -41.5t73 -40q104 -53 174 -99t116 -106q23 44 33 66t21.5 64.5t11.5 86.5q0 43 -19.5 83.5 t-48 72.5t-76.5 67.5t-88.5 60.5t-101.5 58q-199 107 -250 168q-31 -43 -52 -96.5t-21 -90.5z" />
<glyph unicode="&#xa8;" horiz-adv-x="395" d="M0 1178v235h49v-235h-49zM346 1178v235h49v-235h-49z" />
<glyph unicode="&#xa9;" horiz-adv-x="1351" d="M72 829q0 174 79 319t219 229.5t312 84.5q168 0 305.5 -84.5t215 -229.5t77.5 -319q0 -123 -46 -236.5t-124.5 -197.5t-190.5 -134t-237 -50q-128 0 -242.5 50t-194.5 134t-126.5 197.5t-46.5 236.5zM119 829q0 -113 42.5 -217.5t116 -183t179.5 -125.5t225 -47 q156 0 283.5 80t196.5 211t69 282q0 159 -69 293t-196 214.5t-284 80.5q-159 0 -289 -80.5t-202 -215t-72 -292.5zM389 815q0 107 30 198.5t97 153.5t160 62q61 0 103 -28t46 -75q-6 62 -6 80v29h45v-277h-45v64q0 162 -143 162q-109 0 -175.5 -109.5t-66.5 -259.5 q0 -82 27 -156t84.5 -125t134.5 -51q118 0 201 103l28 -35q-53 -59 -107.5 -85t-127.5 -26q-128 0 -206.5 106t-78.5 269z" />
<glyph unicode="&#xaa;" horiz-adv-x="714" d="M79.5 1000q16.5 171 124.5 270.5t353 156.5v-813h109v-43h-156v224q0 16 3.5 86.5t2.5 87.5q-5 -87 -38 -162.5t-87.5 -130t-133.5 -84.5t-171 -27q-23 264 -6.5 435zM120.5 899.5q-2.5 -124.5 10.5 -289.5q95 7 166 51t110.5 104t63.5 143t31.5 153.5t7.5 150.5v154 q-153 -39 -238.5 -100.5t-117 -151.5t-34 -214.5z" />
<glyph unicode="&#xab;" horiz-adv-x="1034" d="M39 553l512 502l33 -33l-484 -469l482 -465l-31 -35zM399 553l516 502l31 -37l-481 -465l481 -465l-31 -35z" />
<glyph unicode="&#xac;" horiz-adv-x="821" d="M53 543v45h713v-242h-49v197h-664z" />
<glyph unicode="&#xad;" horiz-adv-x="782" d="M90 567v47h602v-47h-602z" />
<glyph unicode="&#xae;" horiz-adv-x="1445" d="M98 823q0 174 83.5 320t228.5 230.5t317 84.5q170 0 312.5 -84t225.5 -230t83 -321q0 -166 -81.5 -308t-225 -226t-314.5 -84q-129 0 -246 49.5t-201 133t-133 197.5t-49 238zM147 823q0 -113 45.5 -218t123 -182.5t185.5 -124t228 -46.5q157 0 288.5 78.5t206 209.5 t74.5 283q0 159 -74.5 294t-205.5 214.5t-289 79.5q-160 0 -294 -79.5t-211 -214.5t-77 -294zM459 444v43h102v711h-102v45h243q265 0 265 -225q0 -77 -53 -126t-123 -56q40 -6 68.5 -34.5t43 -63.5t22.5 -87t9.5 -86t1.5 -78h86v-43h-129q0 14 -0.5 46.5t-1 50.5t-2.5 49 t-5 50t-9 45t-14 42t-21 34.5t-29 28.5t-38 16.5t-48 6.5h-119v-326h90v-43h-237zM606 854h92q97 0 161.5 42t64.5 120q0 106 -69.5 150.5t-248.5 31.5v-344z" />
<glyph unicode="&#xaf;" horiz-adv-x="567" d="M0 1219q13 22 18.5 30.5t23 31t32 33.5t37 21.5t45.5 10.5q34 0 69.5 -17t60 -37.5t55 -37.5t56.5 -17q12 0 23.5 2t22 7t18.5 9.5t17.5 13t15 13t13.5 14.5t11 13.5t10 13.5l7 10l32 -14q-66 -123 -168 -123q-31 0 -65 17t-59 37.5t-57 37.5t-60 17q-24 0 -44.5 -11.5 t-31 -23.5t-26.5 -35t-23 -31z" />
<glyph unicode="&#xb0;" horiz-adv-x="528" d="M0 1255q0 113 76.5 193t183.5 80q114 0 191 -79.5t77 -193.5q0 -108 -77.5 -188t-190.5 -80q-106 0 -183 80.5t-77 187.5zM43 1255q0 -89 65 -158t152 -69q91 0 159 69t68 158q0 93 -67.5 163.5t-157.5 70.5q-88 0 -153.5 -69t-65.5 -165z" />
<glyph unicode="&#xb1;" horiz-adv-x="821" d="M53 -55h713v-47h-713v47zM74 537v47h311v366h47v-366h316v-47h-316v-373h-47v373h-311z" />
<glyph unicode="&#xb2;" horiz-adv-x="579" d="M63 831q3 71 18 127t44.5 100t55.5 72.5t69 65.5q5 4 24 21t25.5 22.5t24 22t25 25t22 25t21.5 28.5t17 29.5t15.5 33.5t10.5 36t7 40q-109 10 -182 -19.5t-121 -124.5l-35 23q47 108 142 143t243 17q0 -36 -6 -69t-13.5 -58t-23 -51t-26.5 -42.5t-33.5 -39.5t-35 -34 t-39.5 -35t-38 -34q-35 -31 -55.5 -52t-45 -55t-38 -76.5t-18.5 -97.5l391 3v-46h-445z" />
<glyph unicode="&#xb3;" horiz-adv-x="577" d="M53 831q88 1 159 17.5t116 42t75.5 59.5t43 67t12.5 66q0 92 -81.5 127t-187.5 -2l-12 43q224 53 291 234h-338v41h393q-8 -81 -75 -164t-156 -105q95 12 155 -40.5t60 -133.5q0 -53 -27 -104t-79.5 -94.5t-140.5 -70t-198 -26.5z" />
<glyph unicode="&#xb4;" horiz-adv-x="514" d="M88 1260l309 147l27 -51l-311 -135z" />
<glyph unicode="&#xb5;" horiz-adv-x="950" d="M80 893v45h188v-891q87 17 164 64.5t140.5 125t101 196t37.5 261.5v199h-97v45h244v-45h-100v-846h110v-47h-157v170l6 299q-12 -124 -82 -228t-166.5 -164.5t-200.5 -76.5v-338h133v-45h-315v45h133v1231h-139z" />
<glyph unicode="&#xb6;" horiz-adv-x="862" d="M95.5 900.5q-6.5 113.5 25 186.5t87 124t117.5 72.5t124 21.5v-1518h-209v49h155v918q-31 -39 -100.5 -70.5t-138.5 -32.5q-54 136 -60.5 249.5zM561 1305h209v-50h-154v-1468h-53z" />
<glyph unicode="&#xb7;" horiz-adv-x="247" d="M98 563v268h54v-268h-54z" />
<glyph unicode="&#xb8;" horiz-adv-x="282" d="M0 -362q80 11 129.5 34.5t70.5 59t26.5 83t-3.5 105.5q31 0 51 10q23 -161 -39 -236t-229 -89z" />
<glyph unicode="&#xb9;" horiz-adv-x="333" d="M39 1493q141 39 219 55v-708h-49v655l-156 -43z" />
<glyph unicode="&#xba;" horiz-adv-x="765" d="M74 913q0 191 99.5 351t221.5 211q-90 -18 -190 8l12 39q70 -12 125 -13t85 4t78 14t87 13q35 -74 55.5 -188.5t20.5 -229.5q0 -265 -95 -417t-247 -152q-47 0 -90 19t-80.5 59t-59.5 112.5t-22 169.5zM123 903q0 -148 59 -225.5t144 -77.5q129 0 210.5 138.5t81.5 383.5 q0 216 -61 369q-101 -16 -185 -74t-137.5 -140.5t-82.5 -179t-29 -194.5z" />
<glyph unicode="&#xbb;" horiz-adv-x="1034" d="M88 88l481 465l-481 465l31 37l516 -502l-516 -500zM451 1022l32 33l512 -502l-512 -500l-30 35l481 465z" />
<glyph unicode="&#xbc;" horiz-adv-x="1312" d="M96 1290q141 40 217 58v-713h-49v657l-153 -45zM115 -10l1063 1421l34 -35l-1056 -1415zM745 166q4 398 342 553v-508h121v-45h-121v-166h-45v166h-297zM793 211h249v438q-50 -31 -91.5 -71t-78 -93.5t-57.5 -124t-22 -149.5z" />
<glyph unicode="&#xbd;" horiz-adv-x="1406" d="M106 -8l1059 1417l37 -33l-1057 -1415zM147 1393q142 39 220 55v-709h-50v656l-155 -43zM866 0q3 71 18 127t44.5 100t55.5 72.5t69 65.5q4 4 26.5 23t29 25t26 24.5t27.5 28.5t23 28.5t22 33.5t16.5 35t14.5 40.5t7 43.5q-109 10 -182 -19.5t-121 -123.5l-35 22 q47 108 142 143t243 17q0 -36 -6 -69t-13.5 -58t-22.5 -51t-26.5 -42t-34 -39t-35 -34.5t-39 -34.5t-38.5 -34q-35 -31 -55.5 -52t-45 -55t-38 -76.5t-18.5 -97.5l391 2v-45h-445z" />
<glyph unicode="&#xbe;" horiz-adv-x="1335" d="M72 639q88 1 159 17.5t115.5 42t74.5 59.5t42 67t12 66q0 92 -81 127t-187 -2l-10 43q224 52 290 233h-340v41h394q-6 -80 -73.5 -163t-156.5 -105q95 12 154 -40.5t59 -133.5q0 -53 -27 -104t-79 -94.5t-139 -70t-197 -26.5zM160 -10l1063 1421l34 -35l-1056 -1415z M791 166q4 398 342 553v-508h120v-45h-120v-166h-46v166h-296zM838 211h249v438q-50 -31 -91.5 -71t-78 -93.5t-57.5 -124t-22 -149.5z" />
<glyph unicode="&#xbf;" horiz-adv-x="743" d="M88 -260q0 46 19.5 87.5t51.5 72t70 59.5t76 56.5t70 56t51.5 65t19.5 76.5q0 34 -11 64.5t-23 47t-31 32t-24 18l-13 6.5l21 43q13 -5 27.5 -15t41 -34t43.5 -66.5t17 -95.5q0 -54 -26.5 -102t-66 -80.5t-86 -67.5t-86 -64t-66 -70.5t-26.5 -86.5q0 -52 40.5 -101.5 t104.5 -86.5t127.5 -63t125.5 -42v164h49v-227q-42 8 -96.5 24.5t-127.5 48.5t-131.5 70t-99.5 94t-41 117zM362 670v268h50v-268h-50z" />
<glyph unicode="&#xc0;" d="M10 0v49h162l487 1456h-155v49h233l506 -1505h160v-49h-371v49h158l-186 557h-592l-187 -557h158v-49h-373zM428 655h557l-278 836zM475 1749l29 51l307 -149l-23 -39z" />
<glyph unicode="&#xc1;" d="M10 0v49h162l487 1456h-155v49h233l506 -1505h160v-49h-371v49h158l-186 557h-592l-187 -557h158v-49h-373zM428 655h557l-278 836zM551 1651l309 147l27 -51l-312 -135z" />
<glyph unicode="&#xc2;" d="M10 0v49h162l487 1456h-155v49h233l506 -1505h160v-49h-371v49h158l-186 557h-592l-187 -557h158v-49h-373zM428 655h557l-278 836zM449 1634l244 228l241 -228l-30 -28l-211 190l-209 -190z" />
<glyph unicode="&#xc3;" d="M10 0v49h162l487 1456h-155v49h233l506 -1505h160v-49h-371v49h158l-186 557h-592l-187 -557h158v-49h-373zM403 1631q13 22 18.5 30.5t23 31t32 33.5t37 21.5t45.5 10.5q34 0 69.5 -17t60 -37.5t55 -37.5t56.5 -17q12 0 23.5 2t22 7t18.5 9.5t17.5 13t15 13t13.5 14.5 t11 13.5t10 13.5l7 10l32 -14q-66 -123 -168 -123q-31 0 -65 17t-59 37.5t-57 37.5t-60 17q-24 0 -44.5 -11.5t-31 -23.5t-26.5 -35t-23 -31zM428 655h557l-278 836z" />
<glyph unicode="&#xc4;" d="M10 0v49h162l487 1456h-155v49h233l506 -1505h160v-49h-371v49h158l-186 557h-592l-187 -557h158v-49h-373zM428 655h557l-278 836zM496 1614v235h49v-235h-49zM842 1614v235h49v-235h-49z" />
<glyph unicode="&#xc5;" d="M10 0v49h162l487 1456h-155v49h233l506 -1505h160v-49h-371v49h158l-186 557h-592l-187 -557h158v-49h-373zM428 655h557l-278 836zM553 1751q0 61 39 102t98 41q60 0 100.5 -41.5t40.5 -101.5t-40.5 -100.5t-100.5 -40.5t-98.5 40.5t-38.5 100.5zM592 1751 q0 -45 27 -73.5t71 -28.5t73.5 31t29.5 71q0 46 -28.5 75t-74.5 29q-44 0 -71 -29t-27 -75z" />
<glyph unicode="&#xc6;" horiz-adv-x="1843" d="M2 0v49h162l610 1456h-172v49h1145v-206h-53v157h-727v-637h663v-47h-663v-772h727v158h53v-207h-836l2 557h-477l-215 -508h166v-49h-385zM457 606h454l2 901h-82z" />
<glyph unicode="&#xc7;" horiz-adv-x="1026" d="M72 672q0 191 32.5 344.5t84 250t120.5 161t137.5 90.5t139.5 26q110 0 185.5 -51.5t100.5 -138.5v104l-2 80h54v-416h-54v49q0 143 -75.5 232.5t-210.5 89.5q-69 0 -134.5 -30t-125.5 -95.5t-104 -159.5t-70 -233t-25 -305q0 -133 21.5 -245t66.5 -203.5t123.5 -143 t183.5 -51.5q119 0 214 70.5t161 199.5l41 -25q-70 -139 -175.5 -217t-240.5 -78q-35 0 -68.5 5t-80 22.5t-86 47t-80 82.5t-69 124t-46.5 177.5t-18 236.5zM289 -436q80 11 129.5 34.5t70.5 59t26.5 83t-3.5 105.5q31 0 51 10q23 -161 -39 -236t-229 -89z" />
<glyph unicode="&#xc8;" horiz-adv-x="1187" d="M98 0v49h156v1419h-156v50h994v-205h-56v155h-729v-600h672v-49h-672v-770h729v156h56v-205h-994zM485 1743l29 51l307 -149l-23 -39z" />
<glyph unicode="&#xc9;" horiz-adv-x="1187" d="M98 0v49h156v1419h-156v50h994v-205h-56v155h-729v-600h672v-49h-672v-770h729v156h56v-205h-994zM522 1640l309 148l27 -51l-311 -135z" />
<glyph unicode="&#xca;" horiz-adv-x="1187" d="M98 0v49h156v1419h-156v50h994v-205h-56v155h-729v-600h672v-49h-672v-770h729v156h56v-205h-994zM424 1634l244 228l241 -228l-30 -28l-211 190l-209 -190z" />
<glyph unicode="&#xcb;" horiz-adv-x="1187" d="M98 0v49h156v1419h-156v50h994v-205h-56v155h-729v-600h672v-49h-672v-770h729v156h56v-205h-994zM457 1614v235h49v-235h-49zM803 1614v235h49v-235h-49z" />
<glyph unicode="&#xcc;" horiz-adv-x="550" d="M94 0v49h154v1419h-154v50h363v-50h-156v-1419h156v-49h-363zM106 1749l29 51l307 -149l-22 -39z" />
<glyph unicode="&#xcd;" horiz-adv-x="550" d="M94 0v49h154v1419h-154v50h363v-50h-156v-1419h156v-49h-363zM109 1659l309 147l26 -51l-311 -135z" />
<glyph unicode="&#xce;" horiz-adv-x="681" d="M96 1614l244 227l242 -227l-31 -29l-211 191l-209 -191zM158 0v49h153v1419h-153v50h362v-50h-155v-1419h155v-49h-362z" />
<glyph unicode="&#xcf;" horiz-adv-x="591" d="M98 1626v236h49v-236h-49zM113 0v49h153v1419h-153v50h362v-50h-156v-1419h156v-49h-362zM444 1626v236h50v-236h-50z" />
<glyph unicode="&#xd0;" horiz-adv-x="567" d="M0 1219q13 22 18.5 30.5t23 31t32 33.5t37 21.5t45.5 10.5q34 0 69.5 -17t60 -37.5t55 -37.5t56.5 -17q12 0 23.5 2t22 7t18.5 9.5t17.5 13t15 13t13.5 14.5t11 13.5t10 13.5l7 10l32 -14q-66 -123 -168 -123q-31 0 -65 17t-59 37.5t-57 37.5t-60 17q-24 0 -44.5 -11.5 t-31 -23.5t-26.5 -35t-23 -31z" />
<glyph unicode="&#xd1;" horiz-adv-x="1386" d="M98 0v49h156v1419h-156v50h242l754 -1407v165v1192h-158v50h364v-50h-155v-1491h-41l-799 1491l2 -149v-1270h158v-49h-367zM422 1641q13 22 18.5 30.5t23 31t32 33.5t37 21.5t45.5 10.5q34 0 69.5 -17t60 -37.5t55 -37.5t56.5 -17q12 0 23.5 2t22 7t18.5 9.5t17.5 13 t15 13t13.5 14.5t11 13.5t10 13.5l7 10l32 -14q-66 -123 -168 -123q-31 0 -65 17t-59 37.5t-57 37.5t-60 17q-24 0 -44.5 -11.5t-31 -23.5t-26.5 -35t-23 -31z" />
<glyph unicode="&#xd2;" horiz-adv-x="1163" d="M80 725q0 366 147.5 590.5t368.5 224.5q146 0 257.5 -106.5t169.5 -290.5t58 -418q0 -216 -67.5 -386t-186 -262.5t-266.5 -92.5q-142 0 -252 94.5t-169.5 263t-59.5 383.5zM133 725q0 -311 119 -500.5t309 -189.5q130 0 236 83.5t168.5 242t62.5 364.5q0 225 -53.5 399 t-152 270.5t-226.5 96.5q-197 0 -330 -208t-133 -558zM397 1745l29 51l307 -149l-22 -39z" />
<glyph unicode="&#xd3;" horiz-adv-x="1163" d="M80 725q0 366 147.5 590.5t368.5 224.5q146 0 257.5 -106.5t169.5 -290.5t58 -418q0 -216 -67.5 -386t-186 -262.5t-266.5 -92.5q-142 0 -252 94.5t-169.5 263t-59.5 383.5zM133 725q0 -311 119 -500.5t309 -189.5q130 0 236 83.5t168.5 242t62.5 364.5q0 225 -53.5 399 t-152 270.5t-226.5 96.5q-197 0 -330 -208t-133 -558zM463 1640l309 148l27 -51l-312 -135z" />
<glyph unicode="&#xd4;" horiz-adv-x="1163" d="M80 725q0 366 147.5 590.5t368.5 224.5q146 0 257.5 -106.5t169.5 -290.5t58 -418q0 -216 -67.5 -386t-186 -262.5t-266.5 -92.5q-142 0 -252 94.5t-169.5 263t-59.5 383.5zM133 725q0 -311 119 -500.5t309 -189.5q130 0 236 83.5t168.5 242t62.5 364.5q0 225 -53.5 399 t-152 270.5t-226.5 96.5q-197 0 -330 -208t-133 -558zM338 1632l244 228l241 -228l-30 -28l-211 190l-209 -190z" />
<glyph unicode="&#xd5;" horiz-adv-x="1165" d="M82 725q0 366 147.5 590.5t368.5 224.5q146 0 257.5 -106.5t169.5 -290.5t58 -418q0 -216 -67.5 -386t-186 -262.5t-266.5 -92.5q-142 0 -252 94.5t-169.5 263t-59.5 383.5zM135 725q0 -311 119 -500.5t309 -189.5q130 0 236 83.5t168.5 242t62.5 364.5q0 225 -53.5 399 t-152 270.5t-226.5 96.5q-197 0 -330 -208t-133 -558zM307 1634q13 22 18.5 30.5t23 31t32 33.5t37 21.5t45.5 10.5q43 0 87 -27t83.5 -54t71.5 -27q13 0 26.5 3.5t23 7.5t21 12.5t18 14t16 16.5t12.5 15l12 16l8 11l32 -14q-66 -123 -167 -123q-31 0 -65.5 17t-59.5 37 t-57 37t-60 17q-24 0 -44.5 -11t-30.5 -23t-26.5 -35t-23.5 -31z" />
<glyph unicode="&#xd6;" horiz-adv-x="1163" d="M80 725q0 366 147.5 590.5t368.5 224.5q146 0 257.5 -106.5t169.5 -290.5t58 -418q0 -216 -67.5 -386t-186 -262.5t-266.5 -92.5q-142 0 -252 94.5t-169.5 263t-59.5 383.5zM133 725q0 -311 119 -500.5t309 -189.5q130 0 236 83.5t168.5 242t62.5 364.5q0 225 -53.5 399 t-152 270.5t-226.5 96.5q-197 0 -330 -208t-133 -558zM393 1616v235h49v-235h-49zM739 1616v235h49v-235h-49z" />
<glyph unicode="&#xd7;" horiz-adv-x="720" d="M53 242l277 274l-273 268l33 35l272 -268l271 268l35 -33l-273 -270l271 -274l-35 -31l-271 272l-272 -272z" />
<glyph unicode="&#xd8;" horiz-adv-x="1163" d="M80 725q0 366 147.5 590.5t368.5 224.5q107 0 195 -57l65 182h55l-77 -215q117 -98 182 -289t65 -436q0 -216 -67.5 -386t-186 -262.5t-266.5 -92.5q-125 0 -223 73l-84 -235h-55l96 268q-102 96 -158.5 261t-56.5 374zM133 725q0 -191 47 -341.5t133 -240.5l461 1291 q-82 57 -178 57q-197 0 -330 -208t-133 -558zM354 106q89 -71 207 -71q130 0 236 83.5t168.5 242t62.5 364.5q0 226 -56 402t-157 268z" />
<glyph unicode="&#xd9;" horiz-adv-x="1349" d="M84 1468v50h229v-1467q66 4 142 39t155 96.5t152 156t130.5 208.5t91.5 263t34 310v344h-152v50h363v-50h-158v-1419h180v-49h-233v774q-28 -139 -88.5 -264t-138.5 -217.5t-169 -160t-184 -102t-178 -34.5v1472h-176zM453 1747l28 51l307 -149l-22 -39z" />
<glyph unicode="&#xda;" horiz-adv-x="1349" d="M84 1468v50h229v-1467q66 4 142 39t155 96.5t152 156t130.5 208.5t91.5 263t34 310v344h-152v50h363v-50h-158v-1419h180v-49h-233v774q-28 -139 -88.5 -264t-138.5 -217.5t-169 -160t-184 -102t-178 -34.5v1472h-176zM518 1640l309 148l27 -51l-311 -135z" />
<glyph unicode="&#xdb;" horiz-adv-x="1402" d="M137 1468v50h230v-1467q80 5 172.5 52.5t187 140.5t171 216.5t125 297.5t48.5 366v344h-151v50h362v-50h-158v-1419h181v-49h-234v774q-28 -139 -88.5 -264t-138.5 -217.5t-169 -160t-184 -102t-178 -34.5v1472h-176zM467 1632l244 228l241 -228l-30 -28l-211 190 l-209 -190z" />
<glyph unicode="&#xdc;" horiz-adv-x="1349" d="M84 1468v50h229v-1467q66 4 142 39t155 96.5t152 156t130.5 208.5t91.5 263t34 310v344h-152v50h363v-50h-158v-1419h180v-49h-233v774q-28 -139 -88.5 -264t-138.5 -217.5t-169 -160t-184 -102t-178 -34.5v1472h-176zM459 1616v235h49v-235h-49zM805 1616v235h49v-235 h-49z" />
<glyph unicode="&#xdd;" horiz-adv-x="1136" d="M20 1468v50h359v-50h-152q3 -231 95.5 -463t244.5 -384q150 150 243.5 381.5t96.5 465.5h-149v50h358v-50h-155q-3 -248 -105.5 -490t-263.5 -400v-529h156v-49h-361v49h154v529q-160 159 -262 401t-105 489h-154zM467 1640l309 148l27 -51l-311 -135z" />
<glyph unicode="&#xde;" horiz-adv-x="567" d="M0 1219q13 22 18.5 30.5t23 31t32 33.5t37 21.5t45.5 10.5q34 0 69.5 -17t60 -37.5t55 -37.5t56.5 -17q12 0 23.5 2t22 7t18.5 9.5t17.5 13t15 13t13.5 14.5t11 13.5t10 13.5l7 10l32 -14q-66 -123 -168 -123q-31 0 -65 17t-59 37.5t-57 37.5t-60 17q-24 0 -44.5 -11.5 t-31 -23.5t-26.5 -35t-23 -31z" />
<glyph unicode="&#xdf;" horiz-adv-x="913" d="M-66 -276q84 0 163 103.5t79 270.5v686q0 318 182 496q56 56 125.5 95.5t135 57t112 24.5t84.5 7q0 -183 -41.5 -284t-146.5 -207q-21 -21 -64 -62t-59 -58t-39 -47t-31 -57t-8 -59q0 -46 29.5 -75t73.5 -39.5t95.5 -23.5t95.5 -28t73.5 -53.5t29.5 -97.5q0 -93 -55 -179 t-156 -146.5t-225 -74.5v226h47v-174q90 22 159.5 64t107.5 91.5t56.5 95.5t18.5 86q0 44 -22 73.5t-57 43.5t-77.5 24t-85.5 21.5t-78 28.5t-57 51.5t-22 85.5q0 40 9.5 73t34.5 66t44 53.5t64.5 62.5t70.5 67q96 96 129.5 182t36.5 225q-34 -4 -70.5 -11.5t-92 -27.5 t-104 -48t-101 -78t-89 -112.5t-60.5 -155t-24 -202.5v-686q0 -92 -26.5 -172.5t-68.5 -133.5t-93.5 -83.5t-102.5 -30.5v46z" />
<glyph unicode="&#xe0;" horiz-adv-x="843" d="M107.5 366.5q1.5 156.5 48 267.5t160.5 186t321 128v-903h127v-45h-174v254q0 17 2.5 91t1.5 93q-11 -196 -142.5 -323.5t-328.5 -120.5q-17 216 -15.5 372.5zM157 364q-2 -137 11 -321q76 6 138 32t105 65t76 93t52 109.5t31 121t16 121.5t4 117v183 q-171 -48 -265.5 -117.5t-130 -168t-37.5 -235.5zM203 1286l29 51l307 -149l-23 -39z" />
<glyph unicode="&#xe1;" horiz-adv-x="843" d="M107.5 366.5q1.5 156.5 48 267.5t160.5 186t321 128v-903h127v-45h-174v254q0 17 2.5 91t1.5 93q-11 -196 -142.5 -323.5t-328.5 -120.5q-17 216 -15.5 372.5zM157 364q-2 -137 11 -321q76 6 138 32t105 65t76 93t52 109.5t31 121t16 121.5t4 117v183 q-171 -48 -265.5 -117.5t-130 -168t-37.5 -235.5zM238 1188l309 147l26 -51l-311 -135z" />
<glyph unicode="&#xe2;" horiz-adv-x="843" d="M107.5 366.5q1.5 156.5 48 267.5t160.5 186t321 128v-903h127v-45h-174v254q0 17 2.5 91t1.5 93q-11 -196 -142.5 -323.5t-328.5 -120.5q-17 216 -15.5 372.5zM157 364q-2 -137 11 -321q76 6 138 32t105 65t76 93t52 109.5t31 121t16 121.5t4 117v183 q-171 -48 -265.5 -117.5t-130 -168t-37.5 -235.5zM166 1186l244 227l241 -227l-30 -29l-211 191l-209 -191z" />
<glyph unicode="&#xe3;" horiz-adv-x="847" d="M111.5 366.5q1.5 156.5 48 267.5t160.5 186t321 128v-903h127v-45h-174v254q0 17 2.5 91t1.5 93q-11 -196 -142.5 -323.5t-328.5 -120.5q-17 216 -15.5 372.5zM115 1180q14 23 18.5 30t22.5 31t32 34.5t36.5 21t45.5 10.5q34 0 69.5 -17t60.5 -37.5t55.5 -37.5t56.5 -17 q13 0 26.5 3.5t23 7.5t21 12.5t18 14t16 16.5t12.5 15t11 15l9 12l33 -14q-66 -123 -168 -123q-31 0 -65.5 17t-59.5 37.5t-57 37.5t-60 17q-24 0 -44.5 -11.5t-31 -23.5t-26.5 -35t-23 -31zM161 364q-2 -137 11 -321q76 6 138 32t105 65t76 93t52 109.5t31 121t16 121.5 t4 117v183q-171 -48 -265.5 -117.5t-130 -168t-37.5 -235.5z" />
<glyph unicode="&#xe4;" horiz-adv-x="843" d="M107.5 366.5q1.5 156.5 48 267.5t160.5 186t321 128v-903h127v-45h-174v254q0 17 2.5 91t1.5 93q-11 -196 -142.5 -323.5t-328.5 -120.5q-17 216 -15.5 372.5zM157 364q-2 -137 11 -321q76 6 138 32t105 65t76 93t52 109.5t31 121t16 121.5t4 117v183 q-171 -48 -265.5 -117.5t-130 -168t-37.5 -235.5zM213 1160v235h49v-235h-49zM559 1160v235h49v-235h-49z" />
<glyph unicode="&#xe5;" horiz-adv-x="843" d="M107.5 366.5q1.5 156.5 48 267.5t160.5 186t321 128v-903h127v-45h-174v254q0 17 2.5 91t1.5 93q-11 -196 -142.5 -323.5t-328.5 -120.5q-17 216 -15.5 372.5zM157 364q-2 -137 11 -321q76 6 138 32t105 65t76 93t52 109.5t31 121t16 121.5t4 117v183 q-171 -48 -265.5 -117.5t-130 -168t-37.5 -235.5zM268 1278q0 61 39 102t99 41t100.5 -41.5t40.5 -101.5t-40.5 -100.5t-100.5 -40.5t-99 40.5t-39 100.5zM307 1278q0 -45 27.5 -73.5t71.5 -28.5t73 31t29 71q0 46 -28 75t-74 29q-44 0 -71.5 -29t-27.5 -75z" />
<glyph unicode="&#xe6;" horiz-adv-x="1218" d="M100.5 205q-1.5 98 14.5 168.5t49.5 124.5t75.5 87.5t97.5 54.5t111 28.5t120.5 7.5q-2 59 -14.5 102t-32.5 69t-51 39t-63.5 15t-76 -6t-82.5 -20t-89 -31l-17 43q89 37 161 52t121 11t85.5 -25.5t57 -51.5t32 -74t14.5 -85.5t2 -92.5q20 119 144 211t336 114 q42 -289 -83.5 -447.5t-402.5 -152.5q0 -118 23 -307q181 4 274.5 47.5t171.5 157.5l41 -27q-95 -135 -208 -179t-326 -44q-17 158 -21 223l4 88q-34 -145 -155 -231t-289 -86q-23 119 -24.5 217zM166 35q116 13 198.5 60.5t129.5 126.5t65.5 179t13.5 228 q-255 12 -359.5 -137t-47.5 -457zM612 391q84 -1 153.5 13t130 50t99.5 92.5t56 145t6 203.5q-53 -9 -95 -20t-89 -30.5t-83 -45t-70 -63.5t-56.5 -86t-36.5 -114t-15 -145z" />
<glyph unicode="&#xe7;" horiz-adv-x="729" d="M106.5 476.5q18.5 193.5 139 306.5t383.5 167v-254h-49v195q-164 -39 -259 -108.5t-132.5 -172t-40 -244.5t17.5 -327q167 0 259.5 51.5t160.5 196.5l41 -19q-33 -73 -71.5 -123t-80.5 -80.5t-99 -47t-114.5 -22t-140.5 -5.5q-33 293 -14.5 486.5zM152 -399 q80 11 129.5 34.5t70.5 59t26.5 83t-3.5 105.5q29 0 51 11q23 -161 -39 -237t-229 -89z" />
<glyph unicode="&#xe8;" horiz-adv-x="770" d="M106 350q1 269 115 407q130 156 426 189q41 -290 -86 -447t-403 -151q0 -156 22 -309q177 3 274 46t175 159l41 -27q-92 -132 -205.5 -177.5t-333.5 -45.5q-25 260 -25 356zM160 395q112 -4 198.5 24t147 87.5t86.5 158.5t12 230q-124 -18 -211.5 -61.5t-137 -110 t-72 -146.5t-23.5 -182zM236 1286l28 51l307 -149l-22 -39z" />
<glyph unicode="&#xe9;" horiz-adv-x="770" d="M106 350q1 269 115 407q130 156 426 189q41 -290 -86 -447t-403 -151q0 -156 22 -309q177 3 274 46t175 159l41 -27q-92 -132 -205.5 -177.5t-333.5 -45.5q-25 260 -25 356zM160 395q112 -4 198.5 24t147 87.5t86.5 158.5t12 230q-124 -18 -211.5 -61.5t-137 -110 t-72 -146.5t-23.5 -182zM246 1188l309 147l27 -51l-311 -135z" />
<glyph unicode="&#xea;" horiz-adv-x="770" d="M106 350q1 269 115 407q130 156 426 189q41 -290 -86 -447t-403 -151q0 -156 22 -309q177 3 274 46t175 159l41 -27q-92 -132 -205.5 -177.5t-333.5 -45.5q-25 260 -25 356zM160 395q112 -4 198.5 24t147 87.5t86.5 158.5t12 230q-124 -18 -211.5 -61.5t-137 -110 t-72 -146.5t-23.5 -182zM170 1185l244 228l241 -228l-30 -28l-211 190l-209 -190z" />
<glyph unicode="&#xeb;" horiz-adv-x="770" d="M106 350q1 269 115 407q130 156 426 189q41 -290 -86 -447t-403 -151q0 -156 22 -309q177 3 274 46t175 159l41 -27q-92 -132 -205.5 -177.5t-333.5 -45.5q-25 260 -25 356zM160 395q112 -4 198.5 24t147 87.5t86.5 158.5t12 230q-124 -18 -211.5 -61.5t-137 -110 t-72 -146.5t-23.5 -182zM221 1159v236h49v-236h-49zM567 1159v236h49v-236h-49z" />
<glyph unicode="&#xec;" horiz-adv-x="458" d="M49 1288l29 51l307 -149l-23 -39zM92 893v45h187v-893h98v-45h-248v45h100v848h-137z" />
<glyph unicode="&#xed;" horiz-adv-x="460" d="M90 893v45h186v-893h99v-45h-248v45h100v848h-137zM98 1200l310 148l26 -52l-311 -135z" />
<glyph unicode="&#xee;" horiz-adv-x="479" d="M-4 1184l244 227l241 -227l-30 -29l-211 191l-209 -191zM102 893v45h187v-893h98v-45h-248v45h101v848h-138z" />
<glyph unicode="&#xef;" horiz-adv-x="473" d="M29 1161v236h49v-236h-49zM100 893v45h187v-893h98v-45h-248v45h101v848h-138zM375 1161v236h49v-236h-49z" />
<glyph unicode="&#xf0;" horiz-adv-x="567" d="M0 1219q13 22 18.5 30.5t23 31t32 33.5t37 21.5t45.5 10.5q34 0 69.5 -17t60 -37.5t55 -37.5t56.5 -17q12 0 23.5 2t22 7t18.5 9.5t17.5 13t15 13t13.5 14.5t11 13.5t10 13.5l7 10l32 -14q-66 -123 -168 -123q-31 0 -65 17t-59 37.5t-57 37.5t-60 17q-24 0 -44.5 -11.5 t-31 -23.5t-26.5 -35t-23 -31z" />
<glyph unicode="&#xf1;" horiz-adv-x="931" d="M90 893v45h191v-137q0 -2 -2 -40.5t-4 -90t-3 -80.5q36 175 157.5 266t322.5 90v-901h98v-45h-246v45h98v850q-196 -3 -308.5 -133.5t-112.5 -376.5v-340h96v-45h-248v45h102v848h-141zM201 1182q14 23 18.5 30t22.5 31t32 34.5t36.5 21t45.5 10.5q34 0 69.5 -17 t60.5 -37.5t55.5 -37.5t56.5 -17q13 0 26.5 3.5t23 7.5t21 12.5t18 14t16 16.5t12.5 15t11 15l9 12l33 -14q-66 -123 -168 -123q-31 0 -65.5 17t-59.5 37.5t-57 37.5t-60 17q-24 0 -44.5 -11.5t-31 -23.5t-26.5 -35t-23 -31z" />
<glyph unicode="&#xf2;" horiz-adv-x="768" d="M78 338q0 191 99.5 350.5t221.5 210.5q-90 -18 -190 8l12 39q70 -12 125 -13t85 4.5t78 14.5t87 13q35 -74 55.5 -188.5t20.5 -229.5q0 -266 -95.5 -418t-246.5 -152q-47 0 -90 19t-80.5 59.5t-59.5 113t-22 169.5zM127 328q0 -148 59 -225.5t144 -77.5q129 0 211 138.5 t82 383.5q0 212 -62 368q-134 -22 -235 -114.5t-150 -216.5t-49 -256zM211 1288l29 51l307 -149l-23 -39z" />
<glyph unicode="&#xf3;" horiz-adv-x="768" d="M78 338q0 191 99.5 350.5t221.5 210.5q-90 -18 -190 8l12 39q70 -12 125 -13t85 4.5t78 14.5t87 13q35 -74 55.5 -188.5t20.5 -229.5q0 -266 -95.5 -418t-246.5 -152q-47 0 -90 19t-80.5 59.5t-59.5 113t-22 169.5zM127 328q0 -148 59 -225.5t144 -77.5q129 0 211 138.5 t82 383.5q0 212 -62 368q-134 -22 -235 -114.5t-150 -216.5t-49 -256zM309 1188l309 147l27 -51l-311 -135z" />
<glyph unicode="&#xf4;" horiz-adv-x="768" d="M78 338q0 191 99.5 350.5t221.5 210.5q-90 -18 -190 8l12 39q70 -12 125 -13t85 4.5t78 14.5t87 13q35 -74 55.5 -188.5t20.5 -229.5q0 -266 -95.5 -418t-246.5 -152q-47 0 -90 19t-80.5 59.5t-59.5 113t-22 169.5zM127 328q0 -148 59 -225.5t144 -77.5q129 0 211 138.5 t82 383.5q0 212 -62 368q-134 -22 -235 -114.5t-150 -216.5t-49 -256zM160 1183l244 228l241 -228l-30 -28l-211 190l-209 -190z" />
<glyph unicode="&#xf5;" horiz-adv-x="765" d="M78 338q0 191 99.5 350.5t221.5 210.5q-90 -18 -190 8l12 39q70 -12 125 -13t85 4.5t78 14.5t87 13q35 -74 55.5 -188.5t20.5 -229.5q0 -266 -95.5 -418t-246.5 -152q-47 0 -90 19t-80.5 59.5t-59.5 113t-22 169.5zM127 328q0 -148 59 -225.5t144 -77.5q129 0 211 138.5 t82 383.5q0 212 -62 368q-134 -22 -235 -114.5t-150 -216.5t-49 -256zM145 1219q13 22 18.5 30.5t23 31t32 33.5t37 21.5t45.5 10.5q34 0 69.5 -17t60.5 -37.5t55.5 -37.5t56.5 -17q13 0 26.5 3.5t23 7.5t21 12.5t18 14t16 16.5t12.5 15l12 16l8 11l33 -14 q-66 -123 -168 -123q-39 0 -82 27t-84 54.5t-76 27.5q-24 0 -44.5 -11.5t-31 -23.5t-26.5 -35t-23 -31z" />
<glyph unicode="&#xf6;" horiz-adv-x="768" d="M78 338q0 191 99.5 350.5t221.5 210.5q-90 -18 -190 8l12 39q70 -12 125 -13t85 4.5t78 14.5t87 13q35 -74 55.5 -188.5t20.5 -229.5q0 -266 -95.5 -418t-246.5 -152q-47 0 -90 19t-80.5 59.5t-59.5 113t-22 169.5zM127 328q0 -148 59 -225.5t144 -77.5q129 0 211 138.5 t82 383.5q0 212 -62 368q-134 -22 -235 -114.5t-150 -216.5t-49 -256zM207 1159v236h49v-236h-49zM553 1159v236h49v-236h-49z" />
<glyph unicode="&#xf7;" horiz-adv-x="749" d="M53 545v43h643v-43h-643zM352 182v213h51v-213h-51zM352 752v213h51v-213h-51z" />
<glyph unicode="&#xf8;" horiz-adv-x="751" d="M82 365q9 180 93.5 324.5t197.5 207.5q-101 -11 -166 6l6 43q129 -25 233 -2q37 7 101 17l65 165l47 -4l-67 -172q59 -177 59 -401q0 -260 -99 -417t-235 -155q-44 0 -88 21l-73 -188l-52 2l82 215q-55 46 -84 131.5t-20 206.5zM129 354q-9 -186 78 -276l321 837 q-110 -16 -201.5 -105t-141.5 -210t-56 -246zM244 43q38 -20 73 -20q114 0 200.5 143t86.5 383q0 182 -41 328z" />
<glyph unicode="&#xf9;" horiz-adv-x="972" d="M80 893v45h182v-893q209 6 319.5 143.5t110.5 391.5v313h-98v45h250v-45h-103v-848h142v-45h-191l2 213q0 17 5 84q5 68 3 69q-1 0 -2 -6q-74 -366 -485 -366v899h-135zM283 1284l29 51l307 -149l-23 -39z" />
<glyph unicode="&#xfa;" horiz-adv-x="972" d="M80 893v45h182v-893q209 6 319.5 143.5t110.5 391.5v313h-98v45h250v-45h-103v-848h142v-45h-191l2 213q0 17 5 84q5 68 3 69q-1 0 -2 -6q-74 -366 -485 -366v899h-135zM346 1184l309 147l27 -51l-311 -135z" />
<glyph unicode="&#xfb;" horiz-adv-x="972" d="M80 893v45h182v-893q209 6 319.5 143.5t110.5 391.5v313h-98v45h250v-45h-103v-848h142v-45h-191l2 213q0 17 5 84q5 68 3 69q-1 0 -2 -6q-74 -366 -485 -366v899h-135zM238 1185l244 228l241 -228l-30 -28l-211 190l-209 -190z" />
<glyph unicode="&#xfc;" horiz-adv-x="972" d="M80 893v45h182v-893q209 6 319.5 143.5t110.5 391.5v313h-98v45h250v-45h-103v-848h142v-45h-191l2 213q0 17 5 84q5 68 3 69q-1 0 -2 -6q-74 -366 -485 -366v899h-135zM283 1159v236h49v-236h-49zM629 1159v236h49v-236h-49z" />
<glyph unicode="&#xfd;" horiz-adv-x="925" d="M82 893v45h186v-895q79 2 144 23t108.5 52.5t76 77t50.5 91.5t29 103t14.5 103t3.5 99v301h-96v45h248v-45h-103v-758q0 -92 -19.5 -169t-51 -131t-76 -96t-91 -67.5t-99.5 -42t-97.5 -23t-89.5 -7.5v172h49v-121q35 3 68.5 9t77.5 21.5t81 37.5t75 59.5t64.5 85.5 t43 118t16.5 154q0 13 4 213q-63 -354 -479 -354v899h-137zM311 1188l309 147l27 -51l-311 -135z" />
<glyph unicode="&#xfe;" horiz-adv-x="567" d="M0 1219q13 22 18.5 30.5t23 31t32 33.5t37 21.5t45.5 10.5q34 0 69.5 -17t60 -37.5t55 -37.5t56.5 -17q12 0 23.5 2t22 7t18.5 9.5t17.5 13t15 13t13.5 14.5t11 13.5t10 13.5l7 10l32 -14q-66 -123 -168 -123q-31 0 -65 17t-59 37.5t-57 37.5t-60 17q-24 0 -44.5 -11.5 t-31 -23.5t-26.5 -35t-23 -31z" />
<glyph unicode="&#xff;" horiz-adv-x="925" d="M82 893v45h186v-895q79 2 144 23t108.5 52.5t76 77t50.5 91.5t29 103t14.5 103t3.5 99v301h-96v45h248v-45h-103v-758q0 -92 -19.5 -169t-51 -131t-76 -96t-91 -67.5t-99.5 -42t-97.5 -23t-89.5 -7.5v172h49v-121q35 3 68.5 9t77.5 21.5t81 37.5t75 59.5t64.5 85.5 t43 118t16.5 154q0 13 4 213q-63 -354 -479 -354v899h-137zM281 1161v236h49v-236h-49zM627 1161v236h49v-236h-49z" />
<glyph unicode="&#x152;" horiz-adv-x="1742" d="M80 725q0 183 40 336.5t109.5 257.5t164 161.5t202.5 57.5q57 0 119 -20h932v-205h-54v155h-796q110 -57 185 -223.5t93 -378.5h461v-51h-457q7 -107 -3.5 -211.5t-42 -209.5t-96 -195.5t-157.5 -147.5l813 -2v156h54v-205h-967q-59 -16 -119 -16q-142 0 -252 94.5 t-169.5 263t-59.5 383.5zM133 725q0 -312 119 -502t309 -190q199 0 333 191t134 501q0 224 -53.5 397t-152 269t-226.5 96q-197 0 -330 -206t-133 -556z" />
<glyph unicode="&#x153;" horiz-adv-x="1280" d="M78 338q0 190 99 343.5t222 205.5q-90 -18 -190 8q1 6 12 39q70 -12 125 -13t85 4t78 14t87 13q66 -139 72 -325q43 127 162.5 211t326.5 108q40 -290 -87 -446t-402 -152q0 -150 20 -309q180 5 276.5 47t174.5 158q6 -4 20.5 -13.5t20.5 -13.5q-92 -132 -205.5 -177.5 t-333.5 -45.5q-1 20 -7 79t-8.5 101.5t-0.5 77.5q-39 -135 -119 -203.5t-176 -68.5q-47 0 -90 18.5t-80.5 58.5t-59.5 112t-22 169zM127 328q0 -148 59 -225.5t144 -77.5q129 0 211 138.5t82 383.5q0 200 -62 356q-134 -22 -235 -111.5t-150 -210.5t-49 -253zM670 393 q230 -6 351 120.5t93 381.5q-124 -18 -211.5 -62t-137 -111.5t-72 -147.5t-23.5 -181z" />
<glyph unicode="&#x178;" horiz-adv-x="1136" d="M20 1468v50h359v-50h-152q3 -231 95.5 -463t244.5 -384q150 150 243.5 381.5t96.5 465.5h-149v50h358v-50h-155q-3 -248 -105.5 -490t-263.5 -400v-529h156v-49h-361v49h154v529q-160 159 -262 401t-105 489h-154zM371 1647v235h49v-235h-49zM717 1647v235h49v-235h-49z " />
<glyph unicode="&#x2c6;" horiz-adv-x="485" d="M0 1251l244 228l241 -228l-30 -28l-211 190l-209 -190z" />
<glyph unicode="&#x2dc;" horiz-adv-x="567" d="M0 1219q13 22 18.5 30.5t23 31t32 33.5t37 21.5t45.5 10.5q34 0 69.5 -17t60 -37.5t55 -37.5t56.5 -17q12 0 23.5 2t22 7t18.5 9.5t17.5 13t15 13t13.5 14.5t11 13.5t10 13.5l7 10l32 -14q-66 -123 -168 -123q-31 0 -65 17t-59 37.5t-57 37.5t-60 17q-24 0 -44.5 -11.5 t-31 -23.5t-26.5 -35t-23 -31z" />
<glyph unicode="&#x2000;" horiz-adv-x="947" />
<glyph unicode="&#x2001;" horiz-adv-x="1894" />
<glyph unicode="&#x2002;" horiz-adv-x="947" />
<glyph unicode="&#x2003;" horiz-adv-x="1894" />
<glyph unicode="&#x2004;" horiz-adv-x="631" />
<glyph unicode="&#x2005;" horiz-adv-x="473" />
<glyph unicode="&#x2006;" horiz-adv-x="315" />
<glyph unicode="&#x2007;" horiz-adv-x="315" />
<glyph unicode="&#x2008;" horiz-adv-x="236" />
<glyph unicode="&#x2009;" horiz-adv-x="378" />
<glyph unicode="&#x200a;" horiz-adv-x="105" />
<glyph unicode="&#x2010;" horiz-adv-x="782" d="M90 567v47h602v-47h-602z" />
<glyph unicode="&#x2011;" horiz-adv-x="782" d="M90 567v47h602v-47h-602z" />
<glyph unicode="&#x2012;" horiz-adv-x="782" d="M90 567v47h602v-47h-602z" />
<glyph unicode="&#x2013;" horiz-adv-x="935" d="M0 567v47h936v-47h-936z" />
<glyph unicode="&#x2014;" horiz-adv-x="2048" d="M195 567v47h1658v-47h-1658z" />
<glyph unicode="&#x2018;" horiz-adv-x="309" d="M113 1030q-10 208 2 330.5t65 261.5l39 -14q-44 -136 -54 -249.5t-3 -328.5h-49z" />
<glyph unicode="&#x2019;" horiz-adv-x="309" d="M90 1044q44 136 54 249.5t3 328.5h50q10 -206 -2 -329.5t-66 -262.5z" />
<glyph unicode="&#x201a;" horiz-adv-x="313" d="M104 -307q45 137 54.5 250.5t3.5 326.5h49q10 -206 -2 -329.5t-66 -262.5z" />
<glyph unicode="&#x201c;" horiz-adv-x="501" d="M115 1030q-24 388 67 592l41 -14q-79 -219 -59 -578h-49zM299 1030q-24 386 68 592l41 -14q-81 -216 -58 -578h-51z" />
<glyph unicode="&#x201d;" horiz-adv-x="501" d="M94 1044q81 216 58 578h51q24 -386 -68 -592zM279 1044q79 219 59 578h49q24 -386 -68 -592z" />
<glyph unicode="&#x201e;" horiz-adv-x="501" d="M98 -309q81 216 58 577h51q24 -386 -68 -592zM283 -309q79 218 59 577h49q24 -388 -67 -592z" />
<glyph unicode="&#x2022;" horiz-adv-x="471" d="M90 690q0 60 42.5 102t105.5 42q59 0 102 -42t43 -102t-43 -103.5t-102 -43.5q-62 0 -105 43t-43 104z" />
<glyph unicode="&#x2026;" horiz-adv-x="1054" d="M152 0v268h53v-268h-53zM500 0v268h53v-268h-53zM852 0v268h53v-268h-53z" />
<glyph unicode="&#x202f;" horiz-adv-x="378" />
<glyph unicode="&#x2039;" horiz-adv-x="669" d="M39 553l512 502l31 -33l-484 -469l484 -465l-31 -35z" />
<glyph unicode="&#x203a;" horiz-adv-x="669" d="M88 88l483 465l-483 469l31 33l512 -502l-512 -500z" />
<glyph unicode="&#x205f;" horiz-adv-x="473" />
<glyph unicode="&#x20ac;" horiz-adv-x="1153" d="M86 639l14 45h103q2 65 14 178h-131l14 45h125q46 255 176 404t310 149q56 0 108 -17.5t89.5 -45t62.5 -54.5t41 -53l-25 -49q-4 7 -10.5 18t-32 40t-54.5 51.5t-77.5 40.5t-101.5 18q-87 0 -160.5 -39.5t-125.5 -109.5t-87.5 -158.5t-56.5 -194.5h577l-18 -45h-568 q-12 -87 -18 -178h604l-18 -45h-586q1 -134 23 -240t58.5 -175t88 -114t107.5 -64t120 -19q237 0 373 249l41 -20q-70 -131 -175 -205t-239 -74q-99 0 -178.5 37.5t-140.5 114.5t-94.5 206.5t-34.5 303.5h-117z" />
<glyph unicode="&#x2122;" horiz-adv-x="1509" d="M61 1315v123h619v-121h-47v80h-236v-731h84v-41h-217v41h86v731h-241v-82h-48zM604 625v41h80l111 731h-76v41h151l158 -740l164 740h149v-41h-75l114 -731h76v-41h-199v41h76l-108 731l-178 -783h-39l-172 783l-109 -731h76v-41h-199z" />
<glyph unicode="&#x25fc;" horiz-adv-x="942" d="M0 0v942h942v-942h-942z" />
</font>
</defs>
</svg>
